<svg id="Layer_1" data-name="Layer 1" xmlns="http://www.w3.org/2000/svg" viewBox="0 0 115.66 133.45"><defs><style>.cls-1{fill:#f2cb05;}.cls-2{isolation:isolate;}</style></defs><title>approval</title><g id="Group_267" data-name="Group 267"><path id="Path_576" data-name="Path 576" class="cls-1" d="M58.72,0a46.76,46.76,0,1,0,.05,0Zm0,85.06A38.28,38.28,0,1,1,97,46.79h0a38.24,38.24,0,0,1-38.2,38.27Z"/><g id="Group_266" data-name="Group 266"><g id="Group_265" data-name="Group 265"><path id="Path_577" data-name="Path 577" class="cls-1" d="M53.78,40.5c4.3,0,4.86-2.47,4.86-4.06,0-1.27-.08-4.53-4.14-4.53A4,4,0,0,0,51,33.74c-1,1.11-1.35,1.67-2,1.67a2.71,2.71,0,0,1-1.51-.88l-2.15-1.75c-.64-.55-1.27-1-1.27-1.75a2.32,2.32,0,0,1,.55-1.35c3.74-5.09,7-6,12.65-6,3.19,0,7.64,1.12,9.55,4.06a9.9,9.9,0,0,1,1.75,5.57c0,7.56-3.58,9-3.58,9.79,0,.63,1.12,1.27,1.67,1.67,3.5,2.7,3.5,6.44,3.5,9,0,8.35-4.53,12.89-14.88,12.89-4.21,0-6.2-.64-8.35-1.83-.88-.48-3.74-3-3.74-4.46,0-.71.4-1.27,1.27-2.15l2.71-2.62A1.52,1.52,0,0,1,48.45,55a1.59,1.59,0,0,1,1.11.48,7.43,7.43,0,0,0,5.81,2.78c3.5,0,4.7-2,4.7-4.61,0-3.74-1.59-5.17-5.41-5.17-.58.08-1.17.13-1.75.16-1.52,0-1.68-2.07-1.68-3.74v-.64c0-1.67.08-3.74,1.91-3.74Z"/></g></g></g><g id="Approval" class="cls-2"><g class="cls-2"><path class="cls-1" d="M15.47,131.9c0,1.42-1,1.55-2.73,1.55H11.1c-1.92,0-1-4.65-2.2-4.65H6.42c-1.24,0-.53,4.65-2.39,4.65H2.57C1,133.45,0,133.32,0,131.9c0-1.86.74-3.51,3.16-18,.25-1.55.87-2.48,2.11-2.48h4.78c1.24,0,1.86.93,2.17,2.48C14.33,126.63,15.47,130,15.47,131.9Zm-9-8.25c0,.5.22.5,1.21.5s1.21,0,1.21-.47a3.41,3.41,0,0,0,0-.5c-.38-3-.5-6.79-1.18-6.79s-.87,3.73-1.18,6.79A2.87,2.87,0,0,0,6.45,123.65Z"/><path class="cls-1" d="M21.64,126.41V131c0,1.24,0,2.48-1.86,2.48H18.23c-1.86,0-1.86-1.24-1.86-2.48V113.91c0-1.24,0-2.48,1.86-2.48H25c3.35,0,5.24,2.73,5.24,7.07a14.63,14.63,0,0,1-1,5c-1,2.1-3.94,2.41-5.68,2.41a8.27,8.27,0,0,1-1.15-.06C21.67,125.88,21.64,126.13,21.64,126.41Zm0-9.27c0,.4,0,.93,0,1.58s0,1.18,0,1.55c0,1,.18,1.21,1.42,1.21,1.65,0,1.71-1.36,1.71-2.76s-.31-3.1-1.71-3.1C21.79,115.62,21.61,116,21.61,117.14Z"/><path class="cls-1" d="M36.21,126.41V131c0,1.24,0,2.48-1.86,2.48H32.8c-1.86,0-1.86-1.24-1.86-2.48V113.91c0-1.24,0-2.48,1.86-2.48h6.73c3.35,0,5.24,2.73,5.24,7.07a14.38,14.38,0,0,1-1,5c-1,2.1-3.93,2.41-5.67,2.41a8.27,8.27,0,0,1-1.15-.06C36.24,125.88,36.21,126.13,36.21,126.41Zm0-9.27c0,.4,0,.93,0,1.58s0,1.18,0,1.55c0,1,.18,1.21,1.42,1.21,1.65,0,1.71-1.36,1.71-2.76s-.31-3.1-1.71-3.1C36.36,115.62,36.18,116,36.18,117.14Z"/><path class="cls-1" d="M53.41,111.43c4.62,0,5.93,3.32,5.93,7,0,2.23,0,3.66-1.8,5.15-.87.74-1.43.31-1.43,1.48s.4,2.83,1.43,2.83a4,4,0,0,0,1-.16c1,0,1.15.84,1.15,2.26,0,.69,0,1.52,0,2.45,0,.62-.25,1.18-1.86,1.18-2.86,0-4.31-2.11-4.9-4.4-.75-2.88-1.68-3.38-1.86-3.38s-.25.5-.25.74V131c0,1.24,0,2.48-1.86,2.48H46.75c-1.24,0-1.24-1.24-1.24-2.48V113.91c0-1.24,0-2.48,1.86-2.48ZM50.75,117c0,.41,0,1.12,0,1.77s0,1.18,0,1.55c0,1,.18,1.21,1.42,1.21,1.4,0,1.71-1.36,1.71-2.76s-.31-3.1-1.71-3.1C50.93,115.62,50.75,115.84,50.75,117Z"/><path class="cls-1" d="M60.42,119.93c0-5,.46-8.65,7-8.65,6.24,0,6.67,3.6,6.67,8.52,0,1.87.09,3.69.09,5.34,0,4.9-.77,8.46-6.76,8.46-6.54,0-7-3.66-7-8.62,0-.83,0-1.67,0-2.54S60.42,120.73,60.42,119.93Zm5.3-2.61v9.77c0,.93,0,2.17,1.55,2.17s1.55-1.24,1.55-2.17v-9.77c0-.77,0-1.7-1.55-1.7S65.72,116.55,65.72,117.32Z"/><path class="cls-1" d="M86.4,111.4h1.21c1.33,0,2.11.16,2.11,1.4,0,1-.84,4.65-3.42,18.17-.3,1.55-.93,2.48-2.17,2.48H80.26c-1.24,0-1.86-.93-2.14-2.48-2.36-13.52-3.23-17.21-3.23-18.17,0-1.3.78-1.43,2.27-1.43h1.33c1.64,0,2,.53,2.51,5.46C81.9,125,82,128,82.49,128c.37,0,.56-3,1-6.48C84.69,112.12,84.38,111.4,86.4,111.4Z"/><path class="cls-1" d="M104,131.9c0,1.42-1,1.55-2.73,1.55H99.67c-1.93,0-1-4.65-2.21-4.65H95c-1.24,0-.52,4.65-2.38,4.65H91.14c-1.61,0-2.57-.13-2.57-1.55,0-1.86.74-3.51,3.16-18,.25-1.55.87-2.48,2.11-2.48h4.77c1.24,0,1.86.93,2.17,2.48C102.89,126.63,104,130,104,131.9Zm-9-8.25c0,.5.22.5,1.21.5s1.21,0,1.21-.47a3.41,3.41,0,0,0,0-.5c-.37-3-.49-6.79-1.18-6.79s-.86,3.73-1.17,6.79A2.16,2.16,0,0,0,95,123.65Z"/><path class="cls-1" d="M114.2,129c1.31,0,1.46.68,1.46,1.61V131c0,1.24,0,2.48-1.86,2.48h-7c-1.86,0-1.86-1.24-1.86-2.48V113.91c0-1.24,0-2.48,1.86-2.48h1.55c1.86,0,1.86,1.24,1.86,2.48v13.37c0,.74,0,1.7,1,1.73C112.81,129,113.55,129,114.2,129Z"/></g></g></svg>