<svg id="Layer_1" data-name="Layer 1" xmlns="http://www.w3.org/2000/svg" viewBox="0 0 173.1 157.45"><defs><style>.cls-1{fill:#f2f2f2;}</style></defs><title>customer-bg1</title><g id="Group_499" data-name="Group 499"><g id="Group_470" data-name="Group 470"><path id="Path_747" data-name="Path 747" class="cls-1" d="M110,152.37c-38.67,14.3-80.7-3.62-97.44-28.72C-6.78,94.53-5.6,66.07,28.86,49.54c18.57-8.89,38.73-10,51.77-18.25C95.33,22.2,118.38-3.95,143,6.46,200.2,30.63,168.45,130.83,110,152.37Z"/></g><g id="Group_473" data-name="Group 473"><g id="Group_471" data-name="Group 471"><path id="Path_748" data-name="Path 748" class="cls-1" d="M19.7,8.7c6.78.06,9.42,7.11,8.1,14.75C26.28,32,17.65,40.78,12.12,39.79c-5.27-.92-9-9.16-7.58-16.6C6.26,14,13.57,8.56,19.7,8.7Z"/></g><g id="Group_472" data-name="Group 472"><circle id="Ellipse_47" data-name="Ellipse 47" class="cls-1" cx="33.93" cy="5.34" r="5.34"/></g></g></g></svg>