<?xml version="1.0" encoding="utf-8"?>
<!-- Generator: Adobe Illustrator 24.0.1, SVG Export Plug-In . SVG Version: 6.00 Build 0)  -->
<svg version="1.1" id="Layer_1" xmlns="http://www.w3.org/2000/svg" xmlns:xlink="http://www.w3.org/1999/xlink" x="0px" y="0px"
	 viewBox="0 0 173.1 157.4" style="enable-background:new 0 0 173.1 157.4;" xml:space="preserve">
<style type="text/css">
	.st0{fill:#F2F2F2;}
</style>
<title>customer-bg1</title>
<g id="Group_499">
	<g id="Group_470">
		<path id="Path_747" class="st0" d="M110,152.4c-38.7,14.3-80.7-3.6-97.4-28.7C-6.8,94.5-5.6,66.1,28.9,49.5
			c18.6-8.9,38.7-10,51.8-18.2C95.3,22.2,118.4-4,143,6.5C200.2,30.6,168.4,130.8,110,152.4z"/>
	</g>
	<g id="Group_473">
		<g id="Group_471">
			<path id="Path_748" class="st0" d="M19.7,8.7c6.8,0.1,9.4,7.1,8.1,14.8C26.3,32,17.6,40.8,12.1,39.8c-5.3-0.9-9-9.2-7.6-16.6
				C6.3,14,13.6,8.6,19.7,8.7z"/>
		</g>
		<g id="Group_472">
			<circle id="Ellipse_47" class="st0" cx="33.9" cy="5.3" r="5.3"/>
		</g>
	</g>
</g>
<g>
	<defs>
		<circle id="SVGID_1_" cx="86.6" cy="54.9" r="46.2"/>
	</defs>
	<clipPath id="SVGID_2_">
		<use xlink:href="#SVGID_1_"  style="overflow:visible;"/>
	</clipPath>
	<g style="clip-path:url(#SVGID_2_);">
		
			<image style="overflow:visible;" width="1055" height="910" xlink:href="testqase-customer.jpg"  transform="matrix(0.1296 0 0 0.1296 15.2468 3.0224)">
		</image>
	</g>
</g>
</svg>
