<svg id="Layer_1" data-name="Layer 1" xmlns="http://www.w3.org/2000/svg" viewBox="0 0 53.04 62.31"><defs><style>.cls-1{fill:#f2cb05;}</style></defs><title>faq-yellow-bean</title><g id="Group_513" data-name="Group 513"><g id="Group_351" data-name="Group 351"><path id="Path_626" data-name="Path 626" class="cls-1" d="M48.41,30.52c-1.06-2.67-5.22-11.33-7.89-18.42-2.38-6.37-8.07-12-13-12.1C21.2-.13,13.1,9.89,13.1,22.67s3.61,24.1,20.37,24.1S50.24,35.11,48.41,30.52ZM33.34,45.21c-15.66,0-18.63-10.57-18.63-22.5s7.17-21.31,13-21.18c4.63.08,9.55,5.35,11.76,11.29,2.5,6.62,6.37,14.73,7.34,17.23C48.58,34.34,49,45.21,33.34,45.21Z"/></g><g id="Group_352" data-name="Group 352"><ellipse id="Ellipse_28" data-name="Ellipse 28" class="cls-1" cx="24.52" cy="11.08" rx="1.06" ry="1.19"/></g><g id="Group_353" data-name="Group 353"><ellipse id="Ellipse_29" data-name="Ellipse 29" class="cls-1" cx="29.1" cy="10.83" rx="1.15" ry="1.53"/></g><g id="Group_354" data-name="Group 354"><path id="Path_627" data-name="Path 627" class="cls-1" d="M23.32,16.18c.34-1,6.67-2.08,7-1.79s.51,8.66-2.71,9.47S22.9,17.32,23.32,16.18Z"/></g><g id="Group_355" data-name="Group 355"><path id="Path_628" data-name="Path 628" class="cls-1" d="M43.57,20.08c1-1.36,5.18-7.26,5.35-8.32s.21-3,1.44-3.61a1.88,1.88,0,0,1,2.5.89,1.8,1.8,0,0,1,.18.64c0,1.19-2.08,2.38-2.76,3.06s-5.56,7.43-6,8.7S43.32,20.46,43.57,20.08Z"/></g><g id="Group_356" data-name="Group 356"><path id="Path_629" data-name="Path 629" class="cls-1" d="M13.69,22.54c-.85-.85-7.89-5.26-8.78-6.11-.56-.55-.43-1.78-1.15-2.93S.58,12.14.15,13.33s-.08,2.21,2.59,3.44,10.36,6.37,11,7.85S14.41,23.22,13.69,22.54Z"/></g><g id="Group_357" data-name="Group 357"><path id="Path_630" data-name="Path 630" class="cls-1" d="M24.94,45.34A45.29,45.29,0,0,0,22,53.57c-.25,1.74.6,4.92.3,5.52s-1.4,1.31-1,2.42,2,1.1,2.93-.17.55-2.17.25-2.55a10.36,10.36,0,0,1-1-5.31c.3-2.08,2.93-7.34,3-7.81S25.41,44.32,24.94,45.34Z"/></g><g id="Group_358" data-name="Group 358"><path id="Path_631" data-name="Path 631" class="cls-1" d="M40.14,45.72c.89,1.14,4.45,3.22,4.37,5.3s-1.4,5.18-.68,6.5,4.41.68,4.41-1.06-2.5-1.57-2.88-1.79.59-2.2.42-4.16c-.17-1.7-2.25-5.22-3.1-5.68S39.29,44.61,40.14,45.72Z"/></g></g></svg>