<svg id="Layer_1" data-name="Layer 1" xmlns="http://www.w3.org/2000/svg" viewBox="0 0 73.41 98.62"><defs><style>.cls-1{fill:#96d9c6;}.cls-2{fill:#f2cb05;}</style></defs><title>faq-space-bean</title><g id="Group_514" data-name="Group 514"><g id="Group_334" data-name="Group 334"><g id="Group_325" data-name="Group 325"><g id="Group_324" data-name="Group 324"><path id="Path_619" data-name="Path 619" class="cls-1" d="M35.59,27.37c-11.75,5.85-25,30.37-18.91,45.22,5,12.13,19.44,15.28,30.86,8.6s3.67-15.66,3.62-20.74,6.34-11.7,5-22.3C55.37,31.38,47.39,21.57,35.59,27.37ZM55.18,39.12c1.25,10-5.23,16.06-5.18,20.8s6.92,14.36-3,19.87c-10.93,6.09-24.47,3.34-29.16-8.12-5.75-14,6.72-37.24,17.85-42.75s18.71,3.82,19.49,10.2Z"/></g></g><g id="Group_326" data-name="Group 326"><path id="Path_620" data-name="Path 620" class="cls-1" d="M16.34,55.42c-1.45-2.18-7-8.17-8.17-8.66s-3.82.58-5.9.39S-.44,44,.29,42.8s3.34-2.27,6.14-.39S17.12,53,17.12,53Z"/></g><g id="Group_327" data-name="Group 327"><path id="Path_621" data-name="Path 621" class="cls-1" d="M51,61.32c2.12-1.6,9.28-5.42,10.59-5.52s3.43,1.79,5.46,2.33,3.58-2.08,3.29-3.44-2.42-3.24-5.66-2.37S51.16,58.8,51.16,58.8Z"/></g><g id="Group_328" data-name="Group 328"><path id="Path_622" data-name="Path 622" class="cls-1" d="M27.71,82.84C24.32,84.09,22,85.45,20,88c-2.85,3.68-2.42,9.19-3.92,10.25s-6.87-.1-7.83-2.61.92-3.77,2.75-3.24a10.45,10.45,0,0,1,2.57,1.16.54.54,0,0,0,.74-.21l0-.08A20.47,20.47,0,0,1,19,85.69c2.47-2.32,5.9-4.35,6.1-4.21S29.06,82.35,27.71,82.84Z"/></g><g id="Group_329" data-name="Group 329"><path id="Path_623" data-name="Path 623" class="cls-1" d="M36.41,83.9c0,.53-.72,4.93.39,7.64,1.69,4.16,4.21,5.08,7.54,3.73s4.45-3.82,4.45-5.13a3,3,0,0,0-3.33-2.61,3.57,3.57,0,0,0-3.15,3.77c0,1.4-2.66,3.72-3.43-1.26-.29-2.08.24-5.9.1-6.43S36.46,82.74,36.41,83.9Z"/></g><g id="Group_331" data-name="Group 331"><g id="Group_330" data-name="Group 330"><path id="Path_624" data-name="Path 624" class="cls-1" d="M44.92,44.44a.76.76,0,0,0-.87.44A5.31,5.31,0,0,1,33.9,42a.8.8,0,0,0-.53-.82h0a.73.73,0,0,0-.9.49.29.29,0,0,0,0,.09,6.78,6.78,0,0,0,13,3.63.75.75,0,0,0-.44-.95l0,0Z"/></g></g><g id="Group_332" data-name="Group 332"><ellipse id="Ellipse_24" data-name="Ellipse 24" class="cls-1" cx="38.01" cy="38.15" rx="0.97" ry="1.31"/></g><g id="Group_333" data-name="Group 333"><ellipse id="Ellipse_25" data-name="Ellipse 25" class="cls-1" cx="43.09" cy="39.12" rx="1.21" ry="1.4"/></g></g><g id="Group_341" data-name="Group 341"><g id="Group_336" data-name="Group 336"><g id="Group_335" data-name="Group 335"><path id="Path_625" data-name="Path 625" class="cls-2" d="M33,17.07A23.4,23.4,0,1,0,61.22,34.38h0A23.39,23.39,0,0,0,33,17.07Zm26.55,17.7a21.73,21.73,0,1,1-26.17-16.1h0a21.67,21.67,0,0,1,26.14,16l0,.09Z"/></g></g><g id="Group_337" data-name="Group 337"><rect id="Rectangle_28" data-name="Rectangle 28" class="cls-2" x="25.05" y="3.34" width="1.69" height="17.12" transform="translate(-2.58 10.73) rotate(-22.33)"/></g><g id="Group_338" data-name="Group 338"><rect id="Rectangle_29" data-name="Rectangle 29" class="cls-2" x="54.7" y="20.56" width="17.12" height="1.69" transform="translate(0.68 44.72) rotate(-39.12)"/></g><g id="Group_339" data-name="Group 339"><circle id="Ellipse_26" data-name="Ellipse 26" class="cls-2" cx="21.91" cy="2.52" r="2.52"/></g><g id="Group_340" data-name="Group 340"><circle id="Ellipse_27" data-name="Ellipse 27" class="cls-2" cx="70.89" cy="14.75" r="2.52"/></g></g></g></svg>