<svg id="Layer_1" data-name="Layer 1" xmlns="http://www.w3.org/2000/svg" viewBox="0 0 1920.11 500"><defs><style>.cls-1{fill:#f2f2f2;}.cls-2{fill:#96d9c6;}.cls-3{fill:#f27d16;}.cls-4{fill:#f2cb05;}.cls-5{fill:#9450f2;}.cls-6{fill:#3068d9;}.cls-7{fill:#4d4d4d;}</style></defs><title>footer-desktop</title><g id="Group_423" data-name="Group 423"><path id="Path_663" data-name="Path 663" class="cls-1" d="M1919.86,144.87c-75.8-77.6-192.8-153.9-317.8-144-242,19-294,156-483,197-177.7,38.5-288.7-71.6-427-100-229-47-302,113-532,138-58.2,6.3-111.1-5.9-160-19.1L0,501.33h1920.2Z"/></g><g id="Group_449" data-name="Group 449"><g id="Group_436" data-name="Group 436"><g id="Group_434" data-name="Group 434"><path id="Path_669" data-name="Path 669" class="cls-2" d="M1229,359.49c-4.7-1.6-5.1-7-2.4-12.1,2.9-5.7,10.8-9.9,14.5-8,3.5,1.8,4.3,8.3,1.7,13.2C1239.47,358.69,1233.17,360.89,1229,359.49Z"/></g><g id="Group_435" data-name="Group 435"><circle id="Ellipse_43" data-name="Ellipse 43" class="cls-2" cx="1218.29" cy="358.86" r="3.9"/></g></g><g id="Group_448" data-name="Group 448"><g id="Group_447" data-name="Group 447"><g id="Group_437" data-name="Group 437"><path id="Path_670" data-name="Path 670" class="cls-3" d="M721.22,311c0,3.6,0,3.6,3.6,3.6s3.6,0,3.6-3.3V303c0-2.6,0-5.2,3.9-5.2h3.2c3.9,0,3.9,2.6,3.9,5.2v35.5c0,2.6,0,5.2-3.9,5.2h-3.2c-3.9,0-3.9-2.6-3.9-5.2v-9.7c0-4.3-.3-4.5-3.6-4.5h-.7c-2,0-2.9,0-2.9,3.3v10.9c0,2.6,0,5.2-3.9,5.2h-3.2c-3.9,0-3.9-2.6-3.9-5.2V303c0-2.6,0-5.2,3.9-5.2h3.2c3.9,0,3.9,2.6,3.9,5.2Z"/></g><g id="Group_438" data-name="Group 438"><path id="Path_671" data-name="Path 671" class="cls-4" d="M773.92,340.51c0,3-2,3.2-5.7,3.2h-3.4c-4,0-2-9.7-4.6-9.7H755c-2.6,0-1.1,9.7-5,9.7h-3c-3.3,0-5.4-.3-5.4-3.2,0-3.9,1.6-7.3,6.6-37.5.5-3.2,1.8-5.2,4.4-5.2h10c2.6,0,3.9,1.9,4.5,5.2C771.52,329.51,773.92,336.61,773.92,340.51Zm-18.8-17.2c0,1,.4,1,2.5,1s2.5,0,2.5-1a3.4,3.4,0,0,0-.1-1c-.8-6.4-1-14.2-2.5-14.2-1.3,0-1.8,7.8-2.5,14.2a3.4,3.4,0,0,1,.1,1Z"/></g><g id="Group_439" data-name="Group 439"><path id="Path_672" data-name="Path 672" class="cls-5" d="M787.19,329v9.5c0,2.6,0,5.2-3.9,5.2h-3.2c-3.9,0-3.9-2.6-3.9-5.2V303c0-2.6,0-5.2,3.9-5.2h14c7,0,10.9,5.7,10.9,14.8a28.29,28.29,0,0,1-2,10.4c-2,4.4-8.2,5.1-11.8,5.1a19.27,19.27,0,0,1-2.4-.1C787.29,328,787.19,328.46,787.19,329Zm-.1-19.2c0,.9.1,1.9.1,3.3s-.1,2.5-.1,3.2c0,2.2.4,2.5,3,2.5,3.4,0,3.6-2.9,3.6-5.8s-.6-6.5-3.6-6.5c-2.6.1-3,.9-3,3.3Z"/></g><g id="Group_440" data-name="Group 440"><path id="Path_673" data-name="Path 673" class="cls-2" d="M818.16,329v9.5c0,2.6,0,5.2-3.9,5.2h-3.2c-3.9,0-3.9-2.6-3.9-5.2V303c0-2.6,0-5.2,3.9-5.2h14c7,0,10.9,5.7,10.9,14.8a28.29,28.29,0,0,1-2,10.4c-2,4.4-8.2,5.1-11.8,5.1a19.27,19.27,0,0,1-2.4-.1C818.26,328,818.16,328.46,818.16,329Zm0-19.2c0,.9.1,1.9.1,3.3s-.1,2.5-.1,3.2c0,2.2.4,2.5,3,2.5,3.4,0,3.6-2.9,3.6-5.8s-.6-6.5-3.6-6.5C818.46,306.56,818.16,307.36,818.16,309.76Z"/></g><g id="Group_441" data-name="Group 441"><path id="Path_674" data-name="Path 674" class="cls-6" d="M850.37,343.67c-3.9,0-3.9-2.6-3.9-5.2v-9.7c0-3.5-3.3-11.6-4.5-14.3l-.2-.4c-1.3-2.9-5.1-12.7-5.1-14.5a1.58,1.58,0,0,1,1.5-1.7H846c2,0,2.7,2.8,3.2,5.2.4,2,2.6,9.3,2.7,9.9a.67.67,0,0,0,.6.7.58.58,0,0,0,.6-.6c.1-.6,2-7.9,2.5-10,.6-2.4,1.3-5.2,3.7-5.2h5.8c1.9,0,2.6,0,2.6,1.7s-3.8,11.7-5.1,14.5c-.6,1.3-1.7,4.3-3,7.6-2,5.1-2.2,5.7-2.2,11.4v5.8c0,2.5,0,4.9-3.9,4.9l-3.1-.1Z"/></g></g><path id="Path_675" data-name="Path 675" class="cls-7" d="M908.42,319.19a.27.27,0,0,0,.3.3c4.6,1.6,6.4,6.7,6.4,11.2a15.8,15.8,0,0,1-1.7,7.1c-3.2,5.8-5.9,5.9-10.1,5.9h-14.4c-3.9,0-3.9-2.6-3.9-5.2V303c0-2.6,0-5.2,3.9-5.2h13.9c8.3,0,11.1,5.5,11.1,11.5,0,3.8-1.6,7.6-5.1,9.5C908.52,318.89,908.42,319,908.42,319.19Zm-12.5-8.3c0,3.2,0,4.3,3.2,4.3,2.6,0,3.2-2,3.2-4.3s-.6-4.4-3.2-4.4c-3.2,0-3.2,1.2-3.2,4.4Zm0,18.3c0,3.9,0,5.8,3.6,5.8,3.2,0,3.6-2.9,3.6-5.8s0-5.7-3.6-5.7-3.6,1.8-3.6,5.7Z"/><path id="Path_676" data-name="Path 676" class="cls-7" d="M928.42,331.89a2.61,2.61,0,0,0,2.7,2.2c3.7,0,4.9-.1,6.2-.1,2.7,0,3.6.8,3.6,2.7v4.5c0,1.9-.6,2.6-2.6,2.6h-17c-3.9,0-3.9-3.9-3.9-5.2V303c0-2.6,0-5.2,3.9-5.2H938c1.6,0,3,.6,3,1.9v5.5c0,1.6-1.3,1.6-2.9,1.6-2.5,0-4.5-.1-6.1-.1-3.6,0-3.6,1.3-3.6,3.3,0,4.2,0,5.3,3.2,5.3,4,0,4.6-.1,6.1-.1,2.3,0,2.4,2.3,2.4,3v4.1c0,1.9-1.3,2-3,2-3.3,0-5.4-.1-6.7-.1-2,0-2,.9-2,3Z"/><path id="Path_677" data-name="Path 677" class="cls-7" d="M975.42,340.49c0,3-2,3.2-5.7,3.2h-3.4c-4,0-2-9.7-4.6-9.7h-5.2c-2.6,0-1.1,9.7-5,9.7h-3c-3.3,0-5.4-.3-5.4-3.2,0-3.9,1.6-7.3,6.6-37.5.5-3.2,1.8-5.2,4.4-5.2h10c2.6,0,3.9,1.9,4.5,5.2C973,329.49,975.42,336.59,975.42,340.49Zm-18.8-17.2c0,1,.4,1,2.5,1s2.5,0,2.5-1a3.4,3.4,0,0,0-.1-1c-.8-6.4-1-14.2-2.5-14.2-1.3,0-1.8,7.8-2.5,14.2a3.75,3.75,0,0,1,.1,1Z"/><path id="Path_678" data-name="Path 678" class="cls-7" d="M997.72,318.49q.3,0,.3-.6V303c0-2.6,0-5.2,3.9-5.2h3.2c3.9,0,3.9,2.6,3.9,5.2v35.5c0,2.6,0,5.2-3.9,5.2-5.8,0-6.2-1-7.2-3l-8.6-18.7c-.2-.4-.4-.6-.5-.6s-.3.3-.3.6l.1,16.5c0,2.6,0,5.2-3.9,5.2h-3.2c-3.9,0-3.9-2.6-3.9-5.2V303c0-2.6,0-5.2,3.9-5.2h3.4c2.2,0,2.9.3,3.8,2.3l8.3,17.8A1.49,1.49,0,0,0,997.72,318.49Z"/><path id="Path_679" data-name="Path 679" class="cls-7" d="M1025.32,297.49c5.4,0,9,1,9,2.8v5c0,.7-.3,1.9-2.5,1.9h-.5c-1,0-3.3-.7-5.2-.7-1.6,0-2.8.5-2.8,2.6s.6,3,3.1,5.1c7.7,6.4,9.3,10.9,9.3,16.1,0,3-.1,5.7-1.7,8.2a12,12,0,0,1-6.9,4.8,25.64,25.64,0,0,1-6.2.7c-4.8,0-9.4-.9-9.4-3.5v-5c0-.8.6-1.6,2.4-1.6s3.1,1,6.8,1c1.8,0,4.3-1.4,4.3-3.4,0-1.5-.1-2.6-4-6.5-6-5.9-8.8-8.6-8.8-13.9C1011.92,298.49,1020.12,297.49,1025.32,297.49Z"/><path id="Path_680" data-name="Path 680" class="cls-7" d="M1066.52,297.79c14.2,0,16.2,9,16.2,22.9,0,13.2-1.3,22.9-16.2,22.9h-9.7c-3.9,0-3.9-2.6-3.9-5.2V303c0-2.6,0-5.2,3.9-5.2Zm-2.6,10.7c0,7.3.1,15.2.1,22.9,0,1.7.1,3.2,1.3,3.2,4.8,0,5.2-3.9,5.2-14.2,0-9-.3-13.9-5.2-13.9C1064.12,306.49,1063.92,307.19,1063.92,308.49Z"/><path id="Path_681" data-name="Path 681" class="cls-7" d="M1096.12,331.89a2.61,2.61,0,0,0,2.7,2.2c3.7,0,4.9-.1,6.2-.1,2.7,0,3.6.8,3.6,2.7v4.5c0,1.9-.6,2.6-2.6,2.6h-17.1c-3.9,0-3.9-3.9-3.9-5.2V303c0-2.6,0-5.2,3.9-5.2h16.7c1.6,0,3,.6,3,1.9v5.5c0,1.6-1.3,1.6-2.9,1.6-2.5,0-4.5-.1-6.1-.1-3.6,0-3.6,1.3-3.6,3.3,0,4.2,0,5.3,3.2,5.3,4,0,4.6-.1,6.1-.1,2.3,0,2.4,2.3,2.4,3v4.1c0,1.9-1.3,2-3,2-3.3,0-5.4-.1-6.7-.1-2,0-2,.9-2,3l.1,4.7Z"/><path id="Path_682" data-name="Path 682" class="cls-7" d="M1124.82,297.49c5.4,0,9,1,9,2.8v5c0,.7-.3,1.9-2.5,1.9h-.5c-1,0-3.3-.7-5.2-.7-1.6,0-2.8.5-2.8,2.6s.6,3,3.1,5.1c7.7,6.4,9.3,10.9,9.3,16.1,0,3-.1,5.7-1.7,8.2a12,12,0,0,1-6.9,4.8,25.64,25.64,0,0,1-6.2.7c-4.8,0-9.4-.9-9.4-3.5v-5c0-.8.6-1.6,2.4-1.6s3.1,1,6.8,1c1.8,0,4.3-1.4,4.3-3.4,0-1.5-.1-2.6-4-6.5-6-5.9-8.8-8.6-8.8-13.9C1111.42,298.49,1119.62,297.49,1124.82,297.49Z"/><path id="Path_683" data-name="Path 683" class="cls-7" d="M1148.32,338.49c0,2.6,0,5.2-3.9,5.2h-3.2c-3.9,0-3.9-2.6-3.9-5.2V303c0-2.6,0-5.2,3.9-5.2h3.2c3.9,0,3.9,2.6,3.9,5.2Z"/><path id="Path_684" data-name="Path 684" class="cls-7" d="M1171.62,326c0-2-1.2-2-2.4-2-2.2,0-2.4-1-2.4-2.8v-.7c0-5.2.1-5.5,3.1-5.5h9.3c2.8,0,2.8,1.3,2.8,2.6v20.1c0,6.4-6.2,6.4-10,6.4-10.3,0-21.4-4.6-21.4-23.7,0-18.5,11.9-22.8,19.8-22.8,6.7,0,9.4.7,9.4,2.7v5.1c0,1.2-.9,1.6-1.9,1.6-2,0-4-.9-6.9-.9-8.2,0-9.2,11.4-9.2,14.1,0,5.3,1,14.5,7.5,14.5,1.3,0,2.2-.6,2.2-2.9V326Z"/><path id="Path_685" data-name="Path 685" class="cls-7" d="M1204.72,318.49q.3,0,.3-.6V303c0-2.6,0-5.2,3.9-5.2h3.2c3.9,0,3.9,2.6,3.9,5.2v35.5c0,2.6,0,5.2-3.9,5.2-5.8,0-6.2-1-7.2-3l-8.6-18.7c-.2-.4-.4-.6-.5-.6s-.3.3-.3.6l.1,16.5c0,2.6,0,5.2-3.9,5.2h-3.2c-3.9,0-3.9-2.6-3.9-5.2V303c0-2.6,0-5.2,3.9-5.2h3.4c2.2,0,2.9.3,3.8,2.3l8.3,17.8C1204.32,318.29,1204.52,318.49,1204.72,318.49Z"/></g><g id="special-left"><g id="Group_445" data-name="Group 445"><g id="Group_443" data-name="Group 443"><path id="Path_686" data-name="Path 686" class="cls-2" d="M681.26,291c5.6-4.3,12.4-.4,16.3,6.8,4.4,8,3.1,20.8-2.1,23.6-4.9,2.7-13.3-1.6-17-8.6C673.86,304.18,676.16,294.88,681.26,291Z"/></g><g id="Group_444" data-name="Group 444"><circle id="Ellipse_44" data-name="Ellipse 44" class="cls-2" cx="690.67" cy="278.91" r="5.5"/></g></g><g id="Group_446" data-name="Group 446"><path id="Path_687" data-name="Path 687" class="cls-2" d="M715.57,277.11c2.4,1.6,2.3,6.5-1,9.3-2.6,2.2-11.5,7.1-16,4.5-3.1-1.8.2-8.1,4.3-11.7C706.27,275.91,711.57,274.41,715.57,277.11Z"/></g></g></g></svg>