<svg id="Layer_1" data-name="Layer 1" xmlns="http://www.w3.org/2000/svg" xmlns:xlink="http://www.w3.org/1999/xlink" viewBox="0 0 375 211.67"><defs><style>.cls-1{fill:none;}.cls-2{clip-path:url(#clip-path);}.cls-3{fill:#f2f2f2;}.cls-4{fill:#96d9c6;}.cls-5{fill:#f27d16;}.cls-6{fill:#f2cb05;}.cls-7{fill:#9450f2;}.cls-8{fill:#3068d9;}.cls-9{fill:#4d4d4d;}</style><clipPath id="clip-path"><rect class="cls-1" width="375" height="210.88"/></clipPath></defs><title>footer</title><g class="cls-2"><g id="Group_521" data-name="Group 521"><path id="Path_663" data-name="Path 663" class="cls-3" d="M442,83.41C422.31,63.3,392,43.53,359.59,46.1,296.88,51,283.4,86.52,234.43,97.15c-46.05,10-74.82-18.56-110.66-25.92C64.42,59.05,45.51,100.52-14.1,107c-15.08,1.63-28.79-1.53-41.46-5l0,109.62H442Z"/></g><g id="Group_522" data-name="Group 522"><g id="Group_436" data-name="Group 436"><g id="Group_434" data-name="Group 434"><path id="Path_669" data-name="Path 669" class="cls-4" d="M330,175c-2.49-.83-2.7-3.72-1.29-6.41,1.54-3,5.75-5.27,7.7-4.26s2.26,4.43.88,7C335.59,174.57,332.27,175.77,330,175Z"/></g><g id="Group_435" data-name="Group 435"><circle id="Ellipse_43" data-name="Ellipse 43" class="cls-4" cx="324.34" cy="174.65" r="2.06"/></g></g><g id="Group_448" data-name="Group 448"><g id="Group_447" data-name="Group 447"><g id="Group_437" data-name="Group 437"><path id="Path_670" data-name="Path 670" class="cls-5" d="M60.17,149.26c0,1.89,0,1.89,1.89,1.89s1.89,0,1.89-1.77V145c0-1.38,0-2.75,2.06-2.75h1.72c2.06,0,2.06,1.37,2.06,2.75v18.89c0,1.38,0,2.75-2.06,2.75H66c-2.06,0-2.06-1.37-2.06-2.75v-5.15c0-2.26-.14-2.4-1.89-2.4h-.37c-1.09,0-1.52,0-1.52,1.75v5.81c0,1.37,0,2.74-2.06,2.74H56.4c-2.07,0-2.07-1.37-2.07-2.74V145c0-1.37,0-2.75,2.07-2.75h1.71c2.06,0,2.06,1.38,2.06,2.75Z"/></g><g id="Group_438" data-name="Group 438"><path id="Path_671" data-name="Path 671" class="cls-6" d="M88.16,164.89c0,1.58-1.06,1.72-3,1.72H83.3c-2.12,0-1.06-5.15-2.44-5.15H78.12c-1.38,0-.57,5.15-2.64,5.15h-1.6c-1.77,0-2.86-.14-2.86-1.72,0-2.06.83-3.89,3.49-19.92.29-1.72,1-2.75,2.35-2.75h5.3c1.38,0,2.06,1,2.4,2.75C86.88,159.05,88.16,162.83,88.16,164.89Zm-10-9.13c0,.54.23.54,1.35.54s1.34,0,1.34-.51a2.45,2.45,0,0,0,0-.54c-.4-3.38-.54-7.53-1.31-7.53s-1,4.12-1.32,7.53a4.36,4.36,0,0,0,0,.51Z"/></g><g id="Group_439" data-name="Group 439"><path id="Path_672" data-name="Path 672" class="cls-7" d="M95.23,158.79v5c0,1.37,0,2.75-2.06,2.75H91.45c-2.06,0-2.06-1.38-2.06-2.75V144.94c0-1.37,0-2.75,2.06-2.75h7.44c3.72,0,5.81,3,5.81,7.85a16,16,0,0,1-1,5.55c-1.09,2.35-4.36,2.69-6.3,2.69a8.72,8.72,0,0,1-1.26-.06C95.26,158.22,95.23,158.51,95.23,158.79Zm0-10.24c0,.45,0,1,0,1.74s0,1.32,0,1.72c0,1.14.2,1.34,1.57,1.34,1.83,0,1.89-1.51,1.89-3.06s-.35-3.43-1.89-3.43c-1.35,0-1.57.43-1.57,1.69Z"/></g><g id="Group_440" data-name="Group 440"><path id="Path_673" data-name="Path 673" class="cls-4" d="M111.69,158.79v5c0,1.37,0,2.75-2.06,2.75h-1.72c-2.06,0-2.06-1.38-2.06-2.75V144.94c0-1.37,0-2.75,2.06-2.75h7.44c3.72,0,5.81,3,5.81,7.85a15.81,15.81,0,0,1-1.06,5.55c-1.08,2.35-4.35,2.69-6.3,2.69a8.65,8.65,0,0,1-1.25-.06C111.72,158.22,111.69,158.51,111.69,158.79Zm0-10.24c0,.45,0,1,0,1.74s0,1.32,0,1.72c0,1.14.2,1.34,1.58,1.34,1.83,0,1.89-1.51,1.89-3.06s-.35-3.43-1.89-3.43c-1.38,0-1.58.43-1.58,1.69Z"/></g><g id="Group_441" data-name="Group 441"><path id="Path_674" data-name="Path 674" class="cls-8" d="M128.78,166.61c-2.06,0-2.06-1.38-2.06-2.75v-5.18c0-1.86-1.78-6.15-2.4-7.59l-.12-.22c-.68-1.55-2.71-6.76-2.71-7.73a.84.84,0,0,1,.79-.9.74.74,0,0,1,.21,0h3.92c1.08,0,1.43,1.49,1.71,2.75.23,1.09,1.38,4.95,1.44,5.27a.39.39,0,0,0,.34.37.35.35,0,0,0,.34-.35c0-.31,1.06-4.18,1.35-5.3s.71-2.74,1.94-2.74h3.07c1,0,1.4,0,1.4.88s-2,6.21-2.69,7.73c-.32.69-.89,2.26-1.6,4.07a11.66,11.66,0,0,0-1.18,6V164c0,1.34,0,2.6-2.06,2.6h-1.69Z"/></g></g><path id="Path_675" data-name="Path 675" class="cls-9" d="M159.67,153.56a.16.16,0,0,0,.14.17c2.46.83,3.38,3.55,3.38,6a8.27,8.27,0,0,1-.92,3.78c-1.69,3.09-3.12,3.15-5.35,3.15h-7.67c-2.06,0-2.06-1.37-2.06-2.75V145c0-1.37,0-2.75,2.06-2.75h7.38c4.44,0,5.9,2.95,5.9,6.13a5.44,5.44,0,0,1-2.72,5A.16.16,0,0,0,159.67,153.56ZM153,149.18c0,1.71,0,2.29,1.71,2.29,1.38,0,1.72-1.09,1.72-2.29s-.34-2.35-1.72-2.35C153,146.86,153,147.46,153,149.18Zm0,9.7c0,2.06,0,3.09,1.89,3.09,1.71,0,1.88-1.55,1.88-3.09s0-3-1.88-3-1.89,1-1.89,3Z"/><path id="Path_676" data-name="Path 676" class="cls-9" d="M170.26,160.31a1.33,1.33,0,0,0,1.43,1.15c1.94,0,2.6-.06,3.32-.06,1.43,0,1.89.4,1.89,1.43v2.4c0,1-.35,1.37-1.38,1.37h-9c-2.06,0-2.06-2.06-2.06-2.74V145c0-1.37,0-2.75,2.06-2.75h8.87c.86,0,1.6.35,1.6,1v2.92c0,.83-.69.86-1.55.86-1.34,0-2.4-.06-3.26-.06-1.89,0-1.89.69-1.89,1.78,0,2.23,0,2.8,1.72,2.8,2.12,0,2.46-.05,3.26-.05,1.2,0,1.26,1.2,1.26,1.57v2.2c0,1-.72,1.09-1.57,1.09-1.75,0-2.87-.06-3.58-.06-1.09,0-1.09.49-1.09,1.6Z"/><path id="Path_677" data-name="Path 677" class="cls-9" d="M195.24,164.89c0,1.58-1.05,1.72-3,1.72h-1.83c-2.12,0-1.06-5.15-2.43-5.15H185.2c-1.38,0-.57,5.15-2.63,5.15H181c-1.78,0-2.87-.14-2.87-1.72,0-2.06.83-3.89,3.5-19.92.28-1.72,1-2.75,2.34-2.75h5.3c1.38,0,2.06,1,2.4,2.75C194,159.05,195.24,162.83,195.24,164.89Zm-10-9.13c0,.54.23.54,1.35.54s1.34,0,1.34-.51a3.25,3.25,0,0,0,0-.54c-.4-3.38-.55-7.53-1.32-7.53s-1,4.12-1.32,7.53a4.36,4.36,0,0,0,0,.51Z"/><path id="Path_678" data-name="Path 678" class="cls-9" d="M207.12,153.21c.12,0,.18-.11.18-.34V145c0-1.37,0-2.75,2.06-2.75h1.71c2.06,0,2.06,1.38,2.06,2.75v18.89c0,1.38,0,2.75-2.06,2.75-3.09,0-3.32-.54-3.8-1.57l-4.58-9.94c-.12-.2-.2-.34-.29-.34s-.14.14-.14.34l0,8.76c0,1.38,0,2.75-2.06,2.75h-1.72c-2.06,0-2.06-1.37-2.06-2.75V145c0-1.37,0-2.75,2.06-2.75h1.83c1.15,0,1.52.14,2,1.2l4.44,9.45C206.92,153.1,207,153.21,207.12,153.21Z"/><path id="Path_679" data-name="Path 679" class="cls-9" d="M221.78,142.05c2.86,0,4.78.51,4.78,1.49v2.63c0,.37-.14,1-1.32,1H225c-.55,0-1.78-.37-2.78-.37-.83,0-1.49.28-1.49,1.37s.32,1.6,1.66,2.72c4.09,3.38,4.92,5.78,4.92,8.56a7.26,7.26,0,0,1-.91,4.35,6.61,6.61,0,0,1-3.67,2.58,15.15,15.15,0,0,1-3.29.37c-2.54,0-5-.49-5-1.86v-2.64c0-.4.35-.83,1.26-.83s1.66.52,3.61.52c1,0,2.26-.74,2.26-1.83,0-.8,0-1.38-2.12-3.44-3.2-3.12-4.69-4.58-4.69-7.38C214.65,142.56,219,142.05,221.78,142.05Z"/><path id="Path_680" data-name="Path 680" class="cls-9" d="M243.68,142.22c7.55,0,8.58,4.81,8.58,12.2,0,7-.68,12.19-8.58,12.19h-5.16c-2.06,0-2.06-1.37-2.06-2.75V145c0-1.37,0-2.75,2.06-2.75Zm-1.4,5.7c0,3.89,0,8.1,0,12.17,0,.88.06,1.71.69,1.71,2.58,0,2.75-2.06,2.75-7.55,0-4.81-.17-7.39-2.75-7.39-.6,0-.72.34-.72,1.06Z"/><path id="Path_681" data-name="Path 681" class="cls-9" d="M259.39,160.31a1.34,1.34,0,0,0,1.43,1.15c1.95,0,2.6-.06,3.32-.06,1.43,0,1.89.4,1.89,1.43v2.4c0,1-.34,1.37-1.37,1.37h-9.08c-2.06,0-2.06-2.06-2.06-2.74V145c0-1.37,0-2.75,2.06-2.75h8.88c.85,0,1.6.35,1.6,1v2.92c0,.83-.69.86-1.55.86-1.35,0-2.4-.06-3.26-.06-1.89,0-1.89.69-1.89,1.78,0,2.23,0,2.8,1.72,2.8,2.11,0,2.46-.05,3.26-.05,1.2,0,1.26,1.2,1.26,1.57v2.2c0,1-.72,1.09-1.58,1.09-1.74,0-2.86-.06-3.57-.06-1.09,0-1.09.49-1.09,1.6v2.4Z"/><path id="Path_682" data-name="Path 682" class="cls-9" d="M274.65,142.05c2.86,0,4.78.51,4.78,1.49v2.63c0,.37-.15,1-1.32,1h-.29c-.54,0-1.77-.37-2.77-.37-.83,0-1.49.28-1.49,1.37s.31,1.6,1.66,2.72c4.09,3.38,4.92,5.78,4.92,8.56a7.4,7.4,0,0,1-.91,4.35,6.64,6.64,0,0,1-3.67,2.58,15.15,15.15,0,0,1-3.29.37c-2.55,0-5-.49-5-1.86v-2.64c0-.4.34-.83,1.26-.83s1.66.52,3.61.52c1,0,2.26-.74,2.26-1.83,0-.8,0-1.38-2.12-3.44-3.21-3.12-4.69-4.58-4.69-7.38C267.52,142.56,271.9,142.05,274.65,142.05Z"/><path id="Path_683" data-name="Path 683" class="cls-9" d="M287.15,163.86c0,1.38,0,2.75-2.06,2.75h-1.71c-2.07,0-2.07-1.37-2.07-2.75V145c0-1.37,0-2.75,2.07-2.75h1.71c2.06,0,2.06,1.38,2.06,2.75Z"/><path id="Path_684" data-name="Path 684" class="cls-9" d="M299.55,157.19c0-1.06-.63-1.09-1.26-1.09-1.15,0-1.26-.54-1.26-1.48v-.35c0-2.77,0-3,1.66-3h4.92c1.49,0,1.49.72,1.49,1.38v10.7c0,3.38-3.32,3.38-5.3,3.38-5.47,0-11.39-2.46-11.39-12.59,0-9.85,6.33-12.14,10.53-12.14,3.58,0,5,.37,5,1.43v2.72c0,.63-.46.83-1,.83-1.06,0-2.12-.46-3.66-.46-4.35,0-4.87,6.07-4.87,7.5,0,2.81.52,7.73,4,7.73.69,0,1.17-.34,1.17-1.55v-3.06Z"/><path id="Path_685" data-name="Path 685" class="cls-9" d="M317.12,153.21c.12,0,.18-.11.18-.34V145c0-1.37,0-2.75,2.06-2.75h1.71c2.07,0,2.07,1.38,2.07,2.75v18.89c0,1.38,0,2.75-2.07,2.75-3.09,0-3.32-.54-3.8-1.57l-4.58-9.94c-.12-.2-.2-.34-.29-.34s-.14.14-.14.34l0,8.76c0,1.38,0,2.75-2.06,2.75h-1.72c-2.06,0-2.06-1.37-2.06-2.75V145c0-1.37,0-2.75,2.06-2.75h1.83c1.15,0,1.52.14,2,1.2l4.44,9.45C316.92,153.1,317,153.21,317.12,153.21Z"/></g><g id="special-left"><g id="Group_445" data-name="Group 445"><g id="Group_443" data-name="Group 443"><path id="Path_686" data-name="Path 686" class="cls-4" d="M38.93,138.59c3-2.29,6.59-.2,8.68,3.6,2.32,4.27,1.63,11.05-1.12,12.57s-7.07-.86-9-4.55C35,145.6,36.24,140.68,38.93,138.59Z"/></g><g id="Group_444" data-name="Group 444"><circle id="Ellipse_44" data-name="Ellipse 44" class="cls-4" cx="43.91" cy="132.2" r="2.95"/></g></g><g id="Group_446" data-name="Group 446"><path id="Path_687" data-name="Path 687" class="cls-4" d="M57.16,131.2c1.29.86,1.2,3.46-.52,4.92-1.37,1.18-6.12,3.78-8.5,2.38-1.63-1,.09-4.29,2.26-6.24C52.24,130.57,55.05,129.8,57.16,131.2Z"/></g></g></g></g></svg>