<svg id="Layer_1" data-name="Layer 1" xmlns="http://www.w3.org/2000/svg" xmlns:xlink="http://www.w3.org/1999/xlink" viewBox="0 0 162.26 149.3"><defs><style>.cls-1{fill:none;}.cls-2{fill:#f27d16;}.cls-3{fill:#f2cb05;}.cls-4{fill:#9450f2;}.cls-5{fill:#96d9c6;}.cls-6{fill:#3068d9;}.cls-7{fill:#4d4d4d;}.cls-8{fill:#fff;}.cls-9{clip-path:url(#clip-path);}.cls-10{clip-path:url(#clip-path-2);}.cls-11{fill:#f2f2f2;}</style><clipPath id="clip-path"><rect class="cls-1" x="-480.12" y="-61.7" width="375" height="273.41"/></clipPath><clipPath id="clip-path-2"><path class="cls-1" d="M-531.47,142.94c36,36.79,91.52,73,150.86,68.36,114.89-9,139.57-74.05,229.3-93.52,84.35-18.28,137.05,34,202.7,47.47C160.1,187.57,194.76,111.61,304,99.74c27.62-3,52.74,2.8,75.95,9.07L380-139.9H-531.62Z"/></clipPath></defs><title>hbd</title><g id="Group_485" data-name="Group 485"><g id="Group_139" data-name="Group 139"><g id="Group_5" data-name="Group 5"><path id="Path_22" data-name="Path 22" class="cls-2" d="M10.76,12.51c0,3.33,0,3.33,3.34,3.33s3.33,0,3.33-3.18V4.85c0-2.42,0-4.85,3.64-4.85h3c3.63,0,3.63,2.43,3.63,4.85V38.32c0,2.43,0,4.89-3.63,4.89h-3c-3.64,0-3.64-2.43-3.64-4.89V29.19c0-4-.22-4.25-3.33-4.25h-.68c-1.94,0-2.69,0-2.69,3.11V38.36c0,2.42,0,4.89-3.64,4.89h-3C.42,43.25.42,40.82.42,38.36V4.89C.42,2.46.42,0,4.06,0h3c3.64,0,3.64,2.42,3.64,4.85v7.62Z"/></g><g id="Group_6" data-name="Group 6"><path id="Path_23" data-name="Path 23" class="cls-3" d="M63.6,40.22c0,2.79-1.9,3-5.34,3H55c-3.79,0-1.9-9.14-4.32-9.14H45.86c-2.42,0-1,9.14-4.7,9.14H38.32c-3.18,0-5-.23-5-3,0-3.64,1.48-6.9,6.21-35.33C40,1.86,41.2,0,43.63,0H53c2.42,0,3.64,1.82,4.24,4.85C61.36,29.87,63.6,36.54,63.6,40.22ZM45.9,24c0,1,.42,1,2.39,1s2.39,0,2.39-.91a5.51,5.51,0,0,0-.08-1c-.72-5.95-1-13.34-2.31-13.34S46.58,17.09,46,23.12a4,4,0,0,0-.08.91Z"/></g><g id="Group_7" data-name="Group 7"><path id="Path_24" data-name="Path 24" class="cls-4" d="M79.37,29.45v9c0,2.42,0,4.89-3.64,4.89h-3c-3.64,0-3.64-2.43-3.64-4.89V4.93c0-2.43,0-4.85,3.64-4.85H85.92C92.48.08,96.2,5.42,96.2,14a28.59,28.59,0,0,1-1.9,9.85c-1.94,4.14-7.74,4.74-11.15,4.74a15.14,15.14,0,0,1-2.23-.11C79.44,28.39,79.37,28.88,79.37,29.45Zm0-18.23c0,.8.08,1.82.08,3.11s-.08,2.31-.08,3c0,2,.38,2.39,2.8,2.39,3.22,0,3.33-2.69,3.33-5.42s-.6-6.1-3.33-6.1c-2.46,0-2.8.79-2.8,3Z"/></g><g id="Group_8" data-name="Group 8"><path id="Path_25" data-name="Path 25" class="cls-5" d="M111.66,29.45v9c0,2.42,0,4.89-3.64,4.89h-3c-3.64,0-3.64-2.43-3.64-4.89V4.93c0-2.43,0-4.85,3.64-4.85h13.23c6.55,0,10.27,5.34,10.27,13.87a28.36,28.36,0,0,1-1.9,9.85c-1.93,4.14-7.73,4.74-11.14,4.74a15.21,15.21,0,0,1-2.24-.11C111.7,28.39,111.66,28.88,111.66,29.45Zm-.08-18.23c0,.8.08,1.82.08,3.11s-.08,2.31-.08,3c0,2,.38,2.39,2.8,2.39,3.23,0,3.34-2.69,3.34-5.42s-.61-6.1-3.34-6.1c-2.42,0-2.79.79-2.79,3Z"/></g><path id="Path_26" data-name="Path 26" class="cls-6" d="M145.85,43.25c-3.64,0-3.64-2.43-3.64-4.89V29.19c0-3.3-3.18-10.92-4.25-13.46l-.18-.41c-1.22-2.73-4.82-12-4.82-13.69A1.52,1.52,0,0,1,134.37,0a1.51,1.51,0,0,1,.37,0h6.94c1.93,0,2.54,2.61,3,4.85.42,1.93,2.43,8.76,2.54,9.33a.78.78,0,0,0,.6.68c.3,0,.54-.19.61-.61s1.9-7.43,2.39-9.36c.53-2.24,1.29-4.85,3.49-4.85h5.42c1.81,0,2.5,0,2.5,1.59s-3.53,11-4.74,13.68c-.53,1.22-1.59,4-2.88,7.2-1.9,4.74-2.09,5.35-2.09,10.73V38.7c0,2.39,0,4.62-3.64,4.62h-3.07Z"/></g><g id="Group_10" data-name="Group 10"><path id="Path_27" data-name="Path 27" class="cls-7" d="M23.35,73.27a.31.31,0,0,0,.26.3c4.59,1.51,6.26,6.55,6.26,11a15.41,15.41,0,0,1-1.71,7c-3.11,5.72-5.8,5.87-9.93,5.87H4C.19,97.48.19,94.94.19,92.4v-35c0-2.54,0-5.08,3.83-5.08H17.7c8.23,0,11,5.45,11,11.33,0,3.75-1.52,7.5-5.05,9.36C23.39,73,23.35,73.11,23.35,73.27ZM11,65.19c0,3.19,0,4.29,3.18,4.29,2.54,0,3.19-2,3.19-4.29s-.65-4.32-3.19-4.32C11,60.83,11,62,11,65.19Zm0,17.93c0,3.83,0,5.72,3.49,5.72C17.66,88.84,18,86,18,83.12s0-5.61-3.48-5.61S11,79.29,11,83.12Z"/><path id="Path_28" data-name="Path 28" class="cls-7" d="M46.43,85.81a2.45,2.45,0,0,0,2.69,2.09c3.64,0,4.85-.12,6.18-.12,2.69,0,3.49.76,3.49,2.69V95c0,1.9-.65,2.54-2.54,2.54H39.46c-3.83,0-3.83-3.83-3.83-5.08v-35c0-2.54,0-5.08,3.83-5.08H55.87c1.59,0,3,.64,3,1.9v5.42c0,1.51-1.29,1.59-2.88,1.59-2.5,0-4.47-.12-6.06-.12-3.49,0-3.49,1.29-3.49,3.3,0,4.14,0,5.23,3.18,5.23,4,0,4.59-.11,6.07-.11,2.23,0,2.35,2.24,2.35,2.92v4c0,1.9-1.33,2.05-2.92,2.05-3.26,0-5.27-.11-6.63-.11-2,0-2,.91-2,3Z"/><path id="Path_29" data-name="Path 29" class="cls-7" d="M96.16,94.27c0,2.92-2,3.18-5.61,3.18H87.18c-4,0-2-9.55-4.51-9.55H77.59c-2.54,0-1.1,9.55-4.89,9.55h-3c-3.3,0-5.26-.26-5.26-3.18,0-3.83,1.51-7.2,6.48-36.92.49-3.18,1.78-5.08,4.32-5.08H85c2.54,0,3.82,1.9,4.47,5.08C93.81,83.46,96.16,90.44,96.16,94.27Zm-18.54-17c0,1,.46,1,2.5,1s2.5,0,2.5-.94a5.88,5.88,0,0,0-.07-1c-.76-6.25-1-13.94-2.43-13.94s-1.78,7.65-2.42,13.94A5.08,5.08,0,0,0,77.62,77.32Z"/><path id="Path_30" data-name="Path 30" class="cls-7" d="M121.55,72.62c.19,0,.3-.19.3-.64V57.35c0-2.54,0-5.08,3.83-5.08h3.19c3.82,0,3.82,2.54,3.82,5.08v35c0,2.54,0,5.08-3.82,5.08-5.73,0-6.18-1-7.05-2.92l-8.46-18.38c-.19-.38-.38-.65-.49-.65s-.26.27-.26.65l.07,16.22c0,2.54,0,5.08-3.82,5.08h-3.19c-3.83,0-3.83-2.54-3.83-5.08v-35c0-2.54,0-5.08,3.83-5.08H109c2.09,0,2.8.26,3.76,2.23L121,72C121.17,72.43,121.36,72.62,121.55,72.62Z"/><path id="Path_31" data-name="Path 31" class="cls-7" d="M152.07,51.93c5.26,0,8.83,1,8.83,2.73v4.89c0,.68-.27,1.9-2.43,1.9H158c-1,0-3.3-.69-5.16-.69-1.51,0-2.73.5-2.73,2.54s.57,3,3.07,5c7.58,6.26,9.1,10.69,9.1,15.85,0,2.91-.07,5.61-1.7,8.07A12.08,12.08,0,0,1,153.73,97a26,26,0,0,1-6.1.69c-4.7,0-9.28-.91-9.28-3.45V89.38c0-.76.64-1.52,2.35-1.52s3.07,1,6.67,1c1.78,0,4.21-1.4,4.21-3.37,0-1.48-.08-2.54-4-6.37-5.91-5.8-8.71-8.45-8.71-13.68C138.88,52.88,146.94,51.93,152.07,51.93Z"/></g><g id="Group_17" data-name="Group 17"><g id="Group_11" data-name="Group 11"><path id="Path_32" data-name="Path 32" class="cls-8" d="M12.51,107.61c12.7,0,14.44,8.07,14.44,20.46,0,11.83-1.14,20.47-14.44,20.47H3.87c-3.45,0-3.45-2.31-3.45-4.63V112.19c0-2.31,0-4.62,3.45-4.62h8.64Zm-2.35,9.58c0,6.52.07,13.61.07,20.43,0,1.52.12,2.88,1.14,2.88,4.32,0,4.62-3.44,4.62-12.7,0-8.07-.3-12.39-4.62-12.39C10.31,115.41,10.16,116,10.16,117.19Z"/><path id="Path_33" data-name="Path 33" class="cls-7" d="M12.51,149H3.87C0,149,0,146.23,0,144V112.26c0-2.23,0-5,3.87-5h8.64c13.72,0,14.82,9.48,14.82,20.89C27.33,139.94,26.27,149,12.51,149ZM3.87,108C1,108,.8,109.61.8,112.23V144c0,2.62.15,4.21,3.07,4.21h8.64c13,0,14-8.34,14-20.09,0-13.3-2.16-20.09-14-20.09H3.87Zm7.5,32.9c-1.56,0-1.56-2.12-1.56-3.3,0-3.45,0-7,0-10.42s0-6.78,0-10c0-1.1.11-2.2,1.63-2.2,4.77,0,5,4.85,5,12.81,0,9.1-.19,13.12-5,13.12Zm0-25.09c-.61,0-.8.12-.8,1.4,0,3.22,0,6.6,0,10s0,7,0,10.42c0,1.78.23,2.46.76,2.46,3.9,0,4.21-3,4.21-12.28,0-8.38-.45-12-4.24-12Z"/></g><g id="Group_12" data-name="Group 12"><path id="Path_34" data-name="Path 34" class="cls-8" d="M42.07,138a2.23,2.23,0,0,0,2.43,1.9c3.3,0,4.4-.11,5.61-.11,2.42,0,3.18.68,3.18,2.43v4.05c0,1.74-.57,2.31-2.31,2.31H35.74c-3.45,0-3.45-3.45-3.45-4.62V112.27c0-2.31,0-4.63,3.45-4.63h14.9c1.44,0,2.73.57,2.73,1.75v4.89c0,1.4-1.14,1.44-2.61,1.44-2.24,0-4.06-.12-5.5-.12-3.19,0-3.19,1.14-3.19,3,0,3.75,0,4.73,2.88,4.73,3.57,0,4.17-.11,5.5-.11,2,0,2.13,2,2.13,2.65v3.68c0,1.74-1.22,1.86-2.66,1.86-3,0-4.77-.12-6-.12-1.85,0-1.85.8-1.85,2.73Z"/><path id="Path_35" data-name="Path 35" class="cls-7" d="M50.94,149H35.7c-2.57,0-3.86-1.7-3.86-5V112.26c0-2.23,0-5,3.86-5H50.6c1.86,0,3.11.88,3.11,2.13v4.88c0,1.86-1.74,1.86-3,1.86s-2.39,0-3.37-.07c-.8,0-1.48,0-2.13,0-2.76,0-2.76.76-2.76,2.61,0,3.75,0,4.32,2.46,4.32,2.2,0,3.3,0,4.09-.07.5,0,.91,0,1.4,0C52,122.84,53,124,53,125.91v3.68c0,2.23-1.86,2.23-3.07,2.23-1.78,0-3.18,0-4.28-.07-.68,0-1.25,0-1.75,0-1.4,0-1.44.34-1.44,2.31v4a1.84,1.84,0,0,0,2,1.51c2,0,3.26,0,4.13-.07.57,0,1,0,1.48,0,2.58,0,3.57.8,3.57,2.84v4.06C53.67,148.24,52.91,149,50.94,149ZM35.7,108c-2.92,0-3.07,1.59-3.07,4.21V144c0,1.82.3,4.21,3.07,4.21H50.94c1.51,0,1.9-.38,1.9-1.9V142.2c0-1.36-.42-2-2.77-2-.45,0-.87,0-1.44,0-.87,0-2.12.08-4.17.08A2.68,2.68,0,0,1,41.62,138v-4.09c0-1.86,0-3.11,2.23-3.11.5,0,1,0,1.75,0,1.1,0,2.46.08,4.24.08s2.24-.23,2.24-1.44v-3.68c0-1-.3-2.24-1.74-2.24-.5,0-.88,0-1.37,0-.8,0-1.9.08-4.09.08-3.3,0-3.3-1.4-3.3-5.12,0-1.82,0-3.41,3.56-3.41.65,0,1.33,0,2.16,0,1,0,2.09.07,3.34.07,1.63,0,2.2-.15,2.2-1v-4.89c0-.91-1.18-1.32-2.31-1.32H35.71Z"/></g><g id="Group_13" data-name="Group 13"><path id="Path_36" data-name="Path 36" class="cls-8" d="M70.73,107.34c4.77,0,8,.87,8,2.46v4.44c0,.64-.23,1.74-2.2,1.74h-.45c-.91,0-3-.64-4.67-.64-1.4,0-2.46.45-2.46,2.31s.53,2.73,2.77,4.55c6.86,5.65,8.26,9.7,8.26,14.36,0,2.66-.08,5.08-1.55,7.32a10.89,10.89,0,0,1-6.18,4.32,23.43,23.43,0,0,1-5.54.64c-4.28,0-8.41-.8-8.41-3.1V141.3c0-.68.57-1.4,2.12-1.4s2.77.87,6.07.87c1.63,0,3.79-1.25,3.79-3.07,0-1.32-.08-2.31-3.57-5.76-5.38-5.27-7.92-7.65-7.92-12.39C58.79,108.21,66.1,107.34,70.73,107.34Z"/><path id="Path_37" data-name="Path 37" class="cls-7" d="M66.71,149.3c-2.66,0-8.83-.34-8.83-3.53v-4.43c0-.87.68-1.78,2.54-1.78a9,9,0,0,1,1.93.3,16.47,16.47,0,0,0,4.13.53c1.37,0,3.41-1.1,3.41-2.66,0-1.21,0-2.08-3.45-5.5l-.19-.18c-5.19-5.08-7.81-7.66-7.81-12.51,0-11.34,7-12.62,12.36-12.62,2.54,0,8.41.26,8.41,2.88v4.43c0,.65-.26,2.13-2.57,2.13h-.46a10.78,10.78,0,0,1-1.78-.27,15.07,15.07,0,0,0-2.92-.38c-1.47,0-2.08.57-2.08,1.9,0,1.56.38,2.39,2.61,4.25,7,5.76,8.42,9.89,8.42,14.66,0,2.39,0,5.12-1.63,7.55a11.71,11.71,0,0,1-6.41,4.51A22.62,22.62,0,0,1,66.71,149.3Zm-6.29-9c-1.1,0-1.75.38-1.75,1v4.43c0,2,4.13,2.73,8,2.73a23.58,23.58,0,0,0,5.42-.6,10.54,10.54,0,0,0,6-4.18c1.4-2.08,1.48-4.24,1.48-7.12,0-4.55-1.37-8.49-8.12-14.06-2.27-1.9-2.91-2.92-2.91-4.86,0-1.78,1-2.73,2.88-2.73a22.78,22.78,0,0,1,3.07.38,11,11,0,0,0,1.63.23h.45c1.59,0,1.78-.76,1.78-1.33V109.8c0-1-2.35-2.09-7.61-2.09-10.24,0-11.56,6.33-11.56,11.83,0,4.51,2.38,6.82,7.58,11.94l.19.19c3.52,3.45,3.71,4.55,3.71,6.06,0,2.13-2.5,3.45-4.21,3.45a15.78,15.78,0,0,1-4.32-.57,7.61,7.61,0,0,0-1.7-.26Z"/></g><g id="Group_14" data-name="Group 14"><path id="Path_38" data-name="Path 38" class="cls-8" d="M94.87,144c0,2.31,0,4.63-3.45,4.63H88.54c-3.45,0-3.45-2.32-3.45-4.63V112.27c0-2.31,0-4.63,3.45-4.63h2.88c3.45,0,3.45,2.32,3.45,4.63Z"/><path id="Path_39" data-name="Path 39" class="cls-7" d="M91.38,149H88.5c-3.86,0-3.86-2.76-3.86-5V112.26c0-2.23,0-5,3.86-5h2.88c3.87,0,3.87,2.77,3.87,5V144C95.25,146.23,95.25,149,91.38,149ZM88.5,108c-2.92,0-3.07,1.59-3.07,4.21V144c0,2.62.15,4.21,3.07,4.21h2.88c2.92,0,3.07-1.59,3.07-4.21V112.23c0-2.62-.15-4.21-3.07-4.21Z"/></g><g id="Group_15" data-name="Group 15"><path id="Path_40" data-name="Path 40" class="cls-8" d="M118.75,132.77c0-1.78-1-1.85-2.12-1.85-1.9,0-2.13-.91-2.13-2.47v-.57c0-4.66.08-5,2.77-5h8.26c2.47,0,2.47,1.21,2.47,2.31v18c0,5.65-5.61,5.65-8.87,5.65-9.17,0-19.14-4.17-19.14-21.19,0-16.56,10.61-20.36,17.7-20.36,6,0,8.41.65,8.41,2.43v4.55c0,1-.76,1.4-1.67,1.4-1.78,0-3.56-.76-6.17-.76-7.32,0-8.19,10.2-8.19,12.58,0,4.74.87,13,6.75,13,1.13,0,2-.56,2-2.61v-5.16Z"/><path id="Path_41" data-name="Path 41" class="cls-7" d="M119.09,149.3c-5.54,0-10-1.44-13.27-4.32-4.17-3.64-6.29-9.44-6.29-17.29,0-7.5,2.12-13.11,6.33-16.71a18.44,18.44,0,0,1,11.79-4.06c5.46,0,8.83.46,8.83,2.84v4.55c0,1.14-.76,1.78-2.09,1.78a11.77,11.77,0,0,1-2.57-.34,19,19,0,0,0-3.6-.41c-7.7,0-7.81,12-7.81,12.16,0,11,4,12.59,6.37,12.59.8,0,1.55-.27,1.55-2.2v-5.16c0-1.36-.6-1.44-1.74-1.44-2.35,0-2.54-1.36-2.54-2.88v-.57c0-4.55,0-5.38,3.18-5.38h8.27c2.88,0,2.88,1.63,2.88,2.73v18C128.37,149.3,122.35,149.3,119.09,149.3Zm-1.44-41.58c-4.06,0-17.32,1.44-17.32,20,0,17.17,10.2,20.77,18.76,20.77,4.28,0,8.49-.41,8.49-5.26v-18c0-1.1,0-1.9-2.09-1.9h-8.26c-2.35,0-2.35,0-2.35,4.54v.57c0,1.59.23,2.09,1.74,2.09.95,0,2.54,0,2.54,2.23v5.16c0,2-.8,3-2.35,3-2.69,0-7.16-1.74-7.16-13.38,0-4.47,1.78-13,8.6-13a21.42,21.42,0,0,1,3.75.42,16.46,16.46,0,0,0,2.43.3c1.13,0,1.29-.53,1.29-1v-4.54c0-1.37-2.39-2-8.07-2Z"/></g><g id="Group_16" data-name="Group 16"><path id="Path_42" data-name="Path 42" class="cls-8" d="M151.23,126.1c.19,0,.3-.19.3-.57V112.27c0-2.31,0-4.63,3.45-4.63h2.88c3.45,0,3.45,2.32,3.45,4.63V144c0,2.31,0,4.63-3.45,4.63-5.19,0-5.61-.91-6.41-2.66l-7.65-16.67c-.19-.35-.34-.57-.46-.57s-.22.22-.22.57l.07,14.7c0,2.31,0,4.63-3.45,4.63h-2.88c-3.45,0-3.45-2.32-3.45-4.63V112.27c0-2.31,0-4.63,3.45-4.63h3.07c1.9,0,2.54.23,3.41,2l7.43,15.88C150.89,125.91,151.08,126.1,151.23,126.1Z"/><path id="Path_43" data-name="Path 43" class="cls-7" d="M157.86,149c-5.19,0-5.87-.94-6.74-2.84l-7.62-16.52,0,14.36c0,2.24,0,5-3.87,5h-2.88c-3.87,0-3.87-2.77-3.87-5V112.26c0-2.23,0-5,3.87-5h3.07c2,0,2.84.3,3.75,2.24L151,125.38a.12.12,0,0,0,0,.08v-13.2c0-2.23,0-5,3.86-5h2.88c3.87,0,3.87,2.77,3.87,5V144C161.73,146.23,161.73,149,157.86,149Zm-14.51-20.73c.3,0,.53.23.83.8l7.69,16.68c.8,1.67,1.14,2.43,6,2.43,2.92,0,3.07-1.59,3.07-4.21V112.23c0-2.62-.15-4.21-3.07-4.21H155c-2.92,0-3.07,1.59-3.07,4.21V125.5c0,.9-.53,1-.68,1-.53,0-.8-.61-.87-.83L143,109.8c-.8-1.63-1.29-1.78-3-1.78h-3.07c-2.92,0-3.07,1.59-3.07,4.21V144c0,2.62.15,4.21,3.07,4.21h2.88c2.92,0,3.07-1.59,3.07-4.21l-.08-14.7C142.7,128.45,143,128.26,143.35,128.26Z"/></g></g></g><g class="cls-9"><g id="Group_484" data-name="Group 484"><g class="cls-10"><g id="Group_1" data-name="Group 1"><path id="Path_1" data-name="Path 1" class="cls-11" d="M-531.47,142.94c36,36.79,91.52,73,150.86,68.36,114.89-9,139.57-74.05,229.3-93.52,84.35-18.28,137.05,34,202.7,47.47C160.1,187.57,194.76,111.61,304,99.74c27.62-3,52.74,2.8,75.95,9.07L380-139.9H-531.62Z"/></g></g></g></g></svg>