<svg id="Layer_1" data-name="Layer 1" xmlns="http://www.w3.org/2000/svg" xmlns:xlink="http://www.w3.org/1999/xlink" viewBox="0 0 375 275"><defs><style>.cls-1{fill:none;}.cls-2{clip-path:url(#clip-path);}.cls-3{clip-path:url(#clip-path-2);}.cls-4{fill:#f2f2f2;}.cls-5{fill:#fff;opacity:0.99;isolation:isolate;}</style><clipPath id="clip-path"><rect class="cls-1" y="-0.28" width="375" height="273.41"/></clipPath><clipPath id="clip-path-2"><path class="cls-1" d="M-51.35,204.36c36,36.8,91.53,73,150.87,68.37,114.88-9,139.56-74.06,229.29-93.53,84.36-18.27,137.05,34,202.7,47.48C640.23,249,674.88,173,784.07,161.16c27.63-3,52.74,2.8,75.95,9.07l.05-248.71H-51.49Z"/></clipPath></defs><title>header-gray</title><g class="cls-2"><g id="Group_484" data-name="Group 484"><g class="cls-3"><g id="Group_1" data-name="Group 1"><path id="Path_1" data-name="Path 1" class="cls-4" d="M-51.35,204.36c36,36.8,91.53,73,150.87,68.37,114.88-9,139.56-74.06,229.29-93.53,84.36-18.27,137.05,34,202.7,47.48C640.23,249,674.88,173,784.07,161.16c27.63-3,52.74,2.8,75.95,9.07l.05-248.71H-51.49Z"/></g></g><g class="cls-3"><g id="hash-right_1_2" data-name="hash-right 1 2"><g id="Group_2" data-name="Group 2"><path id="Path_3" data-name="Path 3" class="cls-5" d="M99.18,359.93a1.06,1.06,0,0,1-.23-.24c-.19-.19-.34-.38-.53-.57s-.19-.23-.28-.33c-.52-.57-1-1.18-1.57-1.75l-3.27-3.7L86.84,346c-4.32-4.89-8.64-9.74-13-14.63L47.53,301.78Q20.83,271.95-5.68,242.1q-26.13-29.32-52.17-58.62c-3.7-4.18-7.46-8.36-11.16-12.54l-5.7-6.41c-1-1.09-2-2.18-2.9-3.22-.43-.48-.86-.95-1.23-1.43a11.71,11.71,0,0,1-1-1.28.84.84,0,0,1,.27-1.15l.06,0a1.1,1.1,0,0,1,.67-.09,1,1,0,0,1,.38.24h0l.57.57c.24.23.43.47.66.71.53.57,1,1.14,1.52,1.71,1.14,1.28,2.33,2.56,3.47,3.84,2.13,2.42,4.27,4.8,6.41,7.22,4.32,4.84,8.64,9.73,13,14.57q13,14.53,25.92,29,26.57,29.69,53.08,59.43T79.1,334c3.7,4.18,7.4,8.31,11.15,12.44,1.8,2,3.61,4,5.46,6.08,1,1,1.9,2.09,2.8,3.13.43.48.86,1,1.33,1.47.1.1.19.24.29.33l.33.34c.14.14.23.28.38.42a.5.5,0,0,1,.19.24,1.19,1.19,0,0,1-.19,1.38,1.16,1.16,0,0,1-.81.33.77.77,0,0,1-.85-.19Z"/><path id="Path_4" data-name="Path 4" class="cls-5" d="M123.21,331c-4.18-4.65-8.31-9.3-12.44-14s-8.36-9.4-12.58-14.1c-8.5-9.54-17-19.08-25.54-28.57q-25.5-28.56-51-57.07t-50.8-56.82c-1.47-1.66-2.94-3.32-4.46-5-.71-.81-1.42-1.62-2.14-2.47-.38-.48-.8-.9-1.18-1.38a4.77,4.77,0,0,0-.48-.52c-.18-.22-.36-.44-.52-.67a1,1,0,0,1-.09-1.28l-.86-1c-3.42-3.89-6.84-7.74-10.25-11.63a.13.13,0,0,1,0-.19.14.14,0,0,1,.17,0l11.25,12.54a1.1,1.1,0,0,1,1.19.14l.57.57c.09.1.14.19.24.29s.33.33.47.52c.48.52,1,1,1.47,1.61,1.05,1.14,2.09,2.33,3.14,3.52,2.08,2.32,4.17,4.7,6.26,7l12.68,14.25,25.3,28.43q25.41,28.56,50.89,57.16t50.7,56.92c3.08,3.41,6.12,6.88,9.21,10.3a1,1,0,0,1,0,1.34.93.93,0,0,1-.65.27.66.66,0,0,1-.57-.24Z"/><path id="Path_5" data-name="Path 5" class="cls-5" d="M143.62,354.28c-1.19-1.18-2.28-2.47-3.37-3.7l-3.56-4c-2.33-2.62-4.65-5.23-6.93-7.84-4.7-5.32-9.4-10.58-14.1-15.9q-14.18-15.94-28.34-31.95Q58.9,259,30.44,227.11,2.11,195.36-26.19,163.45c-3.7-4.13-7.36-8.26-11.06-12.39-.48-.52-1-1.09-1.43-1.61L-48,139a1,1,0,0,1,0-1.43,1,1,0,0,1,.71-.28,1,1,0,0,1,.72.28c3.18,3.56,6.36,7.17,9.58,10.73,1.43,1.62,2.9,3.23,4.32,4.84l14.25,16Q-4.22,185,10,200.9q28.41,31.75,56.78,63.61L95.1,296.22q14.25,16,28.53,31.86c3.66,4.08,7.31,8.16,11,12.3,1.76,1.94,3.51,3.94,5.27,5.89.9,1,1.8,2,2.75,3.08s1.85,2.09,2.75,3.18a1.55,1.55,0,0,0,.19.24,1.25,1.25,0,0,1,.19.62,1.27,1.27,0,0,1-.38.9,1.29,1.29,0,0,1-.85.38,1.26,1.26,0,0,1-.9-.38Z"/><path id="Path_6" data-name="Path 6" class="cls-5" d="M96.62,331.35a.87.87,0,0,1-.42-.23h0c-3.14-3.42-6.17-6.89-9.26-10.3l-9.49-10.64c-6.32-7.12-12.68-14.19-19-21.31l-38.27-43c-3.75-4.22-7.5-8.4-11.2-12.62-1.09-1.19-2.14-2.43-3.23-3.61-3.8-4.28-7.64-8.55-11.44-12.82l-5.7-6.41c-.95-1-1.85-2.09-2.8-3.13-.47-.57-1-1.09-1.47-1.66s-1-1.05-1.38-1.62c0,0-.09-.14-.14-.19a.17.17,0,0,1,0-.14c-.67-.76-1.33-1.47-2-2.23-.05-.1-.14-.14-.19-.24q-6.62-7.39-13.15-14.81a.87.87,0,0,1,0-1.23.88.88,0,0,1,1.24,0l0,0L-18.08,200c0,.05.15.09.19.14.67.76,1.38,1.52,2,2.28a.41.41,0,0,1,.24.19c.76.76,1.43,1.57,2.14,2.37l2.42,2.71,4.7,5.27c3.18,3.56,6.36,7.17,9.54,10.73,2.85,3.18,5.65,6.36,8.5,9.49l10.73,12q19.15,21.44,38.31,42.92C67,295.09,73.17,302,79.34,309l9.3,10.44c3,3.37,6,6.74,9,10.16a.94.94,0,0,1,.28.71,1,1,0,0,1-.47.85,1,1,0,0,1-.52.15.3.3,0,0,1-.34,0Z"/><path id="Path_7" data-name="Path 7" class="cls-5" d="M87.46,371.52c-3.89-4.37-7.83-8.79-11.73-13.15-.09-.1-.23-.19-.28-.29Q55.29,335.43,35.1,312.79T-5.35,267.46c-5.27-5.94-10.59-11.87-15.86-17.8L-29,240.83c-1-1.19-2.14-2.38-3.18-3.56-1.19-1.33-2.33-2.66-3.51-3.94-4.56-5.13-9.12-10.21-13.63-15.34a1.2,1.2,0,0,1-.33-.76,1,1,0,0,1,.33-.76,1.11,1.11,0,0,1,1.52,0c3.28,3.66,6.55,7.31,9.83,11l7.31,8.16c.09.1.14.19.23.28,1.67,1.86,3.33,3.75,5,5.6,3.37,3.8,6.74,7.55,10.16,11.35L5,275.57Q25.22,298.3,45.44,321q15.89,17.79,31.81,35.6a2,2,0,0,1,.24.33c2.85,3.18,5.7,6.41,8.54,9.59,1,1.14,2,2.28,3.09,3.46a1.27,1.27,0,0,1,0,1.71,1.11,1.11,0,0,1-.86.33,2,2,0,0,1-.8-.47Z"/><path id="Path_8" data-name="Path 8" class="cls-5" d="M167.4,339.28c-.47-.47-.85-.95-1.33-1.42s-1-1.14-1.52-1.71c-1-1.09-2-2.23-3-3.32l-6-6.7c-4-4.46-7.93-8.92-11.92-13.34q-11.88-13.38-23.87-26.68-10.26-11.46-20.47-23h0a3.37,3.37,0,0,1-.28-.38c-.43-.48-.85-.95-1.23-1.43-1.86-2-3.7-4.13-5.51-6.22a1.16,1.16,0,0,1,0-1.52,1.05,1.05,0,0,1,1.47,0c2,2.19,3.94,4.37,5.89,6.6.33.38.61.72,1,1.1a1.23,1.23,0,0,1,.28.23c7.93,8.83,15.81,17.71,23.69,26.54l23.78,26.73,10.26,11.53c1.7,1.9,3.41,3.85,5.12,5.75.86,1,1.76,1.94,2.61,2.94l1.29,1.42c.38.43.8.86,1.18,1.33a1.17,1.17,0,0,1,.33.76.93.93,0,0,1-.33.76,1.08,1.08,0,0,1-.76.33,1.42,1.42,0,0,1-.66-.33Z"/><path id="Path_9" data-name="Path 9" class="cls-5" d="M25,193.35c-1-1.09-2-2.18-3-3.32a.48.48,0,0,1-.23-.19c-2.71-3-5.42-6-8.07-9s-5.42-6-8.12-9.07c-.1-.14-.24-.24-.33-.38a3.12,3.12,0,0,1-.34-.47h0c0-.05,0-.15-.09-.19-1.66-1.9-3.37-3.75-5-5.65a.83.83,0,0,1,0-1.18h0a.86.86,0,0,1,1.18,0l5.13,5.7a1.12,1.12,0,0,1,.29.19,2.14,2.14,0,0,1,.52.52,4.69,4.69,0,0,0,.47.52c.34.38.72.76,1,1.19.66.76,1.37,1.52,2,2.28,1.33,1.52,2.7,3,4,4.56,2.71,3,5.37,6,8.07,9.06.19.19.38.43.57.62a1.27,1.27,0,0,1,.24.33c.95,1.09,1.95,2.19,2.9,3.28a.91.91,0,0,1,0,1.23,1,1,0,0,1-1.28,0Z"/><path id="Path_11" data-name="Path 11" class="cls-5" d="M28.07,334.25c-.33-.38-.71-.71-1-1.09-.15-.1-.34-.19-.48-.29s-.47-.52-.71-.8-.52-.57-.76-.86c-.57-.62-1.09-1.23-1.66-1.85-1.05-1.19-2.14-2.37-3.18-3.56-2.14-2.37-4.23-4.75-6.32-7.07L1.15,304.39q-12.75-14.31-25.54-28.63l-25.44-28.58c-1.38-1.51-2.71-3-4.09-4.55l-2-2.28c-.71-.81-1.42-1.57-2.14-2.42a1.61,1.61,0,0,1-.42-1,1.38,1.38,0,0,1,.42-1,1.41,1.41,0,0,1,1.95,0c.52.52,1,1.09,1.52,1.66s1.09,1.23,1.66,1.8c1.05,1.19,2.14,2.37,3.18,3.56,2.14,2.37,4.28,4.75,6.36,7.12,4.23,4.75,8.5,9.5,12.73,14.24q12.74,14.25,25.49,28.58t25.54,28.67c1.38,1.57,2.8,3.14,4.18,4.7.66.76,1.37,1.52,2,2.28l1,1.14c.33.38.66.71,1,1.14,0,.05.09.14.14.19s.05.05.05.1h0a2.52,2.52,0,0,1,.14.33c.28.33.57.71.85,1a1.55,1.55,0,0,0,.19.24,1.36,1.36,0,0,1,.19.62,1.29,1.29,0,0,1-1.28,1.28,1.85,1.85,0,0,1-.8-.38Z"/></g><g id="Group_3" data-name="Group 3"><path id="Path_12" data-name="Path 12" class="cls-5" d="M-76,304.44l.24-.24a6.31,6.31,0,0,1,.62-.52l.33-.33c.62-.57,1.23-1.09,1.85-1.66l3.89-3.47,7.69-6.83L-46,277.71q15.6-13.89,31.24-27.77,31.49-28,62.9-56,30.9-27.48,61.81-55l13.2-11.77,6.74-6c1.14-1,2.28-2,3.42-3,.48-.42,1-.9,1.47-1.33a12.66,12.66,0,0,1,1.38-1.14.94.94,0,0,1,1.28.33h0a.93.93,0,0,1,.1.71.73.73,0,0,1-.24.38h0a7.25,7.25,0,0,1-.62.62c-.23.23-.52.47-.76.71-.57.52-1.18,1-1.75,1.61L130,123.62c-2.51,2.28-5.08,4.51-7.6,6.74q-7.68,6.84-15.33,13.72Q91.8,157.75,76.54,171.42q-31.34,28-62.67,55.92L-48.7,283.22c-4.36,3.89-8.73,7.83-13.1,11.77-2.13,1.9-4.27,3.85-6.4,5.75-1.1,1-2.24,2-3.33,2.94-.52.47-1,.9-1.56,1.38a1.7,1.7,0,0,0-.38.33c-.15.09-.24.23-.38.33a4.91,4.91,0,0,1-.48.43,1.12,1.12,0,0,1-.24.19,1.43,1.43,0,0,1-.61.14,1.41,1.41,0,0,1-.86-.33,1.19,1.19,0,0,1-.33-.86,1.18,1.18,0,0,1,.33-.85Z"/><path id="Path_13" data-name="Path 13" class="cls-5" d="M-45.51,329.83c4.89-4.36,9.82-8.73,14.71-13.1s9.93-8.83,14.86-13.24Q-.83,290,14.21,276.57l60.15-53.74,59.91-53.5,5.26-4.7,2.57-2.28c.47-.42,1-.85,1.42-1.23.19-.19.38-.33.57-.52a6.77,6.77,0,0,1,.71-.52,1,1,0,0,1,1.33-.1c.34-.28.72-.62,1.05-.9l12.25-10.82c.14-.1.33.09.19.19-4.42,3.94-8.79,7.93-13.2,11.87a1,1,0,0,1-.19,1.23l-.62.62a1.09,1.09,0,0,1-.29.23c-.19.19-.38.34-.57.53l-1.66,1.51c-1.23,1.1-2.47,2.24-3.7,3.33-2.47,2.23-4.94,4.41-7.4,6.6q-7.49,6.69-15.05,13.34-15,13.31-30,26.68Q56.86,241.23,26.74,268t-60,53.46c-3.6,3.22-7.21,6.45-10.87,9.68a.93.93,0,0,1-.71.28,1,1,0,0,1-.71-.28,1,1,0,0,1-.29-.71,1,1,0,0,1,.34-.62Z"/><path id="Path_14" data-name="Path 14" class="cls-5" d="M-70.1,351.29c1.28-1.23,2.61-2.37,3.89-3.56s2.8-2.51,4.22-3.75c2.76-2.42,5.51-4.89,8.26-7.31,5.6-5,11.16-9.92,16.76-14.86L-3.31,291.9Q30.31,262,63.91,232T131,172.27c4.37-3.89,8.74-7.73,13.06-11.63.57-.52,1.13-1,1.7-1.52,3.7-3.27,7.36-6.6,11.07-9.87a1.18,1.18,0,0,1,.76-.33,1,1,0,0,1,.76.33,1.13,1.13,0,0,1,.33.76,1,1,0,0,1-.33.76c-3.8,3.37-7.55,6.74-11.35,10.11l-5.13,4.56c-5.6,5-11.2,10-16.8,15q-16.82,15-33.61,30L24.37,270.25-9,300.11q-16.82,15-33.57,30.05c-4.32,3.85-8.64,7.74-13,11.59l-6.21,5.55c-1.1.95-2.14,1.95-3.23,2.9s-2.19,1.95-3.33,2.9c-.09,0-.19.14-.28.19a1.53,1.53,0,0,1-.67.19,1.49,1.49,0,0,1-.94-.38,1.27,1.27,0,0,1-.38-.9,2.71,2.71,0,0,1,.52-.9Z"/><path id="Path_15" data-name="Path 15" class="cls-5" d="M-45.94,301.78a1,1,0,0,1,.29-.48h0c3.6-3.27,7.26-6.5,10.87-9.78s7.45-6.64,11.2-10l22.45-20q22.65-20.15,45.29-40.35c4.42-3.94,8.88-7.88,13.29-11.82,1.28-1.14,2.57-2.28,3.8-3.42,4.51-4,9-8,13.53-12,2.23-2,4.51-4,6.74-6,1.1-1,2.19-2,3.33-3,.57-.52,1.14-1,1.75-1.56s1.09-1,1.66-1.47a.92.92,0,0,0,.24-.19s.1,0,.14-.1c.76-.71,1.57-1.38,2.33-2.09.09-.05.14-.14.24-.19q7.76-7,15.61-13.86a.92.92,0,0,1,1.29,0,.91.91,0,0,1,0,1.28q-7.77,7-15.62,14a2.31,2.31,0,0,0-.14.19c-.81.71-1.62,1.42-2.42,2.18a1.12,1.12,0,0,1-.19.29c-.81.76-1.67,1.52-2.52,2.28l-2.85,2.56-5.55,5c-3.75,3.37-7.55,6.7-11.3,10.07-3.33,3-6.7,5.93-10,8.92-4.22,3.8-8.45,7.55-12.67,11.35Q22.26,243.67-.42,263.8q-11,9.82-22,19.61c-3.66,3.27-7.31,6.5-11,9.78s-7.12,6.36-10.73,9.49a1.18,1.18,0,0,1-.76.33,1,1,0,0,1-.9-.52,1.07,1.07,0,0,1-.14-.52v-.19Z"/><path id="Path_16" data-name="Path 16" class="cls-5" d="M-88.24,292.14c4.6-4.13,9.26-8.21,13.86-12.34a2.28,2.28,0,0,1,.29-.33L-26.33,237q23.92-21.3,47.8-42.63c6.26-5.56,12.53-11.16,18.75-16.71,3.08-2.75,6.22-5.51,9.3-8.26,1.23-1.14,2.51-2.23,3.75-3.32,1.38-1.24,2.8-2.47,4.18-3.71q8-7.18,16.14-14.33a1.2,1.2,0,0,1,.8-.33,1.28,1.28,0,0,1,.81.33,1.13,1.13,0,0,1,0,1.6h0c-3.84,3.47-7.74,6.93-11.58,10.4-2.85,2.57-5.75,5.13-8.59,7.69a1.09,1.09,0,0,1-.29.24c-1.94,1.76-3.94,3.51-5.89,5.27l-12,10.68L13,205.27Q-11,226.57-34.83,247.9q-18.81,16.74-37.56,33.52a1.65,1.65,0,0,1-.33.24c-3.37,3-6.74,6-10.11,9-1.23,1.09-2.42,2.18-3.65,3.22a1.18,1.18,0,0,1-.86.38,1.06,1.06,0,0,1-.85-.38,1.27,1.27,0,0,1-.38-.9.83.83,0,0,1,.33-.85Z"/><path id="Path_18" data-name="Path 18" class="cls-5" d="M99.56,226.25c1.14-1.09,2.33-2.14,3.47-3.18a.5.5,0,0,1,.19-.24c3.18-2.85,6.36-5.7,9.54-8.5s6.36-5.7,9.59-8.54c.14-.1.24-.24.38-.34a2.18,2.18,0,0,1,.52-.33h0s.14,0,.24-.09c2-1.76,4-3.56,6-5.32a.9.9,0,0,1,1.24,0,.85.85,0,0,1,0,1.2l0,0c-2,1.8-4,3.61-6,5.37a1.35,1.35,0,0,1-.19.33c-.1.1-.15.19-.24.29a1.09,1.09,0,0,1-.29.23c-.19.19-.38.33-.57.52-.42.38-.8.76-1.23,1.14L119.74,211c-1.61,1.42-3.18,2.85-4.8,4.27-3.18,2.85-6.36,5.65-9.54,8.5-.23.19-.42.38-.66.57a1.27,1.27,0,0,1-.33.24c-1.14,1-2.28,2-3.47,3a1,1,0,0,1-.66.28.93.93,0,0,1-.67-.28.86.86,0,0,1-.28-.67.73.73,0,0,1,.23-.66Z"/><path id="Path_19" data-name="Path 19" class="cls-5" d="M144.38,186.7c1.61-1.47,3.18-2.9,4.79-4.32.81-.71,1.62-1.47,2.42-2.18.38-.38.81-.71,1.19-1.09.19-.19.38-.33.57-.52l.19-.19a2.73,2.73,0,0,0,.38-.38.74.74,0,0,1,1,1c-.14.14-.33.29-.47.43a2.31,2.31,0,0,0-.19.14c-.19.14-.33.28-.52.43l-1.19,1-2.42,2.14-4.84,4.27a.6.6,0,0,1-.85,0h0a.7.7,0,0,1-.19-.43.41.41,0,0,1,.1-.38Z"/><path id="Path_20" data-name="Path 20" class="cls-5" d="M-48.93,229.52c.38-.38.76-.76,1.14-1.09a1.67,1.67,0,0,1,.33-.47,6.23,6.23,0,0,1,.86-.76c.28-.29.61-.52.9-.81.66-.57,1.32-1.19,1.94-1.75l3.75-3.33c2.52-2.23,5-4.46,7.5-6.69,5-4.51,10.07-9,15.1-13.48l30.19-26.92c10.07-8.93,20.08-17.9,30.15-26.82l4.84-4.28L50.19,141c.86-.76,1.66-1.52,2.57-2.23a1.37,1.37,0,0,1,1-.43,1.47,1.47,0,0,1,1.05.43,1.42,1.42,0,0,1,0,2v0l-1.76,1.61c-.66.57-1.28,1.14-1.94,1.76-1.24,1.14-2.52,2.23-3.75,3.37-2.52,2.23-5,4.46-7.5,6.74-5,4.46-10,9-15,13.44q-15,13.46-30.1,26.87l-30.2,26.91c-1.66,1.47-3.27,2.95-4.94,4.42l-2.42,2.13c-.38.38-.8.72-1.18,1.1s-.76.71-1.19,1c0,.05-.14.09-.19.14s-.05,0-.1,0h0c-.09.05-.23.09-.33.14-.38.33-.71.62-1.09.9-.09.05-.19.14-.28.19a1.14,1.14,0,0,1-.67.19,1.41,1.41,0,0,1-.95-.38,1.33,1.33,0,0,1-.38-.95.82.82,0,0,1,.24-.95Z"/></g></g></g></g></g></svg>