<svg id="Layer_1" data-name="Layer 1" xmlns="http://www.w3.org/2000/svg" viewBox="0 0 219.48 188.57"><defs><style>.cls-1{fill:#f9c800;}.cls-2{fill:#4d4d4d;}.cls-3{fill:#fff;}.cls-4{fill:#106ae0;}</style></defs><title>one-hundred</title><g id="Group_548" data-name="Group 548"><g id="Group_531" data-name="Group 531"><path id="Path_789" data-name="Path 789" class="cls-1" d="M172.23,186.38c-4.83-2.08-4.6-8-1.32-13,3.73-5.7,12.5-9.42,16.23-7,3.51,2.3,3.62,9.32.44,14.25C183.52,186.49,176.61,188.25,172.23,186.38Z"/><circle id="Ellipse_51" data-name="Ellipse 51" class="cls-1" cx="160.94" cy="184.41" r="4.17"/></g><path id="Path_790" data-name="Path 790" class="cls-1" d="M116.2,5.92c70.94-6.8,103.17,52.74,103.28,79.49.22,77.73-173.11,121.48-206.55,73.23C-32.24,93.52,55.58,11.73,116.2,5.92Z"/><path id="Path_791" data-name="Path 791" class="cls-2" d="M106.34,0V1.1a19.68,19.68,0,0,1,5.92,1.2,24.14,24.14,0,0,0,5.37,1.21h1.21c1.42,0,3-.22,4.38-.33a25.08,25.08,0,0,1,4.06-.33,13.67,13.67,0,0,1,2.3.22,20,20,0,0,1,5.81,2.74,26.52,26.52,0,0,0,4.93,2.63,22.88,22.88,0,0,0,5.48,1.1,21.69,21.69,0,0,1,6.25,1.54A21.41,21.41,0,0,1,157,15.24a35.19,35.19,0,0,0,4.16,3.84,27.05,27.05,0,0,0,5,2.52,21,21,0,0,1,5.59,3.07c1.53,1.31,2.52,3.29,3.62,5.26a21.49,21.49,0,0,0,3.07,4.72,26.73,26.73,0,0,0,4.16,3.72,18.22,18.22,0,0,1,4.6,4.5,20.69,20.69,0,0,1,2.19,6,33.37,33.37,0,0,0,1.66,5.37,25.25,25.25,0,0,0,3.07,4.6,17.62,17.62,0,0,1,3.29,5.59c.65,1.86.54,4.06.54,6.36a33.94,33.94,0,0,0,.22,5.7A30.67,30.67,0,0,0,200,81.89a18.75,18.75,0,0,1,1.75,6,19.17,19.17,0,0,1-1.2,6.36,23.6,23.6,0,0,0-1.21,5.37,30.75,30.75,0,0,0,.33,5.59,17.89,17.89,0,0,1,.11,6.36,19.72,19.72,0,0,1-2.74,5.81,26.6,26.6,0,0,0-2.63,4.94,22.68,22.68,0,0,0-1.1,5.48,21.77,21.77,0,0,1-1.54,6.25,21.61,21.61,0,0,1-4.16,4.93,34.45,34.45,0,0,0-3.84,4.17,27.28,27.28,0,0,0-2.52,5,21.14,21.14,0,0,1-3.07,5.59c-1.32,1.54-3.29,2.53-5.27,3.62a22.17,22.17,0,0,0-4.71,3.07,26.86,26.86,0,0,0-3.73,4.17,17.89,17.89,0,0,1-4.5,4.6,20.58,20.58,0,0,1-6,2.19,33.65,33.65,0,0,0-5.37,1.65,25.25,25.25,0,0,0-4.6,3.07,17.41,17.41,0,0,1-5.59,3.28A15.15,15.15,0,0,1,134,180h-3.83a18,18,0,0,0-3.73.33A30.67,30.67,0,0,0,121,182.1a18.75,18.75,0,0,1-6,1.75h-.44a19.69,19.69,0,0,1-5.92-1.21,23.58,23.58,0,0,0-5.37-1.2h-1.21c-1.42,0-3,.22-4.38.33a27.67,27.67,0,0,1-4.06.33,14.8,14.8,0,0,1-2.3-.22,20.1,20.1,0,0,1-5.81-2.74,26.93,26.93,0,0,0-4.94-2.64,23.68,23.68,0,0,0-5.48-1.1,21.76,21.76,0,0,1-6.25-1.53,21.87,21.87,0,0,1-4.93-4.17,34.37,34.37,0,0,0-4.17-3.83,27.32,27.32,0,0,0-5-2.53,20.74,20.74,0,0,1-5.59-3.07C47.57,159,46.59,157,45.49,155a21.55,21.55,0,0,0-3.07-4.71,25.93,25.93,0,0,0-4.17-3.73,18.22,18.22,0,0,1-4.6-4.5,21.28,21.28,0,0,1-2.19-6,34.67,34.67,0,0,0-1.64-5.37,26.33,26.33,0,0,0-3.07-4.6,17.26,17.26,0,0,1-3.29-5.59c-.66-1.87-.55-4.06-.55-6.36a32.88,32.88,0,0,0-.22-5.7,30.63,30.63,0,0,0-1.75-5.37,18.76,18.76,0,0,1-1.76-6,19.14,19.14,0,0,1,1.21-6.36,24,24,0,0,0,1.2-5.36,30.75,30.75,0,0,0-.33-5.59,17.66,17.66,0,0,1-.11-6.36,19.84,19.84,0,0,1,2.74-5.81,26.52,26.52,0,0,0,2.63-4.93,22.86,22.86,0,0,0,1.1-5.49,21.85,21.85,0,0,1,1.54-6.25,21.57,21.57,0,0,1,4.16-4.93,33.72,33.72,0,0,0,3.84-4.17,26.67,26.67,0,0,0,2.52-5,21,21,0,0,1,3.07-5.59C44.07,29.61,46,28.62,48,27.52a21.26,21.26,0,0,0,4.72-3.07,27.31,27.31,0,0,0,3.73-4.16,17.73,17.73,0,0,1,4.5-4.6,20.79,20.79,0,0,1,6-2.2,32.62,32.62,0,0,0,5.37-1.64,41.52,41.52,0,0,0,4.5-3.07,17.44,17.44,0,0,1,5.59-3.29,15.44,15.44,0,0,1,4.38-.55h3.84a17.89,17.89,0,0,0,3.72-.34,31.49,31.49,0,0,0,5.37-1.75,18.67,18.67,0,0,1,6-1.75h.44V0m.11,0h-.55c-4,.22-7.68,2.85-11.62,3.62a18.76,18.76,0,0,1-3.51.22c-1.32,0-2.63-.11-3.84-.11a15.91,15.91,0,0,0-4.71.55C78.27,5.48,75.42,9,71.8,10.74s-8.22,1.76-11.51,3.95S55,21.05,52,23.57s-7.46,3.84-10.09,6.8-3.4,7.46-5.7,10.75-6.14,5.59-8,9.1-1.43,8.11-2.74,11.84-4.5,7-5.37,10.85.76,8.11.43,12.17S18,93,18.19,97s2.86,7.68,3.62,11.62-.44,8.33.77,12.17,4.71,6.69,6.47,10.31,1.75,8.22,3.95,11.51,6.35,5.26,8.88,8.33,3.83,7.46,6.8,10.09,7.45,3.4,10.74,5.7,5.59,6.14,9.1,8,8.11,1.42,11.84,2.74,7,4.5,10.86,5.37a9.66,9.66,0,0,0,2.52.22c2.74,0,5.7-.77,8.44-.77h1.1c3.73.33,7.56,2.42,11.4,2.42h.55c3.94-.22,7.67-2.86,11.62-3.62a17.91,17.91,0,0,1,3.51-.22c1.31,0,2.63.11,3.83.11a16.35,16.35,0,0,0,4.72-.55c3.84-1.21,6.69-4.71,10.3-6.47s8.23-1.75,11.52-4,5.26-6.35,8.33-8.88,7.45-3.83,10.09-6.8,3.4-7.45,5.7-10.74,6.14-5.59,8-9.1,1.42-8.11,2.74-11.84,4.5-7,5.37-10.86-.77-8.11-.44-12.17,2.52-7.89,2.3-12S200,80,199.2,76.08s.44-8.33-.77-12.17-4.71-6.69-6.46-10.3-1.76-8.23-3.95-11.52-6.36-5.26-8.88-8.33-3.84-7.45-6.8-10.08-7.46-3.4-10.75-5.7-5.59-6.14-9.1-8-8.11-1.43-11.84-2.75-7-4.5-10.85-5.37a10.19,10.19,0,0,0-2.52-.22c-2.74,0-5.7.77-8.45.77h-1.1C114,2.08,110.17,0,106.34,0Z"/><g id="Group_533" data-name="Group 533"><path id="Path_792" data-name="Path 792" class="cls-1" d="M110.4,167.53A75.18,75.18,0,0,1,96.91,18.42a71.19,71.19,0,0,1,13.59-1.21A75.18,75.18,0,0,1,124,166.32a80.52,80.52,0,0,1-13.6,1.21Z"/><g id="Group_532" data-name="Group 532"><path id="Path_793" data-name="Path 793" class="cls-3" d="M110.61,17.77a74.62,74.62,0,0,1,13.38,148A80.25,80.25,0,0,1,110.5,167,74.62,74.62,0,0,1,97.13,19a78.1,78.1,0,0,1,13.48-1.2m0-1.1a82.84,82.84,0,0,0-13.7,1.2A75.66,75.66,0,0,0,110.39,168a83.85,83.85,0,0,0,13.7-1.21A75.66,75.66,0,0,0,110.61,16.67Z"/></g></g><g id="Group_534" data-name="Group 534"><path id="Path_794" data-name="Path 794" class="cls-4" d="M63.25,73.24l-.11-.77c-.11-.76-.33-1.53-.55-1.42-.44.11-2.74,2.74-3.29,3.4a2.52,2.52,0,0,1-1.2.88c-1.21.22-4.5-2.3-4.72-3.73s2-2.41,6-8.88l.22-.33c1.65-2.52,1.76-2.85,5.37-3.4l3.07-.44c2.85-.44,3.18,1.75,3.51,4.06l5,31.79c.22,1.65.55,3.4-2.85,3.84l-3.07.44c-3.4.55-3.61-1.1-3.83-2.85Z"/><path id="Path_795" data-name="Path 795" class="cls-4" d="M84.63,55.59c12-1.87,13.37,7,15.13,18.2s3.18,20.06-8.88,21.92-13.38-7-15.13-18.2S72.68,57.45,84.63,55.59Zm-.44,13.59,2.19,14c.44,2.63,1,5,3.29,4.71s2.3-3.29,1.65-7.35c-.22-1.64-.55-3.4-.88-5.37s-.55-3.62-.77-5c-.66-4.06-1.42-6.58-3.73-6.25s-2.19,2.52-1.75,5.26Z"/><path id="Path_796" data-name="Path 796" class="cls-4" d="M110.17,51.53c12-1.86,13.38,7,15.13,18.2s3.18,20.06-8.88,21.93-13.37-7-15.13-18.2S98.11,53.39,110.17,51.53Zm-.44,13.7,2.2,14c.44,2.63,1,5,3.29,4.72s2.3-3.29,1.64-7.35c-.22-1.64-.55-3.4-.88-5.37s-.54-3.62-.76-5c-.66-4.06-1.43-6.58-3.73-6.25s-2.19,2.52-1.76,5.26Z"/><path id="Path_797" data-name="Path 797" class="cls-4" d="M131.33,48.57a5.72,5.72,0,0,1,1.43-.11A5.24,5.24,0,0,1,138,51.53a19.27,19.27,0,0,1,1.21,4.6c1.1,7.24-2.3,9.54-3.4,10a7.43,7.43,0,0,1-2.2.65c-5.81.88-7.67-2-8.66-8.44C123.77,51.42,126.4,49.34,131.33,48.57Zm2.2,39c0-.55,1.2-6.14,2.63-11.29,2.19-7.46,5.59-21.27,7.67-28.51.44-1.42,1.32-1.64,3.29-2l1.32-.22c2.41-.44,3.18-.33,3.4.55v1c-.55,3.07-5.7,23.58-8,32.24-2,7.23-1.54,8.22-4.6,8.77l-4.39.66a1,1,0,0,1-1.2-.86v0ZM130.13,58c.32,1.86.54,3.51,2.52,3.18s1.86-2,1.53-3.84-.55-3.62-2.63-3.29-1.75,2-1.42,4Zm23.57,9.1a5.67,5.67,0,0,1,1.42-.11,5.25,5.25,0,0,1,5.27,3.07,19.25,19.25,0,0,1,1.2,4.6l.11.55c1.21,7.56-2.3,9-3.51,9.54a7.28,7.28,0,0,1-2.19.65c-5.81.88-7.67-2-8.66-8.44-1.09-7,1.43-9.09,6.36-9.86Zm-1.1,9.43c.33,1.86.55,3.51,2.52,3.18s1.86-2,1.53-3.84-.54-3.62-2.63-3.29-1.75,2-1.42,4Z"/></g><g id="Group_535" data-name="Group 535"><path id="Path_798" data-name="Path 798" class="cls-3" d="M69.28,103.28c1.75-.33,3-.11,3.07.44l.22,1.64a.68.68,0,0,1-.58.76h-.3a8.53,8.53,0,0,0-1.75,0c-.55.11-.88.33-.77,1s.33,1,1.32,1.53c2.85,1.65,3.61,3.07,3.83,4.83a5,5,0,0,1-.11,2.85,3.86,3.86,0,0,1-2.08,2,10.49,10.49,0,0,1-2,.55c-1.54.22-3.18.22-3.29-.66l-.22-1.65c0-.21.11-.54.66-.65s1.1.11,2.3,0c.54-.11,1.31-.66,1.2-1.32-.11-.44-.11-.88-1.64-2-2.3-1.65-3.4-2.41-3.62-4.17C65,104.26,67.63,103.5,69.28,103.28Z"/><path id="Path_799" data-name="Path 799" class="cls-3" d="M86.05,115.12c.11,1-.44,1.21-1.75,1.32l-1.1.22c-1.32.22-1.21-3.07-2-3l-1.76.22c-.87.11.11,3.29-1.1,3.5l-1,.11c-1.1.22-1.76.22-2-.76-.22-1.32.11-2.52.22-12.72,0-1.1.33-1.75,1.21-2l3.29-.55c.87-.11,1.42.44,1.75,1.42C84.74,111.72,85.83,113.91,86.05,115.12Zm-7.12-4.6c0,.33.22.33.87.22s.88-.11.77-.44a.38.38,0,0,0-.11-.33c-.55-2.08-1.1-4.6-1.53-4.5s-.22,2.63-.11,4.83c.11,0,.11.1.11.21Z"/><path id="Path_800" data-name="Path 800" class="cls-3" d="M90.55,113.91c.11.77.11,1.54-1,1.76l-1.1.22c-1.32.21-1.43-.66-1.54-1.54l-1.53-9.76c-.11-.55-.22-.66-.66-.55a3,3,0,0,1-.66.11c-.55.11-1,.11-1.1-.43l-.33-1.87c-.11-.44.33-.77.88-.77l5.92-.87a.91.91,0,0,1,1.1.44l.33,1.86c.11.55-.33.66-.88.77a1.15,1.15,0,0,0-.55.11c-.55.11-.55.22-.44.76Z"/><path id="Path_801" data-name="Path 801" class="cls-3" d="M96.8,112.82c.11.87.22,1.75-1,1.86l-1.1.22c-1.32.22-1.42-.66-1.53-1.54l-1.87-11.73c-.11-.87-.22-1.75,1-1.86l1.1-.22c1.31-.22,1.42.66,1.53,1.53Z"/><path id="Path_802" data-name="Path 802" class="cls-3" d="M99.87,98.45c1.75-.32,3-.11,3.07.44l.22,1.65a.68.68,0,0,1-.58.76h-.3a8.53,8.53,0,0,0-1.75,0c-.55.11-.88.32-.77,1s.33,1,1.31,1.54c2.85,1.64,3.62,3.07,3.84,4.82a5,5,0,0,1-.11,2.85,3.88,3.88,0,0,1-2.08,2,10.35,10.35,0,0,1-2,.54c-1.53.22-3.17.22-3.28-.65l-.22-1.65c0-.22.11-.55.65-.66s1.1.11,2.3,0c.55-.11,1.32-.66,1.21-1.31-.11-.44-.11-.88-1.64-2-2.3-1.64-3.4-2.41-3.62-4.16C95.48,99.44,98.22,98.78,99.87,98.45Z"/><path id="Path_803" data-name="Path 803" class="cls-3" d="M108.2,102c.11,1,.22,1.32,1.21,1.21a5.86,5.86,0,0,0,1.42-.33c1.21-.22,1.32,0,1.43,1v.22c.22,1.53.33,1.75-1.21,2-.44.11-1.21.11-1.53.22-.66.11-.66.22-.55,1.31l.55,3.29c.11.88.21,1.76-1,1.87l-1.1.22c-1.32.21-1.43-.66-1.54-1.54L104,99.66c-.11-.66-.22-1.75,1-1.86l5.26-.88a.91.91,0,0,1,1.1.44l.33,1.86c.11.44-.11.55-.88.66a15,15,0,0,1-1.64.22C108,100.32,108.09,100.65,108.2,102Z"/><path id="Path_804" data-name="Path 804" class="cls-3" d="M124.1,109.2c.11,1-.44,1.21-1.76,1.32l-1.1.22c-1.31.22-1.2-3.07-2-3l-1.75.22c-.88.11.11,3.28-1.1,3.5l-1,.11c-1.1.22-1.76.22-2-.76-.22-1.32.11-2.53.21-12.72,0-1.1.33-1.76,1.21-2l3.29-.55c.88-.11,1.42.44,1.75,1.42C122.78,105.69,124,107.88,124.1,109.2Zm-7-4.71c0,.33.22.33.88.22s.87-.11.76-.44a.38.38,0,0,0-.11-.33c-.54-2.08-1.1-4.6-1.53-4.5s-.22,2.63-.11,4.82a.39.39,0,0,1,.11.22Z"/><path id="Path_805" data-name="Path 805" class="cls-3" d="M128.59,94c.55-.11.88.11.88.54l.33,1.87c0,.22.11.55-.77.66-.44.11-.44,0-.66.11-2,.33-1.42,4-1.31,4.82s.76,4.71,2.63,4.39c.33,0,.22-.11.77-.11.76-.11.87.65,1,.87l.22,1.43c.11.55-.11.87-.66.87-3.07.44-6.8-.32-7.78-6.9C122.23,96.37,125.52,94.4,128.59,94Z"/><path id="Path_806" data-name="Path 806" class="cls-3" d="M137.81,106.57c.11.76.11,1.53-1,1.75l-1.1.22c-1.32.22-1.43-.66-1.54-1.54l-1.53-9.75c-.11-.55-.22-.66-.66-.55a4.54,4.54,0,0,1-.66.11c-.54.11-1,.11-1.1-.44l-.33-1.86c-.11-.44.33-.77.88-.77l5.92-.88a.91.91,0,0,1,1.1.44l.33,1.86c.11.55-.33.66-.88.77a1.14,1.14,0,0,0-.54.11c-.55.11-.55.22-.44.76Z"/><path id="Path_807" data-name="Path 807" class="cls-3" d="M144.16,105.36c.11.88.22,1.75-1,1.86l-1.1.22c-1.31.22-1.42-.65-1.53-1.53l-1.87-11.73c-.11-.88-.21-1.76,1-1.87l1.1-.22c1.32-.21,1.43.66,1.54,1.54Z"/><path id="Path_808" data-name="Path 808" class="cls-3" d="M143.61,97.69c-.55-3.4-.66-6,3.84-6.69,4.28-.66,4.93,1.75,5.48,5.15.22,1.32.44,2.53.66,3.62.55,3.4.33,5.92-3.73,6.58-4.5.66-5.26-1.75-5.7-5.15-.11-.55-.11-1.21-.22-1.76S143.72,98.23,143.61,97.69Zm3.4-2.41,1.1,6.68c.11.66.22,1.54,1.32,1.32s.88-1,.88-1.64L149.21,95c-.11-.55-.22-1.21-1.21-1-1.21.22-1.1.77-1,1.31Z"/><path id="Path_809" data-name="Path 809" class="cls-3" d="M160.5,96c.11,0,.11-.11.11-.22l-.77-4.93c-.11-.88-.22-1.76,1-1.87l1.1-.21c1.31-.22,1.42.65,1.53,1.53l1.87,11.73c.11.88.21,1.76-1,1.87-1.87.32-2.08,0-2.52-.66L158,97.58c-.11-.11-.11-.22-.22-.22s-.11.11,0,.22l.88,5.48c.11.88.22,1.75-1,1.86l-1.1.22c-1.32.22-1.42-.66-1.53-1.53l-1.87-11.73c-.11-.88-.22-1.76,1-1.87l1.1-.22c.66-.11,1-.11,1.42.55l3.73,5.48C160.39,95.93,160.39,96,160.5,96Z"/></g><g id="Group_536" data-name="Group 536"><path id="Path_810" data-name="Path 810" class="cls-3" d="M76.84,131.45c-.11-.76-.54-.65-1-.65-.77.11-.88-.22-1-.88v-.22c-.33-1.86-.33-2,.77-2.19L79,127c1-.11,1.1.33,1.2.77l1.21,7.34c.33,2.3-1.87,2.63-3.29,2.85-3.73.55-8.11-.44-9.1-7.34-1.1-6.69,3-9,5.92-9.43,2.41-.44,3.51-.33,3.62.44l.33,1.86a.51.51,0,0,1-.34.64.5.5,0,0,1-.21,0,21.16,21.16,0,0,0-2.52.11c-3,.44-2.63,4.71-2.53,5.59.33,2,1.21,5.26,3.62,4.82.44-.11.77-.32.66-1.2Z"/><path id="Path_811" data-name="Path 811" class="cls-3" d="M92,130.8c.44,3,.44,4.93-4.27,5.7-4.94.76-5.59-1.21-6.14-4.17-1.21-7.45-1.54-9.87-1.54-9.87-.11-1-.33-1.86,1.1-2.08l1.21-.22c1.42-.22,1.53.77,1.75,1.65l1.65,10.3c.11.66.22,1.32,1.53,1.1,1.1-.22,1-.76.88-1.42L86.5,121.48c-.11-.88-.33-1.86,1.1-2.08l1.2-.22c1.43-.22,1.54.77,1.76,1.64Z"/><path id="Path_812" data-name="Path 812" class="cls-3" d="M104.91,132.44c.22,1.1-.55,1.32-1.86,1.54l-1.21.22c-1.42.21-1.32-3.4-2.19-3.29l-1.87.33c-1,.11.11,3.61-1.2,3.83l-1.1.22c-1.21.22-2,.22-2.09-.88-.21-1.42.11-2.74.22-14,0-1.2.33-2,1.32-2.08l3.62-.55c1-.11,1.53.44,2,1.65C103.38,128.6,104.69,131,104.91,132.44Zm-7.78-5.15c.11.33.22.33,1,.22s.88-.11.88-.55a.38.38,0,0,0-.11-.33c-.66-2.3-1.21-5-1.75-5s-.22,3-.11,5.26C97,127.07,97,127.18,97.13,127.29Z"/><path id="Path_813" data-name="Path 813" class="cls-3" d="M109.08,115.89c3.51-.55,4.93,1.75,5.26,4.6.22,1.64.44,2.74-.77,4.16-.54.66-1.1.44-.87,1.32s.65,2.08,1.42,2c.44-.11.66-.22.77-.22.77-.11,1,.55,1.1,1.54.11.55.11,1.2.22,1.86.11.44,0,.88-1.32,1.1-2.19.33-3.51-1.1-4.27-2.74-.88-2.08-1.65-2.41-1.87-2.3s-.11.44-.11.55l.55,3.29c.11,1,.33,1.86-1.1,2.08l-1.65.22c-1,.11-1.1-.77-1.2-1.75l-2.08-12.94c-.11-1-.33-1.87,1.1-2.08Zm-1.32,4.5a6.52,6.52,0,0,0,.22,1.31,4.92,4.92,0,0,1,.11,1.21c.11.77.33.88,1.21.77,1.1-.22,1.1-1.21,1-2.3s-.65-2.3-1.64-2.2-1,.32-.88,1.2Z"/><path id="Path_814" data-name="Path 814" class="cls-3" d="M128.48,128.71c.22,1.1-.55,1.32-1.86,1.54l-1.21.22c-1.42.22-1.31-3.4-2.19-3.29l-1.86.33c-1,.11.11,3.62-1.21,3.84l-1.1.21c-1.21.22-2,.22-2.08-.87-.22-1.43.11-2.74.22-14,0-1.2.32-2,1.31-2.08l3.62-.55c1-.11,1.53.44,2,1.65C127.06,124.88,128.26,127.29,128.48,128.71Zm-7.78-5.15c.11.33.22.33,1,.22s.87-.11.87-.55a.38.38,0,0,0-.11-.33c-.66-2.3-1.2-5-1.75-5s-.22,3-.11,5.26A.87.87,0,0,1,120.7,123.56Z"/><path id="Path_815" data-name="Path 815" class="cls-3" d="M135.17,119.51c.11,0,.11-.11.11-.22l-.88-5.37c-.11-1-.33-1.87,1.1-2.09l1.21-.22c1.42-.21,1.53.77,1.75,1.65l2,12.83c.11,1,.33,1.86-1.1,2.08-2.09.33-2.3,0-2.74-.66l-4.17-6.25-.22-.22c-.11,0-.11.11-.11.22l1,6c.11,1,.33,1.87-1.1,2.09l-1.21.21c-1.42.22-1.53-.76-1.75-1.64L127,115c-.11-1-.33-1.87,1.1-2.09l1.2-.21c.77-.11,1.1-.11,1.54.65l4.06,6A.49.49,0,0,1,135.17,119.51Z"/><path id="Path_816" data-name="Path 816" class="cls-3" d="M147.45,125.21c.11.87.22,1.75-1.1,2l-1.21.22c-1.42.22-1.53-.77-1.75-1.65L141.75,115c-.11-.55-.22-.66-.77-.66-.11,0-.44.11-.66.11-.55.11-1.1.11-1.21-.44l-.32-2c-.11-.44.43-.77,1-.88l6.47-1a1,1,0,0,1,1.21.55l.33,2c.11.54-.33.76-1,.87a2.12,2.12,0,0,0-.66.11c-.55.11-.66.22-.55.88Z"/><path id="Path_817" data-name="Path 817" class="cls-3" d="M154,121.48c.11.55.66.66,1.1.66,1.31-.22,1.75-.33,2.3-.44,1-.11,1.31.11,1.42.76l.22,1.65c.11.66-.11,1-.76,1.1l-6.25,1c-1.43.22-1.65-1.21-1.76-1.65l-2.08-12.94c-.11-1-.33-1.86,1.1-2.08l6-1a1,1,0,0,1,1.21.55l.32,2c.11.54-.32.65-1,.76-.88.11-1.65.22-2.2.33-1.31.22-1.2.66-1.1,1.43.22,1.53.33,2,1.43,1.75,1.42-.22,1.64-.33,2.19-.44.77-.11,1,.66,1,1l.22,1.53c.11.66-.33.88-1,.88-1.2.22-2,.22-2.41.33-.77.11-.66.44-.55,1.21Z"/><path id="Path_818" data-name="Path 818" class="cls-3" d="M163.46,120.05c.11.55.66.66,1.1.66,1.31-.22,1.75-.33,2.3-.44,1-.11,1.31.11,1.42.77l.22,1.64c.11.66-.11,1-.77,1.1l-6.24,1c-1.43.22-1.65-1.2-1.76-1.64l-2.08-12.94c-.11-1-.33-1.86,1.1-2.08l6-1a1,1,0,0,1,1.2.55l.33,2c.11.55-.33.66-1,.77-.88.11-1.65.22-2.2.33-1.31.22-1.2.65-1.1,1.42.22,1.54.33,2,1.43,1.76,1.42-.22,1.64-.33,2.19-.44.77-.11,1,.65,1,1l.22,1.54c.11.66-.33.88-1,.88-1.21.21-2,.21-2.41.32-.77.11-.66.44-.55,1.21Z"/></g><g id="Group_537" data-name="Group 537"><path id="Path_819" data-name="Path 819" class="cls-3" d="M70.05,60.3c1.64,0,2,1.42,2.3,3.62L77.4,95.71a4.61,4.61,0,0,1,0,2.09A3.34,3.34,0,0,1,75,99l-3.07.44a4.07,4.07,0,0,1-1.1.11c-1.75,0-2-.88-2.19-2.41L65.11,74.66,65,73.9c-.22-1.1-.33-2-1-2h-.11c-.77.11-3.51,3.51-3.62,3.51a2.57,2.57,0,0,1-1,.66c-1,0-3.95-2.19-4.06-3.29-.11-.55.33-1,1.32-2.19a51.79,51.79,0,0,0,4.6-6.25l.11-.33v-.11c1.54-2.41,1.65-2.52,4.93-3.07l3.07-.44A2.52,2.52,0,0,1,70,60.3m0-.55a1.38,1.38,0,0,0-.66.11l-3.07.44c-3.61.55-3.72.77-5.37,3.4l-.22.33c-4,6.36-6.25,7.35-6,8.88s3.4,3.73,4.6,3.73h.11a2.12,2.12,0,0,0,1.21-.88c.55-.66,2.85-3.29,3.29-3.4h0c.22,0,.33.66.55,1.43l.11.76L68.06,97c.22,1.42.44,3,2.74,3a4.07,4.07,0,0,0,1.1-.11L75,99.44c3.4-.55,3.18-2.19,2.86-3.84l-5-31.79C72.56,61.73,72.23,59.75,70,59.75Z"/><path id="Path_820" data-name="Path 820" class="cls-3" d="M89,57.12h0c8.77,0,10,7.89,11.62,18,.88,5.59,1.65,10.53.77,14.25-1,4.06-3.84,6.25-9.1,7.13a14.65,14.65,0,0,1-3,.22c-8.77,0-10-7.9-11.62-18C76,67.43,74.65,59.2,86.05,57.34a26.61,26.61,0,0,1,3-.22m1.54,32.67h.55a2.83,2.83,0,0,0,2.41-2.74,17.87,17.87,0,0,0-.33-5.26,23.7,23.7,0,0,0-.44-2.52c-.11-.88-.33-1.87-.44-2.85s-.33-1.87-.44-2.75l-.33-2.3c-.55-3.5-1.31-6.68-3.83-6.68h-.55c-3.07.44-2.52,3.61-2.2,5.92l2.2,14c.33,2.08.87,5.15,3.4,5.15M89,56.57c-.87,0-2,.11-3.07.22-12,1.87-10.63,10.86-8.88,21.93,1.65,10.2,2.85,18.42,12.17,18.42.88,0,2-.11,3.07-.22,12-1.87,10.64-10.86,8.88-21.93C99.54,64.9,98.22,56.57,89,56.57Zm1.54,32.67c-2,0-2.52-2.3-2.85-4.71l-2.2-14c-.43-2.74-.65-4.94,1.76-5.27h.44c2.08,0,2.74,2.53,3.29,6.25.21,1.54.43,3.29.76,5s.66,3.72.88,5.37c.66,4,.77,7-1.65,7.34Z"/><path id="Path_821" data-name="Path 821" class="cls-3" d="M114.45,53.17h0c8.77,0,10,7.9,11.62,18,.88,5.59,1.65,10.53.77,14.26-1,4-3.84,6.25-9.1,7.12a14,14,0,0,1-3,.22c-8.77,0-10-7.89-11.62-18-.88-5.59-1.65-10.52-.77-14.25,1-4.06,3.84-6.25,9.1-7.13a15.47,15.47,0,0,1,3-.22m1.64,32.57h.55c3.29-.55,2.52-5,2.08-8a24.3,24.3,0,0,0-.43-2.53c-.11-.87-.33-1.86-.44-2.85s-.33-1.86-.44-2.74l-.33-2.3c-.55-3.51-1.32-6.69-3.84-6.69h-.54a2.81,2.81,0,0,0-2.41,2.2,10.83,10.83,0,0,0,.22,3.72l2.19,14c.33,2.09.88,5.16,3.4,5.16m-1.65-33.11c-.88,0-2,.11-3.07.21-11.95,1.87-10.64,10.86-8.88,21.93,1.64,10.2,2.85,18.42,12.17,18.42.88,0,2-.11,3.07-.22,12-1.86,10.63-10.85,8.88-21.93C125,60.85,123.77,52.63,114.45,52.63Zm1.64,32.56c-2,0-2.52-2.3-2.85-4.72l-2.19-14c-.44-2.74-.66-4.93,1.75-5.26h.44c2.09,0,2.74,2.52,3.29,6.25.22,1.53.44,3.29.77,5s.66,3.73.88,5.37c.65,4.06.76,7-1.65,7.35Z"/><path id="Path_822" data-name="Path 822" class="cls-3" d="M151.84,47.14h0c.65,0,.65.11.65.33v.77c-.54,3-5.59,23.35-8,32.12-.33,1.43-.65,2.53-.87,3.51-1.1,4.17-1.21,4.5-3.18,4.83l-4.39.65h-.11a.39.39,0,0,1-.44-.35v-.3a97.21,97.21,0,0,1,2.63-11.19c1.1-3.62,2.42-8.88,3.73-14s2.85-10.86,3.95-14.47c.33-1,.77-1.32,2.85-1.65l1.32-.22a9.63,9.63,0,0,0,1.86,0m-17.32,3.18h0a4.72,4.72,0,0,1,4.27,2.85,22.85,22.85,0,0,1,1.21,4.5c1.1,7.13-2.41,9.1-3.07,9.43l-.33.11a5.07,5.07,0,0,1-1.75.44,10.62,10.62,0,0,1-1.87.11c-3.62,0-5.26-2.08-6.14-8.11-.55-3.18-.22-5.37.88-6.8.88-1.21,2.52-2,5.15-2.41a1.48,1.48,0,0,0,.66-.11,2,2,0,0,0,.77-.11c-.11.11.11.11.22.11m-1,12.82h.55a2.25,2.25,0,0,0,2.08-1.75,8,8,0,0,0-.11-2.75c-.33-1.86-.55-3.72-2.74-3.72h-.66c-2.52.44-2.19,2.63-1.86,4.5s.76,3.72,2.74,3.72m23.35,5.7h0a4.74,4.74,0,0,1,4.28,2.85,22.83,22.83,0,0,1,1.2,4.5l.11.55c1.1,7-2,8.44-3.18,8.88h0l-.32.11a5.12,5.12,0,0,1-1.76.44,10.56,10.56,0,0,1-1.86.11c-3.62,0-5.27-2.08-6.14-8.11-1.1-6.69,1.42-8.44,5.92-9.21a1.38,1.38,0,0,0,.66-.11,1.78,1.78,0,0,0,.76-.11.44.44,0,0,0,.33.11M156,81.69h.55c2.63-.44,2.3-2.53,2-4.5s-.55-3.73-2.75-3.73h-.65A2.36,2.36,0,0,0,153,75.21a8.14,8.14,0,0,0,.11,2.74c.44,1.76.77,3.73,2.85,3.73M151.84,46.6a18.26,18.26,0,0,0-2.09.21l-1.31.22c-2,.33-2.85.66-3.29,2-2.09,7.23-5.48,21.05-7.68,28.5-1.42,5.16-2.74,10.75-2.63,11.3V89a1,1,0,0,0,1,.88h.22l4.38-.66c3-.44,2.52-1.42,4.6-8.77,2.3-8.66,7.46-29.16,8-32.23v-1c0-.44-.33-.66-1.2-.66Zm-17.33,3.17H134a6.1,6.1,0,0,1-1.42.11c-4.93.77-7.46,2.86-6.36,9.76.88,5.7,2.41,8.55,6.69,8.55a16.25,16.25,0,0,0,2-.21,7.6,7.6,0,0,0,2.19-.66c1.21-.55,4.6-2.85,3.4-10a25.93,25.93,0,0,0-1.2-4.6,5.31,5.31,0,0,0-4.72-3Zm-1,12.83c-1.54,0-1.87-1.53-2.09-3.29-.33-2-.55-3.62,1.43-3.83h.55c1.64,0,1.86,1.42,2.19,3.28s.55,3.51-1.54,3.84Zm23.35,5.7h-.55a6.19,6.19,0,0,1-1.42.11c-4.94.77-7.46,2.85-6.36,9.76.87,5.7,2.41,8.55,6.68,8.55a14.45,14.45,0,0,0,2-.22,7,7,0,0,0,2.19-.66c1.21-.54,4.71-2,3.51-9.53l-.11-.55a26,26,0,0,0-1.21-4.6,5.38,5.38,0,0,0-4.71-2.85ZM156,81.13c-1.53,0-1.86-1.54-2.08-3.29-.33-2-.55-3.62,1.42-3.84h.55c1.65,0,1.87,1.43,2.19,3.29s.55,3.51-1.53,3.84Z"/></g></g></svg>