<svg id="Layer_1" data-name="Layer 1" xmlns="http://www.w3.org/2000/svg" xmlns:xlink="http://www.w3.org/1999/xlink" viewBox="0 0 348.22 65.45"><defs><style>.cls-1{fill:none;}.cls-2{clip-path:url(#clip-path);}.cls-3{fill:#f2f2f2;}.cls-4{fill:#fff;opacity:0.99;}</style><clipPath id="clip-path"><path class="cls-1" d="M319.14,65.45h-290C13,65.45,0,54.31,0,40.64V20.19C13.75,8.25,59.4-2.28,82,.43,132.76,6.59,128.42,27,154.54,32.57c32,6.84,52.38-17.49,77.63-21,35.53-4.92,45.37,18.85,87,22.73,10.56,1,20.19-.93,29-3v9.3C348.29,54.31,335.27,65.45,319.14,65.45Z"/></clipPath></defs><title>plan-footer</title><g class="cls-2"><path class="cls-3" d="M319.14,65.45h-290C13,65.45,0,54.31,0,40.64V20.19C13.75,8.25,59.4-2.28,82,.43,132.76,6.59,128.42,27,154.54,32.57c32,6.84,52.38-17.49,77.63-21,35.53-4.92,45.37,18.85,87,22.73,10.56,1,20.19-.93,29-3v9.3C348.29,54.31,335.27,65.45,319.14,65.45Z"/><path class="cls-4" d="M234.7.86l-.07.06C234.63.86,234.7.86,234.7.86ZM237,10.59c-.07,0-.07-.06-.14-.06S236.89,10.59,237,10.59Zm.22.06Zm.07.19a.07.07,0,0,0-.07-.07Zm.08,0c0-.07-.08-.07-.08-.13A.2.2,0,0,1,237.33,10.84Zm11.95-5c.22.55.3,1.11.51,1.66a6.73,6.73,0,0,0,.37.8c-1.68.25-3.36.62-5,.92-1,.19-2,.44-3.06.62-1.39.31-2.7.62-4.08.8-.22,0-.51.06-.73.06a23,23,0,0,0-.66-3.81c-.22-.81-.44-1.61-.66-2.34s-.51-1.67-.65-2.53a3.29,3.29,0,0,1,0-1.17,3.69,3.69,0,0,1,.8-.12c.44-.06,1-.19,1.39-.25,1-.18,2-.37,3-.49l3-.56c.81-.12,1.53-.3,2.34-.37H246c.08.13.08.25.15.37A10,10,0,0,0,247,.92c.44.68.88,1.42,1.24,2.1S248.92,4.8,249.28,5.85ZM251,8.13h0Zm2.33-.19c-.07-.31-.14-.68-.21-1a17.5,17.5,0,0,1-.15-2,10.91,10.91,0,0,0-.37-2.64c-.21-1.36-.65-2.65-.94-4,0-.24-.08-.55-.08-.8a2.1,2.1,0,0,0-.87-1.72,2.66,2.66,0,0,0-.95-.55,3.16,3.16,0,0,0-2.62-1.3h-.81a15,15,0,0,0-1.82.13c-.51.06-1,.18-1.53.24-.87.13-1.75.31-2.62.49-1.75.31-3.5.68-5.18,1-.44.12-.88.19-1.24.31s-.87.25-1.39.43A4.21,4.21,0,0,0,230.62-2,4,4,0,0,0,230,0a9.48,9.48,0,0,0,0,1.41,16.26,16.26,0,0,0,.37,1.79,4.74,4.74,0,0,0,.36.92c.59,1.48,1.1,3,1.68,4.5.22.68.51,1.29.8,2a4.31,4.31,0,0,0,.66,1.23,3.3,3.3,0,0,0,1.31,1,5,5,0,0,0,2.11.37,9.59,9.59,0,0,0,1.83-.25,11.84,11.84,0,0,0,1.38-.31c.51-.12,1.1-.24,1.61-.37.87-.18,1.75-.37,2.69-.55l4.82-.93,1.24-.18a9.21,9.21,0,0,0,1.74-.43,1.8,1.8,0,0,0,.88-1,.91.91,0,0,0,.07-.43C253.44,8.56,253.37,8.25,253.29,7.94Z"/><path class="cls-4" d="M185.12,13.54Zm8.46-1.16-1.24.18c-.65.06-1.31.18-2,.25-1.31.18-2.62.43-4,.61a11.88,11.88,0,0,1-1.46.06h-.07l-.07-.06c0-.06-.07-.06-.07-.12-.22-.56-.37-1.11-.59-1.66s-.43-1.36-.65-2-.51-1.47-.73-2.27-.59-1.67-.8-2.53V4.62l1-.19c.73-.12,1.38-.24,2.11-.31,1.39-.18,2.7-.43,4.08-.61.37.49.81,1,1.17,1.54.51.74.95,1.54,1.39,2.28.14.3.29.61.43.86.22.49.51,1,.73,1.54a10.8,10.8,0,0,1,.59,1.6,2.69,2.69,0,0,1,.14.74Zm.73-.19-.07.06Zm3.35-.49A11.18,11.18,0,0,0,197.08,9c-.22-.74-.44-1.42-.66-2.16s-.36-1.35-.58-2-.44-1.29-.66-2a6.35,6.35,0,0,0-1.82-3,3.11,3.11,0,0,0-1.31-.61,2.73,2.73,0,0,0-.73-.06.07.07,0,0,1-.07-.07c-.22-.06-.44-.18-.66-.24a3,3,0,0,0-1.46,0c-1.89.24-3.79.55-5.68.86-.88.12-1.83.31-2.7.43-.44.06-.8.19-1.24.25a5.45,5.45,0,0,0-1.39.55c-.21.13-.36.25-.58.37a2.35,2.35,0,0,0-.51.62,2.22,2.22,0,0,0-.44,1.17,8.16,8.16,0,0,0-.14,1.84,8.46,8.46,0,0,0,.36,1.91,11,11,0,0,1,.37,1.42c.22.68.36,1.29.58,2a42.78,42.78,0,0,0,1.38,4.19c.15.31.37.67.52,1a4.63,4.63,0,0,0,.94,1.11l.44.37a2.66,2.66,0,0,0,1,.55,7.09,7.09,0,0,0,2.62.62,13,13,0,0,0,2.19-.12l1.09-.19c.51-.12,1-.18,1.53-.31l2.63-.55c.73-.18,1.53-.37,2.19-.55a15.71,15.71,0,0,0,1.53-.56,4.58,4.58,0,0,0,1.46-1,3.1,3.1,0,0,0,.65-1.79v-.19A3,3,0,0,1,197.66,11.7Z"/><path class="cls-4" d="M215.53,29.49c1.67.31,3.35.56,4.95.87h.22l-1.09.92c-.51.43-1.09.86-1.6,1.29s-1.1.86-1.61,1.29A12.57,12.57,0,0,1,214.72,35l-.87.56c-.29.18-.58.37-.8.49A.06.06,0,0,0,213,36a12.73,12.73,0,0,1-.44-1.66,10.5,10.5,0,0,0-.29-1.3c-.15-.49-.22-.92-.37-1.41-.22-.8-.44-1.54-.58-2.34v-.37c.29,0,.58.06.87.06C213.27,29.19,214.43,29.31,215.53,29.49Zm8.38.19a2.26,2.26,0,0,0-1.68-.13,1.16,1.16,0,0,0-1-1.47c-2.77-.5-5.54-1-8.31-1.42a19.49,19.49,0,0,0-2.62-.31,3.31,3.31,0,0,0-1.1.19c-.14.12-.36.18-.51.31a1.17,1.17,0,0,0-.43.61,4.4,4.4,0,0,0-.22,1,3.74,3.74,0,0,0,.07,1.29c.15.92.36,1.91.58,2.83l.22,1.29c.08.37.08.74.15,1a6,6,0,0,0,.44,2,3.61,3.61,0,0,0,3.2,2.16,4.07,4.07,0,0,0,1.75-.43c.29-.19.59-.31.88-.49.87-.5,1.68-1,2.55-1.48.51-.31,1-.68,1.6-1.05.3-.18.66-.43.95-.62.59-.36,1.17-.73,1.82-1.1.37-.19.73-.43,1.1-.62a2.92,2.92,0,0,0,.73-.49c.07-.06.07-.13.14-.19a2.16,2.16,0,0,0,.59-.8,2.29,2.29,0,0,0,.14-.67v-.07A1.76,1.76,0,0,0,223.91,29.68Z"/><path class="cls-4" d="M254.31,40.27Zm.08.06c-.08,0-.08-.06-.15-.06S254.31,40.33,254.39,40.33Zm.29.06h0Zm6.12-.55h-.14C260.73,39.9,260.73,39.9,260.8,39.84Zm2.05-4.44a4.86,4.86,0,0,0,.58,1.05c.29.43.65.86.95,1.36s.58.92.87,1.41c-.44.06-.87.13-1.38.25-.95.12-1.9.31-2.85.37s-1.82.18-2.77.31a12,12,0,0,1-1.46.12,15.12,15.12,0,0,1-2.33.06c-.07-.06-.22-.12-.29-.18-.15-.87-.37-1.73-.58-2.59a7.53,7.53,0,0,0-.37-1.17c.15,0,.29-.06.51-.06l1.46-.19c.8-.12,1.68-.24,2.48-.3l5.1-.56C262.85,35.34,262.85,35.34,262.85,35.4ZM269,39.16V39A.08.08,0,0,0,269,39.16Zm0,.19v-.07a3.13,3.13,0,0,0-.07-.8,9.64,9.64,0,0,0-.15-1.41c-.14-.74-.36-1.42-.51-2.16,0-.18-.07-.37-.07-.61a1.36,1.36,0,0,0-.08-.56,2.18,2.18,0,0,0-1.23-1.35h-.08a3,3,0,0,0-.73-.25,2.69,2.69,0,0,0-.43-.49,2.5,2.5,0,0,0-1.75-.62c-2.92.31-5.91.56-8.83.93-1.24.12-2.4.3-3.64.43a9.71,9.71,0,0,0-2,.55,2.65,2.65,0,0,0-1.68,2.28,4.67,4.67,0,0,0,.88,2.15c.22.5.51,1.05.73,1.54.36.8.73,1.6,1.09,2.34a3.9,3.9,0,0,0,2.55,1.6,7,7,0,0,0,2.77.07l3.21-.37c1.61-.19,3.28-.43,4.89-.68l2.48-.37c.36-.06.72-.06,1.09-.12a2.71,2.71,0,0,0,1.17-.5,1.43,1.43,0,0,0,.43-.67.64.64,0,0,0,.08-.37C269.26,39.84,269.12,39.59,269,39.35Z"/><path class="cls-4" d="M291.64,3.32c.66.19,1.39.43,2.05.68-.08.06-.15.06-.22.12-1,.44-1.9.8-2.85,1.17l-1.09.37v-.3a11.76,11.76,0,0,1,0-2.22c0-.12.07-.25.07-.37C290.26,3,290.92,3.14,291.64,3.32Zm8.46,1a3,3,0,0,0-2.84-1.85,33.82,33.82,0,0,0-3.79-1.41C292.3.61,291.21.24,290-.19A7.37,7.37,0,0,0,289-.49a2.86,2.86,0,0,0-2,.37,3.09,3.09,0,0,0-.88.73,1.62,1.62,0,0,0-.29.5,5.39,5.39,0,0,0-.51,1,5.7,5.7,0,0,0-.51,2.47,17.24,17.24,0,0,0,.07,1.9,8.45,8.45,0,0,0,.15,1.42A2.8,2.8,0,0,0,288,10c.73-.06,1.38-.18,2.11-.3.37-.07.81-.19,1.17-.25.8-.25,1.6-.49,2.41-.68a47.63,47.63,0,0,0,5.17-1.6A2.38,2.38,0,0,0,300.32,5,3,3,0,0,1,300.1,4.31Z"/><path class="cls-4" d="M183.15,49.69l.37.31c-.07.06-.07.12-.15.12a.26.26,0,0,0-.14.06c-.15.06-.29.06-.44.13h-.51a2.86,2.86,0,0,1-.36-.07.27.27,0,0,1-.15-.06,2.48,2.48,0,0,1-.51-.43,8.57,8.57,0,0,1-.58-.86.31.31,0,0,1-.08-.25,4.15,4.15,0,0,0,.88.25l.8.18c.07.07.22.07.29.13A3.21,3.21,0,0,1,183.15,49.69Zm6-1.42a3.89,3.89,0,0,0-.43-.92c-.08-.06-.08-.12-.15-.25a5.63,5.63,0,0,0-.87-.92,7.57,7.57,0,0,0-3.29-1.6c-.65-.12-1.38-.19-2-.25h-.65a5,5,0,0,0-.95.13l-.66.18a1.73,1.73,0,0,0-.51.06,3.44,3.44,0,0,0-1.6.74,3.78,3.78,0,0,0-.73.8,3.46,3.46,0,0,0-.58,1.66,3.66,3.66,0,0,0,.14,1.54,12.88,12.88,0,0,0,.66,1.48,4.13,4.13,0,0,0,1.24,1.42,8.72,8.72,0,0,0,1.31.86,6.93,6.93,0,0,0,1.24.43,7.5,7.5,0,0,0,2,.25,9.44,9.44,0,0,0,1.46-.13l.8-.18a6.91,6.91,0,0,0,1-.43,9.33,9.33,0,0,0,.95-.68,11.69,11.69,0,0,0,.87-.86c.15-.19.22-.37.37-.56a3.6,3.6,0,0,0,.36-.92,4.24,4.24,0,0,0,.15-1v-.07A6.13,6.13,0,0,1,189.13,48.27Z"/><path class="cls-4" d="M289.17,39.35h0c-.15,0-.22-.07-.37-.07s-.36-.18-.51-.24l-.22-.19c-.14-.18-.29-.43-.44-.61a7.48,7.48,0,0,1-.36-1.17h.15a7.5,7.5,0,0,1,1.24.3.44.44,0,0,1-.08.31,1.67,1.67,0,0,0,.29,1c.08.18.15.43.22.61Zm.58-.19Zm4.15-2.71c-.14-.18-.29-.31-.43-.49a2.93,2.93,0,0,0-.08-.8,1.88,1.88,0,0,0-.29-.56,2.24,2.24,0,0,0-1-.8,10.19,10.19,0,0,0-2.47-1,9.65,9.65,0,0,0-1.9-.31,5.49,5.49,0,0,0-5.25,2.34,3.83,3.83,0,0,0-.58,2.34,10.2,10.2,0,0,0,.36,1.54,10.62,10.62,0,0,0,1.1,2,6.88,6.88,0,0,0,2.91,2.16,8.28,8.28,0,0,0,2.7.55,7,7,0,0,0,1.68-.19,4.46,4.46,0,0,0,2.18-.92,3.83,3.83,0,0,0,1.39-2.09,8.4,8.4,0,0,0,.29-1.3v-.37A3.39,3.39,0,0,0,293.9,36.45Z"/><path class="cls-4" d="M251.4,61.57h0Zm3.94,2.59c.21.18.43.31.65.49-.07,0-.14.06-.22.06-.58.13-1.24.19-1.82.31s-.95.06-1.46.13-.73.06-1.16.06v-.06a4.47,4.47,0,0,0,.43-1.24c.15-.43.22-.92.37-1.35a1.21,1.21,0,0,0,.07-.49c.07.06.22.12.29.18A22.12,22.12,0,0,1,255.34,64.16Zm6.19.49-5-3.69c-.44-.31-.87-.68-1.38-1a9.92,9.92,0,0,0-3.14-1.6,4.25,4.25,0,0,0-.87-.06,3,3,0,0,0-1.1.25,2.2,2.2,0,0,0-1.16,1,6.16,6.16,0,0,0-.59,1.6c-.22.68-.36,1.42-.58,2.1s-.51,1.23-.73,1.91a3.75,3.75,0,0,0-.22.86,2.49,2.49,0,0,0,.29,1.05,2.38,2.38,0,0,0,.59.55,3.36,3.36,0,0,0,.8.49,3.57,3.57,0,0,0,1.38.49,9.44,9.44,0,0,0,1.46.13c.95.06,1.9.06,2.85.06a29.13,29.13,0,0,0,4.66-.25c.15,0,.37-.06.51-.06s.44-.06.66-.12a2.28,2.28,0,0,0,1.89-2.09,1.06,1.06,0,0,0,.15-.68A1,1,0,0,0,261.53,64.65Z"/><path class="cls-4" d="M286,69.89v-1c0-.25.07-.49.07-.74a7.38,7.38,0,0,1,.29-1.23c.15-.49.3-1,.44-1.42l.44-1.41c.07-.19.15-.37.22-.56a10.54,10.54,0,0,1,1.38.06c.51,0,1,.07,1.54.07s1.09.06,1.67.06a8.14,8.14,0,0,0-.14,1.23v.31c.07.43.07.8.14,1.23.07.8.22,1.6.22,2.4m3.79-.37c.15-.62.37-1.17.51-1.79a5.73,5.73,0,0,1,.29-.92.32.32,0,0,1,.08-.25c.07-.24.07-.49.14-.73v-.62a2.19,2.19,0,0,0-1.24-1.85c0-.12.08-.24.08-.37a2,2,0,0,0-2.05-1.72c-2-.06-4.08-.19-6.12-.12a8.07,8.07,0,0,0-1.68.18,5,5,0,0,0-.87.31,3.32,3.32,0,0,0-.88.8,2,2,0,0,0-.36.92c-.07.19-.07.31-.15.5-.22.67-.43,1.41-.58,2.09a13.07,13.07,0,0,0-.51,2.34,10.32,10.32,0,0,0-.07,2.15"/><path class="cls-4" d="M94.13.86l-.08.06C94.05.86,94.13.86,94.13.86Zm2.26,9.73c-.08,0-.08-.06-.15-.06S96.31,10.59,96.39,10.59Zm.22.06Zm.07.19a.07.07,0,0,0-.07-.07Zm.07,0c0-.07-.07-.07-.07-.13A.2.2,0,0,0,96.75,10.84Zm11.89-5c.21.55.29,1.11.51,1.66a5.29,5.29,0,0,0,.36.8c-1.68.25-3.35.62-5,.92-1,.19-2,.44-3.06.62-1.39.31-2.7.62-4.08.8-.22,0-.51.06-.73.06A22,22,0,0,0,96,6.9c-.22-.81-.44-1.61-.65-2.34S94.86,2.89,94.71,2a3.29,3.29,0,0,1,0-1.17,3.69,3.69,0,0,1,.8-.12C96,.68,96.46.55,96.9.49c1-.18,2-.37,3-.49l3-.56c.8-.12,1.53-.3,2.33-.37h.14c.08.13.08.25.15.37a10,10,0,0,0,.8,1.48c.44.68.88,1.42,1.24,2.1A13.91,13.91,0,0,1,108.64,5.85Zm1.75,2.28h0Zm2.33-.19c-.07-.31-.15-.68-.22-1a20,20,0,0,1-.15-2A10.9,10.9,0,0,0,112,2.28c-.22-1.36-.66-2.65-.95-4,0-.24-.07-.55-.07-.8a2.08,2.08,0,0,0-.88-1.72,2.71,2.71,0,0,0-.94-.55,3.17,3.17,0,0,0-2.63-1.3h-.8A14.69,14.69,0,0,0,103.9-6c-.51.06-1,.18-1.53.24-.88.13-1.75.31-2.63.49-1.75.31-3.5.68-5.18,1-.43.12-.87.19-1.24.31s-.87.25-1.38.43A4.23,4.23,0,0,0,90-2a4,4,0,0,0-.65,2,8.3,8.3,0,0,0,0,1.41,16.2,16.2,0,0,0,.36,1.79,4.22,4.22,0,0,0,.37.92c.58,1.48,1.09,3,1.67,4.5a20.45,20.45,0,0,0,.81,2,4,4,0,0,0,.65,1.23,3.3,3.3,0,0,0,1.31,1,5.08,5.08,0,0,0,2.12.37,9.48,9.48,0,0,0,1.82-.25,11.56,11.56,0,0,0,1.39-.31c.51-.12,1.09-.24,1.6-.37.88-.18,1.75-.37,2.7-.55l4.81-.93,1.24-.18a9.31,9.31,0,0,0,1.75-.43,1.74,1.74,0,0,0,.87-1,.81.81,0,0,0,.08-.43A5.15,5.15,0,0,1,112.72,7.94Z"/><path class="cls-4" d="M44.55,13.54ZM53,12.38l-1.24.18c-.66.06-1.32.18-2,.25-1.32.18-2.63.43-4,.61a11.88,11.88,0,0,1-1.46.06h-.07l-.08-.06c0-.06-.07-.06-.07-.12-.22-.56-.36-1.11-.58-1.66l-.66-2c-.22-.73-.51-1.47-.73-2.27s-.58-1.67-.8-2.53V4.62l1-.19c.73-.12,1.39-.24,2.11-.31,1.39-.18,2.7-.43,4.09-.61.36.49.8,1,1.16,1.54.51.74,1,1.54,1.39,2.28.15.3.29.61.44.86.22.49.51,1,.73,1.54a12,12,0,0,1,.58,1.6,2.71,2.71,0,0,1,.15.74C52.93,12.25,53,12.31,53,12.38Zm.72-.19-.07.06Zm3.36-.49A10.74,10.74,0,0,0,56.5,9c-.21-.74-.43-1.42-.65-2.16s-.37-1.35-.58-2-.44-1.29-.66-2a6.43,6.43,0,0,0-1.82-3A3.21,3.21,0,0,0,51.47-.8a2.62,2.62,0,0,0-.72-.06s-.08,0-.08-.07c-.22-.06-.44-.18-.65-.24a3,3,0,0,0-1.46,0c-1.9.24-3.79.55-5.69.86-.87.12-1.82.31-2.7.43-.43.06-.8.19-1.24.25a5.38,5.38,0,0,0-1.38.55c-.22.13-.37.25-.58.37a2.38,2.38,0,0,0-.52.62A2.13,2.13,0,0,0,36,3.08a7.63,7.63,0,0,0-.15,1.84,8.49,8.49,0,0,0,.37,1.91,11,11,0,0,1,.36,1.42c.22.68.37,1.29.58,2a42.83,42.83,0,0,0,1.39,4.19c.14.31.36.67.51,1a4.68,4.68,0,0,0,1,1.11l.43.37a2.84,2.84,0,0,0,.95.55A7.1,7.1,0,0,0,44,18a12.81,12.81,0,0,0,2.18-.12l1.1-.19c.51-.12,1-.18,1.53-.31l2.62-.55c.73-.18,1.54-.37,2.19-.55a15.71,15.71,0,0,0,1.53-.56,4.48,4.48,0,0,0,1.46-1,3.11,3.11,0,0,0,.66-1.79v-.19A2.78,2.78,0,0,1,57.09,11.7Z"/><path class="cls-4" d="M75,29.49c1.68.31,3.35.56,5,.87h.22l-1.1.92c-.51.43-1.09.86-1.6,1.29s-1.09.86-1.6,1.29A13.24,13.24,0,0,1,74.15,35l-.88.56c-.29.18-.58.37-.8.49A.06.06,0,0,0,72.4,36,14.54,14.54,0,0,1,72,34.36a7.8,7.8,0,0,0-.29-1.3c-.15-.49-.22-.92-.36-1.41-.22-.8-.44-1.54-.59-2.34v-.37c.29,0,.59.06.88.06C72.69,29.19,73.78,29.31,75,29.49Zm8.39.19a2.26,2.26,0,0,0-1.68-.13,1.16,1.16,0,0,0-1-1.47c-2.77-.5-5.54-1-8.31-1.42a19.64,19.64,0,0,0-2.63-.31,3.21,3.21,0,0,0-1.09.19c-.15.12-.37.18-.51.31a1.19,1.19,0,0,0-.44.61,4.4,4.4,0,0,0-.22,1,4,4,0,0,0,.07,1.29c.15.92.37,1.91.59,2.83.07.43.14.86.22,1.29s.07.74.14,1a6.58,6.58,0,0,0,.44,2,3.62,3.62,0,0,0,3.21,2.16,4.11,4.11,0,0,0,1.75-.43c.29-.19.58-.31.87-.49.88-.5,1.68-1,2.55-1.48.51-.31,1-.68,1.61-1.05l1-.62c.58-.36,1.16-.73,1.82-1.1.36-.19.73-.43,1.09-.62a2.92,2.92,0,0,0,.73-.49c.07-.06.07-.13.15-.19a2.14,2.14,0,0,0,.58-.8,2.31,2.31,0,0,0,.15-.67v-.07A1.76,1.76,0,0,0,83.34,29.68Z"/><path class="cls-4" d="M113.74,40.27Zm.07.06c-.07,0-.07-.06-.14-.06A.26.26,0,0,0,113.81,40.33Zm.29.06h0Zm6.13-.55h-.15C120.16,39.9,120.16,39.9,120.23,39.84Zm2-4.44a5.33,5.33,0,0,0,.58,1.05c.29.43.66.86,1,1.36s.58.92.88,1.41c-.44.06-.88.13-1.39.25-1,.12-1.9.31-2.84.37s-1.83.18-2.77.31a12,12,0,0,1-1.46.12,15.22,15.22,0,0,1-2.34.06c-.07-.06-.21-.12-.29-.18-.14-.87-.36-1.73-.58-2.59a7.48,7.48,0,0,0-.36-1.17c.14,0,.29-.06.51-.06l1.45-.19c.81-.12,1.68-.24,2.48-.3l5.11-.56C122.27,35.34,122.27,35.34,122.27,35.4Zm6.12,3.76V39C128.32,39.1,128.32,39.16,128.39,39.16Zm0,.19v-.07a3.13,3.13,0,0,0-.07-.8,9.62,9.62,0,0,0-.14-1.41c-.15-.74-.37-1.42-.52-2.16,0-.18-.07-.37-.07-.61a1.54,1.54,0,0,0-.07-.56,2.23,2.23,0,0,0-1.24-1.35h-.07a3,3,0,0,0-.73-.25,2.78,2.78,0,0,0-.44-.49,2.49,2.49,0,0,0-1.75-.62c-2.92.31-5.91.56-8.82.93-1.24.12-2.41.3-3.65.43a9.71,9.71,0,0,0-2,.55,2.66,2.66,0,0,0-1.67,2.28,4.76,4.76,0,0,0,.87,2.15c.22.5.51,1.05.73,1.54.37.8.73,1.6,1.09,2.34a4,4,0,0,0,2.56,1.6,7,7,0,0,0,2.77.07l3.21-.37c1.6-.19,3.28-.43,4.88-.68l2.48-.37c.36-.06.73-.06,1.09-.12a2.71,2.71,0,0,0,1.17-.5,1.46,1.46,0,0,0,.44-.67.72.72,0,0,0,.07-.37C128.61,39.84,128.54,39.59,128.39,39.35Z"/><path class="cls-4" d="M151.07,3.32c.66.19,1.38.43,2,.68-.07.06-.15.06-.22.12-.95.44-1.89.8-2.84,1.17l-1.1.37v-.3a11.76,11.76,0,0,1,0-2.22c0-.12.08-.25.08-.37C149.68,3,150.34,3.14,151.07,3.32Zm8.46,1a3,3,0,0,0-2.85-1.85,33.1,33.1,0,0,0-3.79-1.41c-1.16-.44-2.26-.81-3.43-1.24a7.05,7.05,0,0,0-1.09-.3,2.86,2.86,0,0,0-2,.37,3.23,3.23,0,0,0-.88.73,2.15,2.15,0,0,0-.29.5,6.11,6.11,0,0,0-.51,1,5.85,5.85,0,0,0-.51,2.47,15.1,15.1,0,0,0,.08,1.9,9.62,9.62,0,0,0,.14,1.42A2.8,2.8,0,0,0,147.42,10c.73-.06,1.39-.18,2.12-.3.36-.07.8-.19,1.16-.25.81-.25,1.61-.49,2.41-.68a48.49,48.49,0,0,0,5.18-1.6A2.4,2.4,0,0,0,159.75,5,2.25,2.25,0,0,1,159.53,4.31Z"/><path class="cls-4" d="M42.58,49.69l.36.31c-.07.06-.07.12-.14.12a.31.31,0,0,0-.15.06c-.14.06-.29.06-.44.13H41.7a3.29,3.29,0,0,1-.36-.07.31.31,0,0,1-.15-.06,3.15,3.15,0,0,1-.51-.43c-.22-.25-.36-.55-.58-.86a.35.35,0,0,1-.07-.25,4.07,4.07,0,0,0,.87.25l.8.18c.08.07.22.07.3.13A4.08,4.08,0,0,1,42.58,49.69Zm5.9-1.42a3.89,3.89,0,0,0-.43-.92c-.08-.06-.08-.12-.15-.25a5.63,5.63,0,0,0-.87-.92,7.53,7.53,0,0,0-3.28-1.6c-.66-.12-1.39-.19-2-.25h-.65a5.11,5.11,0,0,0-.95.13l-.66.18a1.73,1.73,0,0,0-.51.06,3.44,3.44,0,0,0-1.6.74,3.78,3.78,0,0,0-.73.8A3.57,3.57,0,0,0,36,47.9a3.66,3.66,0,0,0,.14,1.54,12.88,12.88,0,0,0,.66,1.48,4.13,4.13,0,0,0,1.24,1.42,8.72,8.72,0,0,0,1.31.86,7.22,7.22,0,0,0,1.24.43,7.55,7.55,0,0,0,2,.25,9.44,9.44,0,0,0,1.46-.13l.8-.18a6.91,6.91,0,0,0,1-.43,9.33,9.33,0,0,0,1-.68c.29-.25.58-.55.88-.86.14-.19.21-.37.36-.56a3.27,3.27,0,0,0,.36-.92,4.24,4.24,0,0,0,.15-1v-.07A4.9,4.9,0,0,0,48.48,48.27Z"/><path class="cls-4" d="M148.52,39.35c-.15,0-.22-.07-.37-.07s-.36-.18-.51-.24l-.22-.19c-.14-.18-.29-.43-.43-.61a6.59,6.59,0,0,1-.37-1.17h.15a7.5,7.5,0,0,1,1.24.3.44.44,0,0,1-.08.31,1.61,1.61,0,0,0,.3,1c.07.18.14.43.21.61Zm.65-.19c0,.06-.07.06,0,0S149.17,39.22,149.17,39.16Zm4.16-2.71c-.15-.18-.29-.31-.44-.49a3.33,3.33,0,0,0-.07-.8,2.14,2.14,0,0,0-.29-.56,2.3,2.3,0,0,0-.95-.8,10.26,10.26,0,0,0-2.48-1,9.65,9.65,0,0,0-1.9-.31A5.47,5.47,0,0,0,142,34.85a3.91,3.91,0,0,0-.59,2.34,9.12,9.12,0,0,0,.37,1.54,10.57,10.57,0,0,0,1.09,2,6.91,6.91,0,0,0,2.92,2.16,8.22,8.22,0,0,0,2.69.55,6.92,6.92,0,0,0,1.68-.19,4.53,4.53,0,0,0,2.19-.92,3.82,3.82,0,0,0,1.38-2.09,8.43,8.43,0,0,0,.3-1.3v-.37A3.39,3.39,0,0,0,153.33,36.45Z"/><path class="cls-4" d="M110.82,61.57h0Zm.29,0Zm3.65,2.59c.22.18.44.31.66.49-.08,0-.15.06-.22.06-.59.13-1.24.19-1.83.31s-.94.06-1.45.13-.73.06-1.17.06v-.06a4.51,4.51,0,0,0,.44-1.24c.14-.43.22-.92.36-1.35a1.21,1.21,0,0,0,.07-.49c.08.06.22.12.3.18A22,22,0,0,1,114.76,64.16Zm6.2.49-5-3.69c-.44-.31-.88-.68-1.39-1a10,10,0,0,0-3.13-1.6,4.39,4.39,0,0,0-.88-.06,2.91,2.91,0,0,0-1.09.25,2.22,2.22,0,0,0-1.17,1,6.14,6.14,0,0,0-.58,1.6c-.22.68-.37,1.42-.59,2.1s-.51,1.23-.72,1.91a3.3,3.3,0,0,0-.22.86,2.49,2.49,0,0,0,.29,1.05,2.18,2.18,0,0,0,.58.55,3.36,3.36,0,0,0,.8.49,3.61,3.61,0,0,0,1.39.49,9.44,9.44,0,0,0,1.46.13c.94.06,1.89.06,2.84.06a29.25,29.25,0,0,0,4.67-.25c.14,0,.36-.06.51-.06s.43-.06.65-.12a2.28,2.28,0,0,0,1.9-2.09,1.12,1.12,0,0,0,.14-.68A.94.94,0,0,0,121,64.65Z"/><path class="cls-4" d="M145.45,69.89v-1c0-.25.08-.49.08-.74a5.82,5.82,0,0,1,.29-1.23c.15-.49.29-1,.44-1.42s.29-.92.43-1.41c.08-.19.15-.37.22-.56a10.78,10.78,0,0,1,1.39.06c.51,0,1,.07,1.53.07s1.09.06,1.68.06a7.09,7.09,0,0,0-.15,1.23v.31c.07.43.07.8.15,1.23.07.8.21,1.6.21,2.4m3.8-.37c.14-.62.36-1.17.51-1.79a4.24,4.24,0,0,1,.29-.92.36.36,0,0,1,.07-.25c.07-.24.07-.49.15-.73v-.62a2.19,2.19,0,0,0-1.24-1.85c0-.12.07-.24.07-.37a2,2,0,0,0-2-1.72c-2-.06-4.08-.19-6.13-.12a7.9,7.9,0,0,0-1.67.18,5.14,5.14,0,0,0-.88.31,3.28,3.28,0,0,0-.87.8,2.18,2.18,0,0,0-.37.92c-.07.19-.07.31-.14.5-.22.67-.44,1.41-.59,2.09a15.07,15.07,0,0,0-.51,2.34,11,11,0,0,0-.07,2.15"/></g></svg>