<svg id="Layer_1" data-name="Layer 1" xmlns="http://www.w3.org/2000/svg" xmlns:xlink="http://www.w3.org/1999/xlink" viewBox="0 0 374.89 240.52"><defs><style>.cls-1{fill:none;}.cls-2{clip-path:url(#clip-path);}.cls-3{fill:#f2f2f2;}.cls-4{fill:#fff;opacity:0.99;}</style><clipPath id="clip-path"><rect class="cls-1" width="374.89" height="240.79"/></clipPath></defs><title>process-bg</title><g class="cls-2"><path class="cls-3" d="M406.35,67.24c0-26.28-16.5-66.19-50.87-66.19C310.23,1.05,292.1,42.37,247.83,39c-63-4.77-74.37-32.32-143.06-32.32-78.41,0-81.64,61.92-143.48,61.92-65,0-62.25-72.88-94.57-64.17V226.74c42.16,0,70.06-50.25,129-50.25,51.71,0,100.39,64.3,200.73,64.3,84.23,0,131.2-44.71,210-43.7Z"/><path class="cls-4" d="M302.74,73.54a1.15,1.15,0,0,1,.17-.14c.14-.12.25-.23.39-.34s.14-.14.23-.2c.39-.36.78-.7,1.2-1.07.85-.73,1.66-1.49,2.51-2.22,1.65-1.46,3.28-2.92,4.94-4.38q4.94-4.38,9.9-8.77,10-8.94,20.06-17.85,20.21-18,40.39-36l39.69-35.33,8.48-7.56c1.44-1.29,2.9-2.59,4.33-3.85.73-.65,1.46-1.29,2.19-2l1-.84a8.62,8.62,0,0,1,.87-.73.59.59,0,0,1,.82.22.52.52,0,0,1,.05.45.38.38,0,0,1-.17.25,4.84,4.84,0,0,1-.39.4c-.17.14-.34.31-.51.45-.39.33-.75.67-1.15,1-.87.78-1.74,1.54-2.61,2.33-1.63,1.46-3.26,2.89-4.89,4.36-3.29,2.92-6.58,5.87-9.87,8.79L400.69-11.85,360.47,24.07Q340.36,42,320.3,59.93q-4.21,3.76-8.43,7.56l-4.1,3.69c-.7.64-1.43,1.26-2.14,1.91-.33.31-.67.59-1,.9-.08.05-.14.14-.22.19s-.17.14-.26.23l-.28.25a.36.36,0,0,1-.17.11.6.6,0,0,1-.39.12.89.89,0,0,1-.56-.23.79.79,0,0,1-.23-.56A.83.83,0,0,1,302.74,73.54Z"/><path class="cls-4" d="M322.33,89.84q4.73-4.22,9.44-8.41l9.53-8.51,19.36-17.29,38.62-34.48Q418.51,4,437.76-13.23c1.12-1,2.25-2,3.37-3,.56-.48,1.1-1,1.66-1.46.31-.29.62-.54.93-.82.11-.11.25-.22.36-.31s.31-.22.45-.34a.68.68,0,0,1,.87-.05l.68-.59c2.61-2.31,5.25-4.61,7.87-6.94.08-.09.19,0,.11.11-2.84,2.53-5.65,5.09-8.46,7.61a.65.65,0,0,1-.11.79c-.14.14-.26.28-.4.4l-.16.16-.37.34c-.37.34-.73.65-1.07,1-.78.71-1.57,1.44-2.36,2.14-1.6,1.43-3.17,2.84-4.78,4.24-3.2,2.87-6.43,5.74-9.64,8.58L407.46,15.72Q388.11,33,368.79,50.15L330.25,84.47c-2.33,2.08-4.63,4.16-7,6.24a.67.67,0,0,1-.45.2.59.59,0,0,1-.45-.2.66.66,0,0,1-.19-.45A.35.35,0,0,1,322.33,89.84Z"/><path class="cls-4" d="M306.53,103.61c.82-.79,1.66-1.55,2.5-2.28l2.7-2.41c1.77-1.58,3.54-3.12,5.29-4.7,3.59-3.17,7.16-6.38,10.76-9.55q10.8-9.61,21.61-19.2Q371,46.24,392.56,27t43.09-38.33l8.4-7.48c.37-.34.74-.65,1.1-1l7.08-6.33a.68.68,0,0,1,.51-.19.84.84,0,0,1,.51.19.68.68,0,0,1,.19.51.69.69,0,0,1-.19.51c-2.42,2.16-4.87,4.32-7.28,6.49-1.1,1-2.2,1.94-3.29,2.92-3.6,3.2-7.2,6.44-10.8,9.64Q421.1,3.6,410.3,13.22q-21.49,19.23-43.06,38.42-10.75,9.57-21.44,19.17L324.24,90.12c-2.78,2.47-5.54,4.95-8.32,7.45l-4,3.57L309.85,103c-.7.62-1.41,1.27-2.14,1.86,0,.05-.11.08-.17.14a.83.83,0,0,1-.42.11.76.76,0,0,1-.59-.25.81.81,0,0,1-.25-.59A1,1,0,0,1,306.53,103.61Z"/><path class="cls-4" d="M322.08,71.82a.66.66,0,0,1,.16-.31q3.47-3.15,7-6.26c2.39-2.14,4.81-4.28,7.2-6.41L350.83,46l29.09-25.89c2.84-2.53,5.67-5.06,8.54-7.59l2.45-2.19,8.68-7.76c1.43-1.29,2.9-2.58,4.33-3.85.7-.62,1.4-1.26,2.11-1.88.36-.34.73-.68,1.12-1s.7-.64,1.07-.92c.06,0,.08-.09.14-.12l.11,0L410-6.62a.41.41,0,0,1,.17-.11c3.34-3,6.69-5.93,10-8.91a.57.57,0,0,1,.82,0,.58.58,0,0,1,0,.81q-5,4.51-10,9a.31.31,0,0,1-.08.11l-1.55,1.38a.66.66,0,0,1-.14.17c-.5.5-1.06,1-1.6,1.46s-1.24,1.09-1.83,1.63C404.59,0,403.39,1,402.2,2.06c-2.41,2.17-4.83,4.3-7.25,6.47-2.13,1.91-4.3,3.82-6.43,5.73-2.73,2.42-5.43,4.86-8.15,7.28q-14.5,13-29,25.91c-4.72,4.22-9.41,8.41-14.13,12.6l-7.06,6.29c-2.28,2-4.58,4.11-6.88,6.1a.77.77,0,0,1-.48.2.67.67,0,0,1-.59-.34.69.69,0,0,1-.09-.34C322.05,71.93,322.05,71.88,322.08,71.82Z"/><path class="cls-4" d="M294.87,65.64c3-2.64,5.93-5.28,8.91-7.93a.52.52,0,0,1,.2-.19q15.34-13.67,30.66-27.29T365.33,2.85c4-3.57,8-7.17,12.06-10.74l6-5.31c.82-.7,1.61-1.43,2.42-2.13s1.8-1.61,2.67-2.39l10.37-9.22a.71.71,0,0,1,.51-.23.69.69,0,0,1,.5.23.71.71,0,0,1,0,1c-2.47,2.22-4.94,4.44-7.44,6.66l-5.54,4.95a1.93,1.93,0,0,1-.2.17c-1.26,1.12-2.53,2.24-3.79,3.4-2.56,2.27-5.12,4.58-7.67,6.85Q367.52,3,359.82,9.85q-15.35,13.7-30.72,27.37Q317,48,305,58.75a.49.49,0,0,1-.23.14c-2.16,1.94-4.33,3.85-6.49,5.79l-2.33,2.08a.81.81,0,0,1-1.13,0,.84.84,0,0,1-.22-.59A1.18,1.18,0,0,1,294.87,65.64Z"/><path class="cls-4" d="M316.74,119.71c.3-.3.64-.59,1-.89s.76-.68,1.15-1l2.25-2c1.52-1.35,3-2.7,4.52-4,3-2.69,6.05-5.36,9.05-8.06q9-8.06,18.08-16.16c5.17-4.61,10.34-9.25,15.54-13.86a.74.74,0,0,1,.25-.17l1-.84c1.4-1.24,2.78-2.5,4.19-3.74a.66.66,0,0,1,.5-.2.83.83,0,0,1,.51.2.74.74,0,0,1,0,1c-1.46,1.35-3,2.67-4.44,4l-.73.65a.6.6,0,0,1-.14.2c-6,5.37-12,10.71-18,16s-12.06,10.73-18.1,16.1c-2.62,2.31-5.2,4.64-7.79,6.94-1.29,1.15-2.59,2.31-3.91,3.46-.64.59-1.32,1.18-2,1.77-.34.28-.65.59-1,.87s-.59.54-.9.79a.72.72,0,0,1-.53.22.75.75,0,0,1-.53-.22.74.74,0,0,1-.23-.54A.65.65,0,0,1,316.74,119.71Z"/><path class="cls-4" d="M320.14,25.45a9.84,9.84,0,0,1,.76-.7,1,1,0,0,1,.19-.31c.17-.17.37-.34.54-.48s.39-.34.59-.54c.42-.36.84-.75,1.26-1.12.82-.7,1.6-1.43,2.42-2.14l4.8-4.3,9.7-8.65,19.39-17.29q9.7-8.6,19.34-17.23c1-.92,2.08-1.82,3.09-2.75l1.55-1.35c.53-.48,1.07-1,1.63-1.43a1,1,0,0,1,.67-.28,1,1,0,0,1,.68.28.94.94,0,0,1,0,1.32c-.37.36-.76.7-1.13,1s-.81.73-1.23,1.12c-.79.73-1.61,1.44-2.42,2.17l-4.84,4.3c-3.2,2.86-6.43,5.76-9.64,8.62C361.06-8.5,354.59-2.74,348.16,3l-19.4,17.29-3.17,2.84c-.51.44-1,.92-1.55,1.37l-.78.7-.76.68s-.09.06-.14.11l-.06.06a.53.53,0,0,1-.22.08l-.71.59a1.15,1.15,0,0,1-.17.14.75.75,0,0,1-.42.12.89.89,0,0,1-.62-.26.9.9,0,0,1-.25-.62A.73.73,0,0,1,320.14,25.45Z"/><path class="cls-4" d="M340.29-45a.9.9,0,0,0,.17.17c.11.14.25.28.36.42s.14.17.23.22c.36.43.76.85,1.12,1.27.79.87,1.57,1.77,2.36,2.64l4.61,5.2c3.06,3.49,6.16,6.94,9.25,10.43l18.8,21.13Q396.12,17.74,415.11,39q18.63,20.92,37.24,41.83c2.64,3,5.31,6,7.95,8.93,1.35,1.52,2.73,3,4.07,4.56l2.06,2.3c.31.34.59.68.9,1a11.29,11.29,0,0,1,.75.93.6.6,0,0,1-.22.84.54.54,0,0,1-.48.06.59.59,0,0,1-.28-.17l-.42-.42c-.17-.17-.31-.34-.48-.53l-1.07-1.21c-.81-.93-1.63-1.83-2.47-2.76l-4.58-5.14c-3.09-3.46-6.18-6.91-9.28-10.4q-9.23-10.36-18.49-20.71L392.45,15.7q-18.88-21.16-37.8-42.33l-7.95-8.88c-1.3-1.44-2.59-2.9-3.88-4.33-.68-.76-1.35-1.49-2-2.25-.31-.37-.62-.7-.93-1.07-.08-.08-.14-.17-.22-.25s-.17-.17-.23-.25a4.12,4.12,0,0,0-.28-.31,1.77,1.77,0,0,1-.14-.17.76.76,0,0,1-.11-.42.78.78,0,0,1,.25-.59.87.87,0,0,1,.59-.23A5.35,5.35,0,0,1,340.29-45Z"/><path class="cls-4" d="M323.12-24.38l8.88,10,9,10.07,18.21,20.4q18.18,20.37,36.37,40.7t36.23,40.53c1.07,1.18,2.11,2.36,3.18,3.57.5.59,1,1.15,1.54,1.74.28.34.57.64.85,1l.33.4a2.84,2.84,0,0,1,.37.47.73.73,0,0,1,.08.9c.2.23.43.48.62.71,2.45,2.75,4.86,5.53,7.34,8.29.08.08-.06.22-.14.14-2.67-3-5.37-6-8-8.94a.72.72,0,0,1-.84-.11l-.43-.42a1.75,1.75,0,0,1-.16-.2,3.28,3.28,0,0,1-.34-.39c-.34-.37-.7-.76-1-1.16-.76-.81-1.49-1.66-2.25-2.5-1.49-1.68-3-3.34-4.47-5-3-3.4-6-6.77-9.05-10.17-6-6.78-12-13.52-18-20.3Q383.1,44.92,365,24.49T328.79-16.12c-2.19-2.45-4.38-4.89-6.57-7.36A.72.72,0,0,1,322-24a.76.76,0,0,1,.2-.48.72.72,0,0,1,.47-.2A1.08,1.08,0,0,1,323.12-24.38Z"/><path class="cls-4" d="M308.58-41c.85.84,1.63,1.74,2.42,2.64s1.69,1.91,2.53,2.84c1.66,1.85,3.29,3.71,5,5.56l10.06,11.33Q338.65-7.26,348.78,4.14,369,26.91,389.33,49.65t40.42,45.42c2.61,3,5.25,5.9,7.87,8.85.34.39.67.76,1,1.15l6.66,7.48a.72.72,0,0,1,.22.53.76.76,0,0,1-1.29.54l-6.83-7.68c-1-1.15-2.05-2.3-3.09-3.45L424.16,91.1,403.84,68.37Q383.56,45.68,363.33,23,353.22,11.68,343.13.35T322.78-22.39q-3.93-4.38-7.84-8.77c-1.27-1.4-2.51-2.81-3.77-4.21l-1.94-2.2c-.67-.75-1.32-1.48-2-2.27a2.09,2.09,0,0,0-.14-.17.86.86,0,0,1-.11-.45.88.88,0,0,1,.25-.62.88.88,0,0,1,.62-.25A1.2,1.2,0,0,1,308.58-41Z"/><path class="cls-4" d="M342.09-24.66a.73.73,0,0,1,.31.19c2.22,2.42,4.41,4.89,6.6,7.37s4.53,5.05,6.77,7.58C360.3-4.46,364.82.63,369.32,5.69Q383,21,396.61,36.32c2.67,3,5.34,6,8,9,.76.87,1.55,1.71,2.31,2.58,2.72,3,5.45,6.1,8.18,9.14,1.34,1.52,2.69,3,4.07,4.55.68.73,1.32,1.49,2,2.25.33.39.7.79,1,1.18s.67.76,1,1.13c0,0,.08.08.11.14s0,0,.06.11c.48.53.93,1.07,1.4,1.6a.59.59,0,0,1,.12.17c3.12,3.51,6.26,7,9.38,10.57a.61.61,0,0,1,0,.87.62.62,0,0,1-.87,0c-3.17-3.52-6.32-7-9.47-10.57a.63.63,0,0,1-.11-.08l-1.46-1.63a.41.41,0,0,1-.17-.15c-.54-.53-1-1.12-1.55-1.68s-1.15-1.29-1.71-1.94c-1.13-1.27-2.25-2.5-3.35-3.77l-6.8-7.64c-2-2.25-4-4.53-6-6.78l-7.67-8.57L367.75,6.2,354.45-8.7c-2.22-2.47-4.41-5-6.63-7.45s-4.3-4.8-6.44-7.25a.68.68,0,0,1-.19-.51.73.73,0,0,1,.36-.61.75.75,0,0,1,.37-.09C342-24.69,342-24.66,342.09-24.66Z"/><path class="cls-4" d="M348.64-53.3,357-43.92a2.05,2.05,0,0,1,.23.2Q371.58-27.58,386-11.4L414.82,21q5.65,6.36,11.33,12.7c1.86,2.11,3.74,4.22,5.59,6.3.76.84,1.52,1.69,2.28,2.56s1.69,1.88,2.5,2.81c3.23,3.65,6.49,7.28,9.73,10.93a.83.83,0,0,1,.22.54.77.77,0,0,1-.22.53.76.76,0,0,1-1.07,0q-3.54-3.91-7-7.84c-1.74-1.94-3.48-3.88-5.2-5.82-.05-.06-.11-.14-.17-.2l-3.57-4c-2.41-2.7-4.83-5.39-7.22-8.09q-7.25-8.1-14.45-16.19Q393.13-1,378.68-17.19,367.34-29.88,356-42.6l-.17-.22c-2-2.28-4.07-4.55-6.1-6.83-.73-.82-1.46-1.63-2.19-2.47a1,1,0,0,1-.25-.59.75.75,0,0,1,.25-.59.87.87,0,0,1,.62-.26A.8.8,0,0,1,348.64-53.3Z"/><path class="cls-4" d="M291.61-30.29c.31.34.62.68.93,1L293.63-28l2.11,2.36L300-20.9l8.52,9.53,17,19c4.86,5.46,9.75,10.91,14.59,16.39a.92.92,0,0,1,.19.28c.31.34.59.68.9,1,1.32,1.47,2.65,2.95,3.94,4.42a.72.72,0,0,1,.22.53.76.76,0,0,1-1.29.53c-1.41-1.54-2.81-3.12-4.19-4.69l-.67-.76a.57.57,0,0,1-.23-.17c-5.67-6.29-11.27-12.62-16.92-18.94s-11.32-12.7-17-19.08c-2.45-2.76-4.89-5.48-7.34-8.21-1.21-1.38-2.44-2.73-3.65-4.1-.62-.71-1.24-1.41-1.86-2.08-.31-.34-.62-.68-.92-1s-.57-.62-.85-1a.84.84,0,0,1-.22-.56.86.86,0,0,1,.22-.56.85.85,0,0,1,.56-.23A1.07,1.07,0,0,1,291.61-30.29Z"/></g></svg>