<svg id="Layer_1" data-name="Layer 1" xmlns="http://www.w3.org/2000/svg" viewBox="0 0 110.91 136.54"><defs><style>.cls-1{fill:#96d9c6;}.cls-2{isolation:isolate;}</style></defs><title>revisions</title><g id="Group_263" data-name="Group 263"><g id="Group_260" data-name="Group 260"><path id="Path_574" data-name="Path 574" class="cls-1" d="M56.2,0A46.79,46.79,0,1,0,103,46.78,46.79,46.79,0,0,0,56.2,0Zm0,85.06A38.28,38.28,0,1,1,94.47,46.78h0a38.25,38.25,0,0,1-38.2,38.28Z"/></g><g id="Group_262" data-name="Group 262"><g id="Group_261" data-name="Group 261"><path id="Path_575" data-name="Path 575" class="cls-1" d="M64.23,57.84c3,0,3,2.71,3,3.74v1.75c0,1.75,0,3.19-3.34,3.19h-19c-3.18,0-3.18-1.75-3.18-3.58V59.36c0-1.75,2.46-3.42,6.2-7.16a42.31,42.31,0,0,0,5.73-6.93C55.48,42.33,56,40.42,56,36c0-2.46-1.19-4.05-2.63-4.05-2,0-2.7,2.86-2.7,4.61,0,.32.16,2.31.16,2.71,0,.71-.08,1.83-1.75,1.83H43.79C42,41.06,42,39.7,42,38.43V36.2c0-2.23.31-6.12,2-8.51,2.63-3.66,6.77-3.82,10.19-3.82,2.7,0,6,.16,8.43,2,3,2.23,4.38,6.92,4.38,10.66s-.24,8.2-3.5,12.09c-4.38,5.26-9.15,8.84-9.15,9.23,0,.16.08.16.16.16.95,0,3.82-.08,4.85-.08C59.7,57.92,63.2,57.84,64.23,57.84Z"/></g></g></g><g id="Revisions" class="cls-2"><g class="cls-2"><path class="cls-1" d="M7.91,114.53c4.62,0,5.92,3.31,5.92,7,0,2.23,0,3.66-1.8,5.15-.87.75-1.43.31-1.43,1.49S11,131,12,131a4.19,4.19,0,0,0,1-.15c1,0,1.15.83,1.15,2.26,0,.68,0,1.52,0,2.45,0,.62-.25,1.18-1.86,1.18-2.85,0-4.31-2.11-4.9-4.41-.75-2.88-1.67-3.38-1.86-3.38s-.25.5-.25.75v4.4c0,1.24,0,2.48-1.86,2.48H1.24C0,136.54,0,135.3,0,134.06V117c0-1.24,0-2.48,1.86-2.48Zm-2.67,5.52c0,.4,0,1.11,0,1.76s0,1.18,0,1.55c0,1,.19,1.21,1.43,1.21,1.39,0,1.7-1.36,1.7-2.76s-.31-3.1-1.7-3.1C5.43,118.71,5.24,118.93,5.24,120.05Z"/><path class="cls-1" d="M20.31,130.87a1.2,1.2,0,0,0,1.3,1c1.77,0,2.35-.06,3-.06,1.3,0,1.7.37,1.7,1.3v2.17c0,.93-.31,1.24-1.24,1.24H16.89c-1.86,0-1.86-1.86-1.86-2.48V117c0-1.24,0-2.48,1.86-2.48h8c.78,0,1.46.31,1.46.93v2.63c0,.75-.62.78-1.39.78-1.21,0-2.17-.06-2.95-.06-1.7,0-1.7.62-1.7,1.61,0,2,0,2.54,1.55,2.54,1.92,0,2.23-.06,2.94-.06,1.09,0,1.15,1.08,1.15,1.42v2c0,.93-.65,1-1.43,1-1.58,0-2.57-.06-3.22-.06-1,0-1,.43-1,1.46Z"/><path class="cls-1" d="M38.66,114.5h1.21c1.33,0,2.11.15,2.11,1.39,0,1-.84,4.65-3.41,18.17-.32,1.55-.94,2.48-2.18,2.48H32.52c-1.24,0-1.86-.93-2.14-2.48-2.36-13.52-3.22-17.21-3.22-18.17,0-1.3.77-1.42,2.26-1.42h1.33c1.64,0,2,.52,2.51,5.45.9,8.16,1,11.2,1.49,11.2.37,0,.56-3,1-6.48C37,115.21,36.64,114.5,38.66,114.5Z"/><path class="cls-1" d="M48.11,134.06c0,1.24,0,2.48-1.86,2.48H44.7c-1.86,0-1.86-1.24-1.86-2.48V117c0-1.24,0-2.48,1.86-2.48h1.55c1.86,0,1.86,1.24,1.86,2.48Z"/><path class="cls-1" d="M55.68,114.37c2.57,0,4.31.47,4.31,1.34v2.38c0,.34-.13.93-1.18.93h-.25c-.5,0-1.61-.34-2.51-.34-.75,0-1.34.25-1.34,1.24s.28,1.46,1.49,2.45c3.69,3,4.44,5.21,4.44,7.72A6.61,6.61,0,0,1,59.8,134a5.93,5.93,0,0,1-3.32,2.33,13.46,13.46,0,0,1-3,.34c-2.29,0-4.52-.44-4.52-1.68v-2.38c0-.38.31-.75,1.14-.75a25.19,25.19,0,0,0,3.26.47c.87,0,2-.69,2-1.65,0-.71,0-1.24-1.93-3.1-2.88-2.82-4.24-4.12-4.24-6.66C49.26,114.84,53.2,114.37,55.68,114.37Z"/><path class="cls-1" d="M66.77,134.06c0,1.24,0,2.48-1.86,2.48H63.36c-1.86,0-1.86-1.24-1.86-2.48V117c0-1.24,0-2.48,1.86-2.48h1.55c1.86,0,1.86,1.24,1.86,2.48Z"/><path class="cls-1" d="M67.76,123c0-5,.47-8.65,7-8.65,6.23,0,6.67,3.6,6.67,8.53,0,1.86.09,3.69.09,5.33,0,4.9-.78,8.47-6.76,8.47-6.54,0-7-3.66-7-8.62,0-.84,0-1.68,0-2.55S67.76,123.83,67.76,123Zm5.31-2.6v9.76c0,.94,0,2.18,1.55,2.18s1.55-1.24,1.55-2.18v-9.76c0-.78,0-1.71-1.55-1.71S73.07,119.64,73.07,120.42Z"/><path class="cls-1" d="M92.1,124.45c.09,0,.15-.09.15-.31V117c0-1.24,0-2.48,1.87-2.48h1.55c1.86,0,1.86,1.24,1.86,2.48v17c0,1.24,0,2.48-1.86,2.48-2.79,0-3-.49-3.45-1.42l-4.12-9c-.09-.18-.19-.31-.25-.31s-.12.13-.12.31l0,7.91c0,1.24,0,2.48-1.86,2.48H84.35c-1.86,0-1.86-1.24-1.86-2.48V117c0-1.24,0-2.48,1.86-2.48H86c1,0,1.37.12,1.83,1.08l4,8.53C91.91,124.36,92,124.45,92.1,124.45Z"/><path class="cls-1" d="M105.09,114.37c2.57,0,4.31.47,4.31,1.34v2.38c0,.34-.13.93-1.18.93H108c-.49,0-1.61-.34-2.51-.34-.74,0-1.33.25-1.33,1.24s.28,1.46,1.49,2.45c3.69,3,4.43,5.21,4.43,7.72a6.61,6.61,0,0,1-.84,3.94,5.9,5.9,0,0,1-3.32,2.33,13.37,13.37,0,0,1-3,.34c-2.3,0-4.53-.44-4.53-1.68v-2.38c0-.38.31-.75,1.15-.75a25,25,0,0,0,3.25.47c.87,0,2-.69,2-1.65,0-.71,0-1.24-1.92-3.1-2.89-2.82-4.25-4.12-4.25-6.66C98.67,114.84,102.61,114.37,105.09,114.37Z"/></g></g></svg>