<svg id="Layer_1" data-name="Layer 1" xmlns="http://www.w3.org/2000/svg" viewBox="0 0 55.82 77.2"><defs><style>.cls-1{fill:#3068d9;}.cls-2{fill:#f2cb05;}</style></defs><title>space-bean</title><g id="Group_494" data-name="Group 494"><g id="Group_493" data-name="Group 493"><path id="Path_374" data-name="Path 374" class="cls-1" d="M26.62,20.31C17.86,25.67,9.28,45.68,15,56.8c4.72,9.1,16.18,10.57,24.6,4.56S41.42,48.9,41.05,45s4.11-9.55,2.36-17.7C42.28,22.06,35.39,15,26.62,20.31Zm16.06,7.78c1.65,7.72-3,12.84-2.6,16.55s6.37,10.69-.95,15.68C31,65.81,20.32,64.61,15.87,56c-5.45-10.5,2.67-29.44,11-34.5s14.76,1.69,15.84,6.59Z"/><path id="Path_375" data-name="Path 375" class="cls-1" d="M13.54,43.47c-1.29-1.59-6-5.85-7-6.19S3.62,38,2,38-.34,35.75.15,34.74s2.42-2,4.75-.74,9,7.51,9,7.51Z"/><path id="Path_376" data-name="Path 376" class="cls-1" d="M41,45.65c1.53-1.38,6.83-4.84,7.88-5s2.78,1.14,4.41,1.44,2.66-1.83,2.33-2.91S53.49,36.82,51,37.71s-10.11,6-10.11,6Z"/><path id="Path_377" data-name="Path 377" class="cls-1" d="M24.29,64a12.33,12.33,0,0,0-5.63,4.56c-2,3-1.26,7.33-2.33,8.24s-5.33.37-6.28-1.5.46-3,1.93-2.7a8.5,8.5,0,0,1,2.08.7.4.4,0,0,0,.55-.19.11.11,0,0,0,0-.08,15.93,15.93,0,0,1,3-6.22,18,18,0,0,1,4.44-3.71C22.3,63.23,25.34,63.51,24.29,64Z"/><path id="Path_378" data-name="Path 378" class="cls-1" d="M31.16,64.24c0,.4-.25,3.89.82,5.92,1.6,3.09,3.62,3.67,6.1,2.39s3.22-3.28,3.13-4.29a2.32,2.32,0,0,0-2.77-1.78h0a2.83,2.83,0,0,0-2.2,3.13c.09,1.1-1.81,3.09-2.73-.74-.4-1.59-.22-4.63-.4-5S31.1,63.33,31.16,64.24Z"/><g id="Group_77" data-name="Group 77"><path id="Path_379" data-name="Path 379" class="cls-1" d="M35.05,32.93a.58.58,0,0,0-.64.37,4.14,4.14,0,0,1-4.72,2.85,4.19,4.19,0,0,1-3.4-4.35.56.56,0,0,0-.46-.58h0a.58.58,0,0,0-.67.46.13.13,0,0,1,0,.06,5.31,5.31,0,0,0,10.36,1.93.6.6,0,0,0-.43-.73Z"/></g><ellipse id="Ellipse_3" data-name="Ellipse 3" class="cls-1" cx="29.25" cy="28.52" rx="0.74" ry="1.04" transform="translate(-2.4 2.69) rotate(-5.05)"/><ellipse id="Ellipse_4" data-name="Ellipse 4" class="cls-1" cx="33.24" cy="28.92" rx="0.95" ry="1.07" transform="translate(-2.42 3.04) rotate(-5.05)"/></g><g id="Group_492" data-name="Group 492"><g id="Group_79" data-name="Group 79"><path id="Path_380" data-name="Path 380" class="cls-2" d="M24.54,12.56A18.28,18.28,0,1,0,47.67,24.11,18.28,18.28,0,0,0,24.54,12.56Zm21.87,12A17,17,0,1,1,24.94,13.79h0A17,17,0,0,1,46.42,24.51Z"/></g><g id="Group_80" data-name="Group 80"><rect id="Rectangle_1" data-name="Rectangle 1" class="cls-2" x="18.02" y="2.32" width="1.35" height="13.39" transform="translate(-2.05 9.61) rotate(-27.38)"/></g><g id="Group_81" data-name="Group 81"><rect id="Rectangle_2" data-name="Rectangle 2" class="cls-2" x="41.7" y="13.16" width="13.39" height="1.35" transform="translate(4.05 37.65) rotate(-44.19)"/></g><g id="Group_82" data-name="Group 82"><circle id="Ellipse_5" data-name="Ellipse 5" class="cls-2" cx="14.92" cy="1.96" r="1.96"/></g><g id="Group_83" data-name="Group 83"><circle id="Ellipse_6" data-name="Ellipse 6" class="cls-2" cx="53.86" cy="8.12" r="1.96"/></g></g></g></svg>