<svg id="Layer_1" data-name="Layer 1" xmlns="http://www.w3.org/2000/svg" viewBox="0 0 128.65 132.48"><defs><style>.cls-1{fill:#9450f2;}.cls-2{isolation:isolate;}</style></defs><title>submission</title><g id="Group_258" data-name="Group 258"><g id="Group_255" data-name="Group 255"><path id="Path_572" data-name="Path 572" class="cls-1" d="M66.26,0a46.63,46.63,0,1,0,46.63,46.63h0A46.6,46.6,0,0,0,66.31,0Zm0,84.78a38.15,38.15,0,1,1,38.15-38.15h0A38.11,38.11,0,0,1,66.34,84.78Z"/></g><g id="Group_257" data-name="Group 257"><g id="Group_256" data-name="Group 256"><path id="Path_573" data-name="Path 573" class="cls-1" d="M64.2,37.91v-.79c0-.8-.08-1.59-.32-1.59-.4,0-3.25,2.38-4,2.93a2.2,2.2,0,0,1-1.43.64c-1.27,0-4.36-3.1-4.36-4.68s2.46-2.22,7.69-8.17l.24-.32c2.14-2.37,2.3-2.61,6.11-2.61H71.5c3,0,3,2.38,3,4.76V61.94c0,1.74,0,3.57-3.65,3.57H67.61C64,65.51,64,63.76,64,61.94v-24Z"/></g></g></g><g id="Submission" class="cls-2"><g class="cls-2"><path class="cls-1" d="M6.7,110.15c2.57,0,4.31.47,4.31,1.33v2.39c0,.34-.13.93-1.18.93H9.58c-.5,0-1.61-.34-2.51-.34s-1.33.25-1.33,1.24.27,1.46,1.48,2.45c3.69,3,4.44,5.21,4.44,7.72a6.61,6.61,0,0,1-.84,3.94,5.9,5.9,0,0,1-3.32,2.33,13.37,13.37,0,0,1-3,.34C2.23,132.48,0,132,0,130.8v-2.39c0-.37.31-.74,1.15-.74a24.67,24.67,0,0,0,3.25.47c.87,0,2.05-.69,2.05-1.65,0-.71,0-1.24-1.92-3.1-2.89-2.82-4.25-4.12-4.25-6.66C.28,110.62,4.22,110.15,6.7,110.15Z"/><path class="cls-1" d="M26.13,126c0,3.84-.43,6.45-6.66,6.45-6.54,0-7-2.64-7-6.67,0-9.8,0-13,0-13,0-1.24,0-2.48,1.86-2.48H15.9c1.86,0,1.86,1.24,1.86,2.48v13.64c0,.93,0,1.71,1.71,1.71,1.39,0,1.39-.78,1.39-1.71V112.76c0-1.21,0-2.45,1.86-2.45h1.55c1.86,0,1.86,1.24,1.86,2.45Z"/><path class="cls-1" d="M38.47,120.54c0,.06,0,.12.13.15,2.23.75,3,3.2,3,5.37a7.47,7.47,0,0,1-.83,3.41c-1.52,2.79-2.82,2.85-4.84,2.85H29.05c-1.86,0-1.86-1.24-1.86-2.48v-17c0-1.24,0-2.48,1.86-2.48h6.66c4,0,5.34,2.66,5.34,5.52a5,5,0,0,1-2.45,4.55A.16.16,0,0,0,38.47,120.54Zm-6-3.94c0,1.55,0,2.08,1.55,2.08,1.24,0,1.55-1,1.55-2.08s-.31-2.11-1.55-2.11C32.46,114.49,32.46,115.05,32.46,116.6Zm0,8.74c0,1.86,0,2.8,1.7,2.8s1.71-1.4,1.71-2.8,0-2.72-1.71-2.72S32.46,123.48,32.46,125.34Z"/><path class="cls-1" d="M54.53,112c.68-1.61,1.4-1.73,2.51-1.73h1.68c1.86,0,1.86,1.24,1.86,2.48v17c0,1.24,0,2.48-1.86,2.48H57.17c-1.87,0-1.87-1.24-1.87-2.48v-8.53c0-.18-.06-.31-.15-.31s-.19.13-.28.31c-2.2,4.38-2.26,5.43-3.29,5.43s-1.11-1-3.28-5.43c-.09-.18-.22-.31-.28-.31s-.16.13-.16.31v8.53c0,1.24,0,2.48-1.86,2.48H44.45c-1.86,0-1.86-1.24-1.86-2.48v-17c0-1.24,0-2.48,1.86-2.48H46.1A2.28,2.28,0,0,1,48.64,112L51,117.53c.25.56.41.87.62.87s.38-.31.63-.87Z"/><path class="cls-1" d="M67,129.84c0,1.24,0,2.48-1.86,2.48H63.55c-1.86,0-1.86-1.24-1.86-2.48v-17c0-1.24,0-2.48,1.86-2.48H65.1c1.86,0,1.86,1.24,1.86,2.48Z"/><path class="cls-1" d="M74.52,110.15c2.58,0,4.31.47,4.31,1.33v2.39c0,.34-.12.93-1.17.93h-.25c-.5,0-1.62-.34-2.51-.34s-1.34.25-1.34,1.24.28,1.46,1.49,2.45c3.69,3,4.43,5.21,4.43,7.72a6.68,6.68,0,0,1-.83,3.94,6,6,0,0,1-3.32,2.33,13.53,13.53,0,0,1-3,.34c-2.29,0-4.52-.44-4.52-1.68v-2.39c0-.37.31-.74,1.14-.74a25.19,25.19,0,0,0,3.26.47c.87,0,2-.69,2-1.65,0-.71,0-1.24-1.93-3.1-2.88-2.82-4.24-4.12-4.24-6.66C68.11,110.62,72,110.15,74.52,110.15Z"/><path class="cls-1" d="M86.8,110.15c2.57,0,4.31.47,4.31,1.33v2.39c0,.34-.12.93-1.18.93h-.25c-.49,0-1.61-.34-2.51-.34-.74,0-1.33.25-1.33,1.24s.28,1.46,1.49,2.45c3.69,3,4.43,5.21,4.43,7.72a6.61,6.61,0,0,1-.84,3.94,5.91,5.91,0,0,1-3.31,2.33,13.53,13.53,0,0,1-3,.34c-2.3,0-4.53-.44-4.53-1.68v-2.39c0-.37.31-.74,1.15-.74a25.19,25.19,0,0,0,3.26.47c.86,0,2-.69,2-1.65,0-.71,0-1.24-1.92-3.1-2.88-2.82-4.25-4.12-4.25-6.66C80.38,110.62,84.32,110.15,86.8,110.15Z"/><path class="cls-1" d="M97.9,129.84c0,1.24,0,2.48-1.86,2.48H94.49c-1.86,0-1.86-1.24-1.86-2.48v-17c0-1.24,0-2.48,1.86-2.48H96c1.86,0,1.86,1.24,1.86,2.48Z"/><path class="cls-1" d="M98.89,118.8c0-5,.46-8.65,7-8.65,6.23,0,6.66,3.6,6.66,8.53,0,1.86.09,3.69.09,5.33,0,4.9-.77,8.47-6.75,8.47-6.55,0-7-3.66-7-8.62,0-.84,0-1.68,0-2.55S98.89,119.61,98.89,118.8Zm5.3-2.6V126c0,.94,0,2.18,1.55,2.18s1.55-1.24,1.55-2.18V116.2c0-.78,0-1.71-1.55-1.71S104.19,115.42,104.19,116.2Z"/><path class="cls-1" d="M123.22,120.23c.1,0,.16-.09.16-.31v-7.13c0-1.24,0-2.48,1.86-2.48h1.55c1.86,0,1.86,1.24,1.86,2.48v17c0,1.24,0,2.48-1.86,2.48-2.79,0-3-.5-3.44-1.42l-4.12-9c-.1-.18-.19-.31-.25-.31s-.13.13-.13.31l0,7.91c0,1.24,0,2.48-1.86,2.48h-1.55c-1.86,0-1.86-1.24-1.86-2.48v-17c0-1.24,0-2.48,1.86-2.48h1.65c1,0,1.36.12,1.83,1.08l4,8.53C123,120.14,123.13,120.23,123.22,120.23Z"/></g></g></svg>