<svg id="Layer_1" data-name="Layer 1" xmlns="http://www.w3.org/2000/svg" xmlns:xlink="http://www.w3.org/1999/xlink" viewBox="0 0 117.48 161.33"><defs><style>.cls-1{fill:none;}.cls-2{clip-path:url(#clip-path);}.cls-3{fill:#9450f2;}.cls-4{fill:#fff;}.cls-5{clip-path:url(#clip-path-5);}.cls-6{fill:#96d9c6;}.cls-7{fill:#f2cb05;}.cls-8{clip-path:url(#clip-path-9);}</style><clipPath id="clip-path"><path class="cls-1" d="M84,111.41c3.58,9.27,8.6,27.49,4.85,30.26s-23.17-1-24.71-3.55c-2.8-4.5,2.6-2.71,10.94-9.94S83.3,109.61,84,111.41Z"/></clipPath><clipPath id="clip-path-5"><path class="cls-1" d="M26.61,83.21C21.31,86,3.39,101,.4,109.87s11.12,12.46,24.48,18.37c6.43,2.84-5.85-12.26-5.33-22.61C20,96,33.67,79.48,26.61,83.21Z"/></clipPath><clipPath id="clip-path-9"><path class="cls-1" d="M37,2.48c-.3,4.05-3.84,42.91-2.76,45.88s13.39,1.06,19.13-1.28,13.54-8.51,13.75-10.63S43.14,5.23,41.64,3.33C38.14-1.09,37.18-.83,37,2.48Z"/></clipPath></defs><title>wizard-bean</title><g id="Group_510" data-name="Group 510"><g id="Group_276" data-name="Group 276"><g class="cls-2"><g id="Group_272" data-name="Group 272"><path id="Path_578" data-name="Path 578" class="cls-3" d="M84,111.41c3.58,9.27,8.6,27.49,4.85,30.26s-23.17-1-24.71-3.55c-2.8-4.5,2.6-2.71,10.94-9.94S83.3,109.61,84,111.41Z"/></g></g><g class="cls-2"><g id="Group_273" data-name="Group 273"><path id="Path_580" data-name="Path 580" class="cls-4" d="M86.72,122.18a1.26,1.26,0,0,1-.35.34l-1.49,1.26a.45.45,0,0,0-.17.43l.19,2.08a.46.46,0,0,1-.24.5.45.45,0,0,1-.52,0l-1.75-1.1a.49.49,0,0,0-.52,0c-.63.28-1.28.54-1.93.8a.5.5,0,0,1-.5,0,.43.43,0,0,1-.15-.52l.52-2a.49.49,0,0,0-.11-.5c-.48-.54-.93-1.08-1.41-1.62a.43.43,0,0,1-.08-.5.42.42,0,0,1,.39-.29l2.2-.15a.36.36,0,0,0,.35-.22c.35-.58.72-1.17,1.06-1.77.2-.33.5-.43.76-.24a.69.69,0,0,1,.2.3c.26.63.5,1.28.75,1.91a.55.55,0,0,0,.48.32c.65.15,1.3.3,1.95.43a.54.54,0,0,1,.43.39Z"/></g></g><g class="cls-2"><g id="Group_274" data-name="Group 274"><path id="Path_582" data-name="Path 582" class="cls-4" d="M79,135a1.45,1.45,0,0,1-.35.35l-1.5,1.25A.49.49,0,0,0,77,137l.2,2.08a.47.47,0,0,1-.76.45l-1.76-1.1a.49.49,0,0,0-.52,0c-.62.28-1.27.54-1.92.8a.52.52,0,0,1-.5,0,.44.44,0,0,1-.16-.52l.52-2a.46.46,0,0,0-.1-.5c-.48-.54-.94-1.08-1.41-1.62a.46.46,0,0,1,.3-.78l2.21-.16a.36.36,0,0,0,.35-.21c.34-.59.71-1.17,1.06-1.78.19-.32.5-.43.76-.24a.73.73,0,0,1,.19.3c.26.63.5,1.28.76,1.91a.54.54,0,0,0,.48.32c.65.16,1.3.3,1.94.44a.54.54,0,0,1,.44.39A1.1,1.1,0,0,0,79,135Z"/></g></g><g class="cls-2"><g id="Group_275" data-name="Group 275"><path id="Path_584" data-name="Path 584" class="cls-4" d="M93.48,135a1.3,1.3,0,0,1-.35.35l-1.49,1.25a.47.47,0,0,0-.17.44l.19,2.08a.47.47,0,0,1-.76.45l-1.75-1.1a.49.49,0,0,0-.52,0c-.63.28-1.28.54-1.93.8a.52.52,0,0,1-.5,0,.44.44,0,0,1-.15-.52l.52-2a.49.49,0,0,0-.11-.5c-.48-.54-.93-1.08-1.41-1.62a.42.42,0,0,1-.08-.5.4.4,0,0,1,.39-.28l2.2-.16a.36.36,0,0,0,.35-.21c.35-.59.72-1.17,1.06-1.78.2-.32.5-.43.76-.24a.75.75,0,0,1,.2.3c.26.63.5,1.28.75,1.91a.55.55,0,0,0,.48.32c.65.16,1.3.3,2,.44a.51.51,0,0,1,.43.39A.39.39,0,0,0,93.48,135Z"/></g></g></g><g id="Group_281" data-name="Group 281"><g class="cls-5"><g id="Group_277" data-name="Group 277"><path id="Path_586" data-name="Path 586" class="cls-3" d="M26.61,83.21C21.31,86,3.39,101,.4,109.87s11.12,12.46,24.48,18.37c6.43,2.84-5.85-12.26-5.33-22.61C20,96,33.67,79.48,26.61,83.21Z"/></g></g><g class="cls-5"><g id="Group_278" data-name="Group 278"><path id="Path_588" data-name="Path 588" class="cls-4" d="M19,99.93a1.17,1.17,0,0,1-.35.35l-1.49,1.25A.5.5,0,0,0,17,102l.2,2.08a.47.47,0,0,1-.76.45l-1.75-1.1a.51.51,0,0,0-.52,0c-.63.28-1.28.54-1.93.8a.52.52,0,0,1-.5,0,.44.44,0,0,1-.15-.52l.52-2a.49.49,0,0,0-.11-.5c-.48-.54-.93-1.08-1.41-1.62a.43.43,0,0,1-.09-.5.42.42,0,0,1,.39-.28l2.21-.15a.37.37,0,0,0,.35-.22c.35-.59.71-1.17,1.06-1.78.2-.32.5-.43.76-.24a.64.64,0,0,1,.19.3c.26.63.5,1.28.76,1.91a.56.56,0,0,0,.48.33c.65.15,1.3.3,1.95.43a.51.51,0,0,1,.43.39A.4.4,0,0,0,19,99.93Z"/></g></g><g class="cls-5"><g id="Group_279" data-name="Group 279"><path id="Path_590" data-name="Path 590" class="cls-4" d="M5.84,113.75a1.17,1.17,0,0,1-.35.35L4,115.35a.47.47,0,0,0-.17.44L4,117.87a.47.47,0,0,1-.76.45l-1.75-1.1a.51.51,0,0,0-.52,0c-.63.28-1.28.54-1.93.8a.52.52,0,0,1-.5,0,.44.44,0,0,1-.15-.52l.52-2a.49.49,0,0,0-.11-.5c-.48-.54-.93-1.08-1.41-1.62a.42.42,0,0,1-.08-.5.4.4,0,0,1,.39-.28l2.2-.15a.37.37,0,0,0,.35-.22c.35-.59.72-1.17,1.06-1.78.2-.32.5-.43.76-.24a.75.75,0,0,1,.2.3c.26.63.5,1.28.75,1.91a.56.56,0,0,0,.48.33c.65.15,1.3.3,1.95.43a.51.51,0,0,1,.43.39A.58.58,0,0,0,5.84,113.75Z"/></g></g><g class="cls-5"><g id="Group_280" data-name="Group 280"><path id="Path_592" data-name="Path 592" class="cls-4" d="M21.68,114.42a1.3,1.3,0,0,1-.35.35c-.5.41-1,.85-1.5,1.26a.46.46,0,0,0-.17.43l.2,2.08a.48.48,0,0,1-.76.46l-1.76-1.1a.49.49,0,0,0-.52-.05c-.63.28-1.28.54-1.93.8a.52.52,0,0,1-.5,0,.45.45,0,0,1-.15-.52l.52-2a.45.45,0,0,0-.11-.5L13.25,114a.46.46,0,0,1,.3-.78c.74,0,1.47-.11,2.21-.15a.37.37,0,0,0,.35-.22c.34-.58.71-1.17,1.06-1.78.19-.32.5-.43.75-.23a.61.61,0,0,1,.2.3c.26.62.5,1.27.76,1.9a.55.55,0,0,0,.47.33c.65.15,1.3.3,1.95.43a.55.55,0,0,1,.44.39A.58.58,0,0,0,21.68,114.42Z"/></g></g></g><g id="Group_282" data-name="Group 282"><path id="Path_594" data-name="Path 594" class="cls-6" d="M87.35,82.91c-1.56-32.32-17.52-53.16-35-48.67C30.69,39.8,32.55,68,30.06,77.41c-2,7.49-10.29,15.16-11.81,29.15-1.41,13,9.14,34,32.43,34C80.74,140.55,88.91,115.23,87.35,82.91ZM50.83,136.28c-21.42,0-30.07-19.39-28.79-31.3C23.43,92.11,32.11,85.38,34,78.49c2.3-8.64-1.52-34.94,18.45-40C68.48,34.32,82.5,53.49,83.93,83.23s-5.42,53.05-33.1,53.05Z"/></g><g id="Group_283" data-name="Group 283"><path id="Path_595" data-name="Path 595" class="cls-6" d="M62.61,138.64c1.58,3.42,3.25,8.86,3.1,11.93s-.39,11.16,3.53,10.75,7.82-3.27,6-6.35-5.2-.3-5.95-7.52c-.44-4.15-2.49-8.38-2.9-10.33S61.79,136.82,62.61,138.64Z"/></g><g id="Group_284" data-name="Group 284"><path id="Path_596" data-name="Path 596" class="cls-6" d="M22.11,124.37c-.65,2.25-4.23,18.06-6.89,19.9s-6.72,2.08-8.34,4.23-1.23,7.14,5.22,6.23S17.58,149,18.53,145c1.48-6.2,7.89-13.69,8.8-14.71S22.93,121.51,22.11,124.37Z"/></g><g id="Group_285" data-name="Group 285"><path id="Path_597" data-name="Path 597" class="cls-6" d="M27.57,82.89c-2.15-1.54-9.3-9.54-10.38-15.58s-.37-7-1.08-7.12-5.87-.3-6-4.9,3.16-5.77,5.59-5.64,5.07,3.08,5.28,5.2c.48,4.81-.47,10.44,1,14.62a28.52,28.52,0,0,0,7.15,10.27C30.23,80.59,30.1,84.71,27.57,82.89Z"/></g><g id="Group_286" data-name="Group 286"><path id="Path_598" data-name="Path 598" class="cls-6" d="M86.07,99.91c2-1.3,8.32-5.52,11-8.47s4.63-5.24,4.18-5.7c-1.93-1.93-4.23-8.19,1.51-8.45s6.39,4.86,4.2,8.17a66,66,0,0,1-8.44,10.27C95.08,99.19,88,105,86.44,104.87S84.17,101.19,86.07,99.91Z"/></g><g id="Group_287" data-name="Group 287"><path id="Path_599" data-name="Path 599" class="cls-3" d="M105.59,98.44H103a.5.5,0,0,1-.5-.48V67.46A.5.5,0,0,1,103,67h2.58a.5.5,0,0,1,.5.48v30.5a.48.48,0,0,1-.46.5Z"/></g><g id="Group_288" data-name="Group 288"><path id="Path_600" data-name="Path 600" class="cls-3" d="M85.27,83.69c-2.34,1.45-29.18,15.79-31.36,15.64S34.09,80.81,30.75,77c-1-1.17-1.6,1.45-1.6,2.62S47,98.07,51.37,101c-1.45,1-4.07,2.9-4.13,3.1s-.11,2.34.19,2.13c1-.68,5.7-3.47,6.22-3.36s4,3.38,4.42,3.88,2.51-1.52,2.06-1.89-1.56-1.49-3.23-2.88c5.41-1.78,27.27-14.14,29.28-15.1.91-.41,1.6-.54,1.56-2C87.67,83.17,86.63,82.84,85.27,83.69Z"/></g><g id="Group_289" data-name="Group 289"><ellipse id="Ellipse_20" data-name="Ellipse 20" class="cls-6" cx="60.58" cy="55.83" rx="2.12" ry="2.27" transform="translate(-4.51 5.33) rotate(-4.86)"/></g><g id="Group_290" data-name="Group 290"><ellipse id="Ellipse_21" data-name="Ellipse 21" class="cls-6" cx="54.3" cy="56.74" rx="2.01" ry="2.25"/></g><g id="Group_291" data-name="Group 291"><path id="Path_601" data-name="Path 601" class="cls-6" d="M65.73,59.12c-.76-.21-15.25,2.08-14.51,5,.22.86,4.7,7.77,10.92,6C68.74,68.22,66.49,59.34,65.73,59.12Zm-4.22,8.36c-5,1.43-7.06-2.57-7.24-3.27-.58-2.34,8.49-3.14,9.1-3s3.49,4.72-1.86,6.23Z"/></g><g id="Group_296" data-name="Group 296"><g id="Group_292" data-name="Group 292"><path id="Path_602" data-name="Path 602" class="cls-7" d="M98,61.29l-1.38,1.34a.56.56,0,0,1-.79,0v0l-6.09-6.28a.56.56,0,0,1,0-.79h0l1.39-1.34a.54.54,0,0,1,.78,0l0,0,6.08,6.28a.56.56,0,0,1,0,.79Z"/></g><g id="Group_293" data-name="Group 293"><path id="Path_603" data-name="Path 603" class="cls-7" d="M106.71,59.93l-1.88-.46a.53.53,0,0,1-.42-.63v0l2-8.51a.54.54,0,0,1,.64-.42h0l1.89.46a.53.53,0,0,1,.42.63v0l-2,8.51a.56.56,0,0,1-.67.42Z"/></g><g id="Group_294" data-name="Group 294"><path id="Path_604" data-name="Path 604" class="cls-7" d="M110.63,63.07l-1.32-1.41a.57.57,0,0,1,0-.8l5.87-5.48a.58.58,0,0,1,.8,0l1.32,1.41a.57.57,0,0,1,0,.8l-5.87,5.48a.55.55,0,0,1-.78,0Z"/></g><g id="Group_295" data-name="Group 295"><path id="Path_605" data-name="Path 605" class="cls-7" d="M101.93,59.41l-1.89.45a.56.56,0,0,1-.67-.41h0l-1.45-6.11a.55.55,0,0,1,.41-.67h0l1.89-.46a.56.56,0,0,1,.67.41h0l1.45,6.1a.54.54,0,0,1-.38.67Z"/></g></g><g id="Group_301" data-name="Group 301"><g class="cls-8"><g id="Group_297" data-name="Group 297"><path id="Path_606" data-name="Path 606" class="cls-3" d="M37,2.48c-.3,4.05-3.84,42.91-2.76,45.88s13.39,1.06,19.13-1.28,13.54-8.51,13.75-10.63S43.14,5.23,41.64,3.33C38.14-1.09,37.18-.83,37,2.48Z"/></g></g><g class="cls-8"><g id="Group_298" data-name="Group 298"><path id="Path_608" data-name="Path 608" class="cls-4" d="M48.6,36.21a2,2,0,0,1-.48.56c-.69.67-1.38,1.36-2.08,2.06a.72.72,0,0,0-.19.67c.17,1,.37,2.06.54,3.07a.75.75,0,0,1-.28.78.69.69,0,0,1-.78,0c-.93-.47-1.84-1-2.77-1.45a.73.73,0,0,0-.78,0L39,43.35a.69.69,0,0,1-1.06-.75l.52-3.06a.76.76,0,0,0-.21-.73c-.76-.76-1.52-1.52-2.3-2.26a.66.66,0,0,1-.2-.73.66.66,0,0,1,.57-.48c1.08-.17,2.16-.32,3.27-.5a.68.68,0,0,0,.5-.37c.45-.93.91-1.84,1.36-2.77.26-.52.67-.72,1.1-.43a1,1,0,0,1,.33.43c.45.91.91,1.84,1.34,2.75a.81.81,0,0,0,.74.43c1,.13,2,.29,2.94.44a.78.78,0,0,1,.69.52Z"/></g></g><g class="cls-8"><g id="Group_299" data-name="Group 299"><path id="Path_610" data-name="Path 610" class="cls-4" d="M53.91,27a.91.91,0,0,1-.37.15c-.5.16-1,.33-1.45.5a.33.33,0,0,0-.24.26c-.15.52-.3,1.07-.46,1.59a.4.4,0,0,1-.32.3.41.41,0,0,1-.37-.18l-1-1.32a.37.37,0,0,0-.37-.17l-1.65,0a.42.42,0,0,1-.37-.17.36.36,0,0,1,0-.43l1-1.35a.35.35,0,0,0,.06-.39c-.19-.54-.36-1.06-.56-1.6a.37.37,0,0,1,.07-.39.35.35,0,0,1,.36-.11l1.67.52a.29.29,0,0,0,.33-.06l1.3-1a.38.38,0,0,1,.55,0l.08.08a.46.46,0,0,1,0,.28v1.63a.4.4,0,0,0,.24.37l1.3.89a.44.44,0,0,1,.21.41A1.54,1.54,0,0,0,53.91,27Z"/></g></g><g class="cls-8"><g id="Group_300" data-name="Group 300"><path id="Path_612" data-name="Path 612" class="cls-4" d="M52.74,8.61a2,2,0,0,1-.24.69L51.33,12a.71.71,0,0,0,.06.69Q52.2,14,53,15.33a.67.67,0,0,1,0,.82.69.69,0,0,1-.74.28c-1-.11-2-.19-3.1-.32a.79.79,0,0,0-.73.28c-.67.8-1.37,1.58-2,2.36a.74.74,0,0,1-.69.3.71.71,0,0,1-.56-.61c-.22-1-.44-2-.65-3a.87.87,0,0,0-.46-.61c-1-.41-2-.84-3-1.23a.67.67,0,0,1-.45-.61.62.62,0,0,1,.35-.65l2.85-1.67a.6.6,0,0,0,.33-.52c.09-1,.17-2,.24-3.07,0-.59.37-.91.86-.83a1.16,1.16,0,0,1,.46.29L48,8.56a.78.78,0,0,0,.85.13L51.78,8a.78.78,0,0,1,.84.24A1.23,1.23,0,0,0,52.74,8.61Z"/></g></g></g></g></svg>