<svg id="Layer_1" data-name="Layer 1" xmlns="http://www.w3.org/2000/svg" viewBox="0 0 54.78 64.45"><defs><style>.cls-1{fill:#f2cb05;}</style></defs><title>yellow-bean</title><g id="Group_490" data-name="Group 490"><g id="Group_68" data-name="Group 68"><path id="Path_368" data-name="Path 368" class="cls-1" d="M50,31.55c-1.1-2.74-5.4-11.7-8.14-19.06C39.37,5.93,33.47.12,28.34,0,21.86-.14,13.48,10.22,13.48,23.44s3.74,24.9,21.07,24.9S51.89,36.31,50,31.55ZM34.41,46.76c-16.2,0-19.24-10.92-19.24-23.26s7.42-22,13.46-21.89c4.79.11,9.86,5.54,12.14,11.67,2.57,6.86,6.57,15.24,7.62,17.8C50.14,35.49,50.61,46.76,34.41,46.76Z"/></g><g id="Group_69" data-name="Group 69"><ellipse id="Ellipse_1" data-name="Ellipse 1" class="cls-1" cx="25.3" cy="11.47" rx="1.08" ry="1.23"/></g><g id="Group_70" data-name="Group 70"><ellipse id="Ellipse_2" data-name="Ellipse 2" class="cls-1" cx="30.03" cy="11.21" rx="1.2" ry="1.55"/></g><g id="Group_71" data-name="Group 71"><path id="Path_369" data-name="Path 369" class="cls-1" d="M24.07,16.72c.38-1,6.89-2.16,7.21-1.84s.53,8.93-2.8,9.81S23.64,17.89,24.07,16.72Z"/></g><g id="Group_72" data-name="Group 72"><path id="Path_370" data-name="Path 370" class="cls-1" d="M45,20.78c1-1.43,5.34-7.5,5.55-8.61S50.75,9,52,8.47a1.94,1.94,0,0,1,2.59.92,1.92,1.92,0,0,1,.18.65c0,1.23-2.16,2.46-2.83,3.16s-5.75,7.67-6.25,9S44.71,21.16,45,20.78Z"/></g><g id="Group_73" data-name="Group 73"><path id="Path_371" data-name="Path 371" class="cls-1" d="M14.12,23.29c-.87-.87-8.17-5.42-9-6.33-.55-.55-.43-1.84-1.16-3S.64,12.55.17,13.81s-.09,2.28,2.66,3.56S13.54,24,14.15,25.48,14.85,24,14.12,23.29Z"/></g><g id="Group_74" data-name="Group 74"><path id="Path_372" data-name="Path 372" class="cls-1" d="M25.71,46.85a43.58,43.58,0,0,0-3,8.52c-.26,1.78.59,5.08.3,5.72s-1.43,1.35-1,2.51,2.08,1.14,3-.17a2.12,2.12,0,0,0,.26-2.63,11.06,11.06,0,0,1-1-5.46c.29-2.16,3-7.59,3.1-8.05S26.23,45.83,25.71,46.85Z"/></g><g id="Group_75" data-name="Group 75"><path id="Path_373" data-name="Path 373" class="cls-1" d="M41.44,47.29c.94,1.2,4.58,3.32,4.53,5.48s-1.46,5.34-.68,6.72,4.56.73,4.56-1.11-2.6-1.64-3-1.84.64-2.28.44-4.29c-.18-1.75-2.34-5.4-3.18-5.87S40.54,46.12,41.44,47.29Z"/></g></g></svg>